<?xml version="1.0" encoding="iso-8859-1"?>
<!-- Generator: Adobe Illustrator 16.0.0, SVG Export Plug-In . SVG Version: 6.00 Build 0)  -->
<!DOCTYPE svg PUBLIC "-//W3C//DTD SVG 1.1//EN" "http://www.w3.org/Graphics/SVG/1.1/DTD/svg11.dtd">
<svg version="1.1" id="Layer_1" xmlns="http://www.w3.org/2000/svg" xmlns:xlink="http://www.w3.org/1999/xlink" x="0px" y="0px"
	 width="64.006px" height="63.982px" viewBox="0 0 64.006 63.982" style="enable-background:new 0 0 64.006 63.982;"
	 xml:space="preserve">
<g id="Bar_82_">
	<g>
		<path style="fill:#CCCCCC;" d="M60.307,0.001C60.303,0.001,60.3,0,60.296,0H3.71C3.707,0,3.703,0.001,3.699,0.001
			C1.655,0.008,0,1.611,0,3.593v6.389v50.291c0,2.05,1.661,3.71,3.71,3.71h56.585c2.049,0,3.71-1.66,3.71-3.71V9.981V3.593
			C64.006,1.611,62.351,0.008,60.307,0.001z"/>
	</g>
</g>
<g id="Container_82_">
	<g>
		<path style="fill:#FFFFFF;" d="M58.006,11.991h-52h-2v2.001v14v30.001c0,1.104,0.895,1.999,2,1.999h52c1.104,0,2-0.895,2-1.999
			V27.992v-14v-2.001H58.006z"/>
	</g>
</g>
<g id="Play">
	<g>
		<path style="fill:#48A0DC;" d="M39.978,35.857c0.013-0.768-0.315-1.524-0.964-1.936l-11.977-7.603
			c-0.192-0.119-0.399-0.197-0.627-0.247c-0.094-0.022-0.183-0.048-0.277-0.055c-0.044-0.004-0.082-0.025-0.126-0.025
			c-0.101,0-0.187,0.043-0.283,0.058c-0.116,0.018-0.227,0.027-0.337,0.068c-0.201,0.065-0.376,0.166-0.543,0.291
			c-0.02,0.015-0.042,0.024-0.061,0.041c-0.434,0.344-0.722,0.846-0.754,1.435c-0.001,0.01-0.005,0.02-0.006,0.028
			c-0.001,0.028-0.016,0.051-0.016,0.079v16c0,0.028,0.015,0.052,0.016,0.079c0.001,0.013,0.005,0.021,0.006,0.032
			c0.034,0.585,0.319,1.085,0.75,1.43c0.025,0.021,0.054,0.032,0.08,0.053c0.162,0.116,0.33,0.215,0.522,0.28
			c0.117,0.042,0.234,0.054,0.356,0.071c0.092,0.014,0.174,0.055,0.27,0.055c0.043,0,0.079-0.021,0.121-0.025
			c0.099-0.007,0.192-0.034,0.29-0.057c0.214-0.048,0.409-0.117,0.591-0.227l12.005-7.619c0.649-0.412,0.978-1.168,0.964-1.937
			c0.006-0.046,0.005-0.089,0.008-0.136C39.982,35.947,39.983,35.904,39.978,35.857z"/>
	</g>
</g>
<g id="Btns_79_">
	<g>
		<path style="fill-rule:evenodd;clip-rule:evenodd;fill:#FFFFFF;" d="M46.005,3.992c-0.007,0-0.013,0.002-0.02,0.002H6.006
			c-1.104,0-2,0.895-2,2c0,1.104,0.896,2,2,2h40c1.104,0,2-0.896,2-2v0v0C48.006,4.888,47.11,3.992,46.005,3.992z M52.006,3.992
			c-1.105,0-2,0.896-2,2.001c0,1.104,0.895,1.999,2,1.999c1.104,0,2-0.895,2-1.999C54.006,4.888,53.11,3.992,52.006,3.992z
			 M58.006,3.992c-1.104,0-2,0.896-2,2.001c0,1.104,0.896,1.999,2,1.999s2-0.895,2-1.999C60.006,4.888,59.11,3.992,58.006,3.992z"/>
	</g>
</g>
<g>
</g>
<g>
</g>
<g>
</g>
<g>
</g>
<g>
</g>
<g>
</g>
<g>
</g>
<g>
</g>
<g>
</g>
<g>
</g>
<g>
</g>
<g>
</g>
<g>
</g>
<g>
</g>
<g>
</g>
</svg>
