<?xml version="1.0" encoding="iso-8859-1"?>
<!-- Generator: Adobe Illustrator 16.0.0, SVG Export Plug-In . SVG Version: 6.00 Build 0)  -->
<!DOCTYPE svg PUBLIC "-//W3C//DTD SVG 1.1//EN" "http://www.w3.org/Graphics/SVG/1.1/DTD/svg11.dtd">
<svg version="1.1" id="Layer_1" xmlns="http://www.w3.org/2000/svg" xmlns:xlink="http://www.w3.org/1999/xlink" x="0px" y="0px"
	 width="64.006px" height="63.984px" viewBox="0 0 64.006 63.984" style="enable-background:new 0 0 64.006 63.984;"
	 xml:space="preserve">
<g id="Bar_71_">
	<g>
		<path style="fill:#CCCCCC;" d="M60.307,0.003C60.303,0.003,60.3,0,60.296,0H3.71C3.706,0,3.703,0.003,3.699,0.003
			C1.655,0.009,0,1.613,0,3.594v6.39v50.291c0,2.048,1.661,3.71,3.71,3.71h56.586c2.049,0,3.71-1.662,3.71-3.71V9.983v-6.39
			C64.006,1.613,62.351,0.009,60.307,0.003z"/>
	</g>
</g>
<g id="Container_70_">
	<g>
		<path style="fill:#FFFFFF;" d="M58.006,11.993h-52h-2v2v12.001v31.999c0,1.105,0.896,2.001,2,2.001h52c1.104,0,2-0.896,2-2.001
			V25.994V13.993v-2H58.006z"/>
	</g>
</g>
<g id="Wheel">
	<g>
		<path style="fill:#48A0DC;" d="M44.256,33.368l-1.301-0.425c-0.25-0.895-0.6-1.746-1.048-2.537l0.616-1.22
			c0.684-0.683,0.684-1.79,0-2.474l-1.237-1.237c-0.684-0.684-1.791-0.684-2.475,0l-1.217,0.617
			c-0.791-0.447-1.643-0.799-2.536-1.049l-0.428-1.301c0-0.966-0.783-1.75-1.75-1.75h-1.75c-0.967,0-1.75,0.784-1.75,1.75
			l-0.425,1.301c-0.892,0.248-1.739,0.597-2.528,1.042l-1.229-0.61c-0.684-0.684-1.791-0.684-2.475,0l-1.236,1.237
			c-0.684,0.684-0.684,1.791,0,2.474l0.61,1.229c-0.443,0.785-0.791,1.629-1.039,2.516l-1.304,0.438c-0.967,0-1.75,0.784-1.75,1.75
			v1.75c0,0.968,0.783,1.75,1.75,1.75l1.305,0.438c0.247,0.886,0.595,1.73,1.038,2.516l-0.61,1.229c-0.684,0.683-0.684,1.79,0,2.474
			l1.236,1.237c0.684,0.685,1.791,0.685,2.475,0l1.229-0.61c0.785,0.443,1.629,0.791,2.516,1.038l0.438,1.305
			c0,0.967,0.783,1.75,1.75,1.75h1.75c0.967,0,1.75-0.783,1.75-1.75l0.438-1.305c0.891-0.248,1.736-0.599,2.524-1.044l1.219,0.616
			c0.684,0.685,1.791,0.685,2.475,0l1.237-1.237c0.684-0.684,0.684-1.791,0-2.474l-0.617-1.218c0.447-0.792,0.799-1.643,1.048-2.537
			l1.302-0.428c0.967,0,1.75-0.782,1.75-1.75v-1.75C46.006,34.152,45.223,33.368,44.256,33.368z M32.006,41.994
			c-3.313,0-6-2.688-6-6.001s2.687-5.999,6-5.999s6,2.686,6,5.999S35.319,41.994,32.006,41.994z"/>
	</g>
</g>
<g id="Btns_67_">
	<g>
		<path style="fill-rule:evenodd;clip-rule:evenodd;fill:#FFFFFF;" d="M46.006,3.993c-0.007,0-0.013,0.002-0.02,0.002H6.006
			c-1.104,0-2,0.896-2,2s0.896,2,2,2h40c1.104,0,2-0.896,2-2C48.006,4.889,47.11,3.993,46.006,3.993z M52.006,3.993
			c-1.104,0-2,0.896-2,2.002c0,1.104,0.896,1.999,2,1.999s2-0.896,2-1.999C54.006,4.889,53.11,3.993,52.006,3.993z M58.006,3.993
			c-1.104,0-2,0.896-2,2.002c0,1.104,0.896,1.999,2,1.999s2-0.896,2-1.999C60.006,4.889,59.11,3.993,58.006,3.993z"/>
	</g>
</g>
<g>
</g>
<g>
</g>
<g>
</g>
<g>
</g>
<g>
</g>
<g>
</g>
<g>
</g>
<g>
</g>
<g>
</g>
<g>
</g>
<g>
</g>
<g>
</g>
<g>
</g>
<g>
</g>
<g>
</g>
</svg>
