<?xml version="1.0" encoding="iso-8859-1"?>
<!-- Generator: Adobe Illustrator 16.0.0, SVG Export Plug-In . SVG Version: 6.00 Build 0)  -->
<!DOCTYPE svg PUBLIC "-//W3C//DTD SVG 1.1//EN" "http://www.w3.org/Graphics/SVG/1.1/DTD/svg11.dtd">
<svg version="1.1" id="Layer_1" xmlns="http://www.w3.org/2000/svg" xmlns:xlink="http://www.w3.org/1999/xlink" x="0px" y="0px"
	 width="64.007px" height="63.983px" viewBox="0 0 64.007 63.983" style="enable-background:new 0 0 64.007 63.983;"
	 xml:space="preserve">
<g id="Bar_85_">
	<g>
		<path style="fill:#CCCCCC;" d="M60.307,0.003C60.303,0.003,60.3,0,60.296,0H3.71C3.706,0,3.703,0.003,3.699,0.003
			C1.655,0.009,0,1.612,0,3.594v6.39v50.291c0,2.049,1.661,3.709,3.71,3.709h56.586c2.05,0,3.711-1.66,3.711-3.709V9.983v-6.39
			C64.007,1.612,62.351,0.009,60.307,0.003z"/>
	</g>
</g>
<g id="Container_85_">
	<g>
		<path style="fill:#FFFFFF;" d="M58.006,11.994h-52h-2v2v13.999v30c0,1.104,0.896,2,2,2h52c1.104,0,2-0.896,2-2v-30V13.994v-2
			H58.006z"/>
	</g>
</g>
<g id="Download">
	<g>
		<path style="fill-rule:evenodd;clip-rule:evenodd;fill:#48A0DC;" d="M39.355,38.579c-0.81-0.807-2.123-0.807-2.933,0l-2.417,2.409
			V29.993c0-1.104-0.896-2-2-2s-2,0.896-2,2v11.091l-2.491-2.499c-0.807-0.811-2.114-0.811-2.921,0c-0.806,0.808-0.806,2.121,0,2.93
			l5.842,5.861c0.325,0.326,0.731,0.509,1.153,0.572c0.135,0.028,0.273,0.045,0.417,0.045c0.561,0,1.066-0.232,1.43-0.604
			c0.018-0.016,0.038-0.025,0.055-0.042l5.865-5.845C40.166,40.694,40.166,39.388,39.355,38.579z"/>
	</g>
</g>
<g id="Btns_82_">
	<g>
		<path style="fill-rule:evenodd;clip-rule:evenodd;fill:#FFFFFF;" d="M46.006,3.994c-0.003,0-0.007,0.001-0.01,0.001H6.006
			c-1.104,0-2,0.896-2,2s0.896,2,2,2h40c0.138,0,0.272-0.014,0.403-0.041c0.911-0.187,1.597-0.993,1.597-1.959
			C48.006,4.89,47.11,3.994,46.006,3.994z M52.006,3.994c-1.104,0-2,0.896-2,2.001c0,1.104,0.896,2,2,2s2-0.896,2-2
			C54.006,4.89,53.11,3.994,52.006,3.994z M58.006,3.994c-1.104,0-2,0.896-2,2.001c0,1.104,0.896,2,2,2s2-0.896,2-2
			C60.006,4.89,59.11,3.994,58.006,3.994z"/>
	</g>
</g>
<g>
</g>
<g>
</g>
<g>
</g>
<g>
</g>
<g>
</g>
<g>
</g>
<g>
</g>
<g>
</g>
<g>
</g>
<g>
</g>
<g>
</g>
<g>
</g>
<g>
</g>
<g>
</g>
<g>
</g>
</svg>
