<?xml version="1.0" encoding="iso-8859-1"?>
<!-- Generator: Adobe Illustrator 16.0.0, SVG Export Plug-In . SVG Version: 6.00 Build 0)  -->
<!DOCTYPE svg PUBLIC "-//W3C//DTD SVG 1.1//EN" "http://www.w3.org/Graphics/SVG/1.1/DTD/svg11.dtd">
<svg version="1.1" id="Layer_1" xmlns="http://www.w3.org/2000/svg" xmlns:xlink="http://www.w3.org/1999/xlink" x="0px" y="0px"
	 width="64.002px" height="64.046px" viewBox="0 0 64.002 64.046" style="enable-background:new 0 0 64.002 64.046;"
	 xml:space="preserve">
<g id="Bar_22_">
	<g>
		<path style="fill:#FFCC66;" d="M60.303,0.002C60.299,0.002,60.296,0,60.292,0H27.706c-0.004,0-0.007,0.002-0.011,0.002
			c-2.044,0.006-3.699,1.613-3.699,3.596v6.395v50.341c0,2.05,1.661,3.713,3.71,3.713h32.586c2.049,0,3.71-1.663,3.71-3.713V9.992
			V3.598C64.002,1.615,62.347,0.008,60.303,0.002z"/>
	</g>
</g>
<g id="Container_21_">
	<g>
		<path style="fill:#FFFFFF;" d="M58.002,12.006h-28h-2v2.002V26.02v32.03c0,1.106,0.895,2.003,2,2.003h28c1.104,0,2-0.896,2-2.003
			V26.02V14.008v-2.002H58.002z"/>
	</g>
</g>
<g id="Arrow_4_">
	<g>
		<path style="fill-rule:evenodd;clip-rule:evenodd;fill:#FFCC66;" d="M18,30.044H6.91l2.499-2.501c0.81-0.81,0.81-2.123,0-2.932
			c-0.808-0.811-2.121-0.811-2.931,0l-5.859,5.864c-0.325,0.325-0.51,0.732-0.573,1.155C0.017,31.767,0,31.907,0,32.052
			c0,0.563,0.232,1.07,0.604,1.436c0.016,0.017,0.024,0.037,0.041,0.054l5.847,5.889c0.807,0.813,2.114,0.813,2.922,0
			c0.807-0.813,0.807-2.131,0-2.943L7.006,34.06H18c1.105,0,2.001-0.899,2.001-2.008C20.001,30.942,19.105,30.044,18,30.044z"/>
	</g>
</g>
<g id="Btns_18_">
	<g>
		<path style="fill-rule:evenodd;clip-rule:evenodd;fill:#FFFFFF;" d="M46.002,3.999c-0.069,0-0.136,0.014-0.203,0.021H30.002
			c-1.104,0-2,0.896-2,2s0.896,2,2,2h16c1.104,0,2-0.896,2-2c0-0.003-0.001-0.006-0.001-0.009s0.001-0.006,0.001-0.009
			C48.002,4.895,47.106,3.999,46.002,3.999z M52.002,3.999c-1.104,0-2,0.896-2,2.003c0,1.104,0.896,2.001,2,2.001s2-0.896,2-2.001
			C54.002,4.895,53.106,3.999,52.002,3.999z M58.002,3.999c-1.104,0-2,0.896-2,2.003c0,1.104,0.896,2.001,2,2.001s2-0.896,2-2.001
			C60.002,4.895,59.106,3.999,58.002,3.999z"/>
	</g>
</g>
<g>
</g>
<g>
</g>
<g>
</g>
<g>
</g>
<g>
</g>
<g>
</g>
<g>
</g>
<g>
</g>
<g>
</g>
<g>
</g>
<g>
</g>
<g>
</g>
<g>
</g>
<g>
</g>
<g>
</g>
</svg>
