<?xml version="1.0" encoding="iso-8859-1"?>
<!-- Generator: Adobe Illustrator 16.0.0, SVG Export Plug-In . SVG Version: 6.00 Build 0)  -->
<!DOCTYPE svg PUBLIC "-//W3C//DTD SVG 1.1//EN" "http://www.w3.org/Graphics/SVG/1.1/DTD/svg11.dtd">
<svg version="1.1" id="Layer_1" xmlns="http://www.w3.org/2000/svg" xmlns:xlink="http://www.w3.org/1999/xlink" x="0px" y="0px"
	 width="64.006px" height="63.983px" viewBox="0 0 64.006 63.983" style="enable-background:new 0 0 64.006 63.983;"
	 xml:space="preserve">
<g id="Bar_61_">
	<g>
		<path style="fill:#CCCCCC;" d="M60.307,0.001C60.303,0.001,60.3,0,60.296,0H3.71C3.706,0,3.703,0.001,3.699,0.001
			C1.655,0.008,0,1.612,0,3.594v6.389v50.291c0,2.048,1.661,3.71,3.71,3.71h56.586c2.049,0,3.71-1.662,3.71-3.71V9.982V3.594
			C64.006,1.612,62.351,0.008,60.307,0.001z"/>
	</g>
</g>
<g id="Container_60_">
	<g>
		<path style="fill:#FFFFFF;" d="M58.006,11.993h-52h-2v1.999v12.001v31.999c0,1.105,0.896,2.001,2,2.001h52
			c1.104,0,2-0.896,2-2.001V25.993V13.992v-1.999H58.006z"/>
	</g>
</g>
<g id="Btns_57_">
	<g>
		<path style="fill-rule:evenodd;clip-rule:evenodd;fill:#FFFFFF;" d="M46.006,3.994c-0.003,0-0.007,0.001-0.01,0.001H6.006
			c-1.104,0-2,0.896-2,2s0.896,2,2,2h40c1.104,0,2-0.896,2-2C48.006,4.89,47.11,3.994,46.006,3.994z M52.006,3.994
			c-1.104,0-2,0.896-2,2.001c0,1.104,0.896,1.999,2,1.999s2-0.896,2-1.999C54.006,4.89,53.11,3.994,52.006,3.994z M58.006,3.994
			c-1.104,0-2,0.896-2,2.001c0,1.104,0.896,1.999,2,1.999s2-0.896,2-1.999C60.006,4.89,59.11,3.994,58.006,3.994z"/>
	</g>
</g>
<g id="_x34_04">
	<g>
		<path style="fill-rule:evenodd;clip-rule:evenodd;fill:#ED7161;" d="M22.444,35.497H19.5v2.451h-1.944l4.653-7.977h-3.338
			l-4.888,8.297v2.391H19.5v3.354h2.944v-3.354h1.551v-2.711h-1.551V35.497z M32.017,29.965c-2.007,0-3.508,0.638-4.504,1.911
			c-0.997,1.273-1.495,2.975-1.495,5.1c0,2.127,0.498,3.828,1.495,5.102c0.996,1.273,2.497,1.91,4.504,1.91s3.508-0.637,4.504-1.91
			c0.997-1.273,1.495-2.975,1.495-5.102c0-2.125-0.498-3.826-1.495-5.1C35.524,30.603,34.023,29.965,32.017,29.965z M34.154,40.264
			c-0.456,0.827-1.169,1.241-2.138,1.241s-1.682-0.414-2.138-1.241c-0.457-0.828-0.686-1.92-0.686-3.277s0.229-2.449,0.686-3.278
			c0.456-0.827,1.169-1.24,2.138-1.24s1.682,0.413,2.138,1.24c0.457,0.829,0.686,1.921,0.686,3.278S34.611,39.436,34.154,40.264z
			 M48.441,37.948v-2.451h-2.944v2.451h-1.944l4.653-7.977h-3.338l-4.888,8.297v2.391h5.517v3.354h2.944v-3.354h1.551v-2.711H48.441
			z"/>
	</g>
</g>
<g>
</g>
<g>
</g>
<g>
</g>
<g>
</g>
<g>
</g>
<g>
</g>
<g>
</g>
<g>
</g>
<g>
</g>
<g>
</g>
<g>
</g>
<g>
</g>
<g>
</g>
<g>
</g>
<g>
</g>
</svg>
