<?xml version="1.0" encoding="iso-8859-1"?>
<!-- Generator: Adobe Illustrator 16.0.0, SVG Export Plug-In . SVG Version: 6.00 Build 0)  -->
<!DOCTYPE svg PUBLIC "-//W3C//DTD SVG 1.1//EN" "http://www.w3.org/Graphics/SVG/1.1/DTD/svg11.dtd">
<svg version="1.1" id="Layer_1" xmlns="http://www.w3.org/2000/svg" xmlns:xlink="http://www.w3.org/1999/xlink" x="0px" y="0px"
	 width="64.006px" height="64.046px" viewBox="0 0 64.006 64.046" style="enable-background:new 0 0 64.006 64.046;"
	 xml:space="preserve">
<g id="Bar_26_">
	<g>
		<path style="fill:#CCCCCC;" d="M60.307,0.002C60.303,0.002,60.3,0,60.296,0H3.71C3.706,0,3.703,0.002,3.699,0.002
			C1.655,0.008,0,1.615,0,3.598v6.395v50.341c0,2.05,1.661,3.713,3.71,3.713h56.586c2.049,0,3.71-1.663,3.71-3.713V9.992V3.598
			C64.006,1.615,62.351,0.008,60.307,0.002z"/>
	</g>
</g>
<g id="Container_25_">
	<g>
		<path style="fill:#FFFFFF;" d="M58.006,12.006h-52h-2v2.002V26.02v32.03c0,1.106,0.896,2.003,2,2.003h52c1.104,0,2-0.896,2-2.003
			V26.02V14.008v-2.002H58.006z"/>
	</g>
</g>
<g id="Ellipse">
	<g>
		<path style="fill-rule:evenodd;clip-rule:evenodd;fill:#CCCCCC;" d="M20.006,36.02c0-1.104-0.896-2-2-2s-2,0.896-2,2s0.896,2,2,2
			S20.006,37.124,20.006,36.02z M21.738,41.02c-0.552-0.957-1.775-1.285-2.732-0.732c-0.956,0.553-1.284,1.775-0.731,2.732
			c0.552,0.956,1.775,1.284,2.732,0.731C21.963,43.199,22.291,41.976,21.738,41.02z"/>
	</g>
</g>
<g id="Ellipse_7_">
	<g>
		<path style="fill-rule:evenodd;clip-rule:evenodd;fill:#999999;" d="M32.006,20.02c-1.104,0-2,0.895-2,2c0,1.104,0.896,2,2,2
			s2-0.896,2-2C34.006,20.914,33.11,20.02,32.006,20.02z M39.006,22.287c-0.957-0.552-2.18-0.224-2.732,0.732
			c-0.553,0.957-0.225,2.18,0.732,2.732c0.956,0.552,2.18,0.225,2.731-0.732C40.29,24.063,39.962,22.84,39.006,22.287z"/>
	</g>
</g>
<g id="Ellipse_5_">
	<g>
		<path style="fill-rule:evenodd;clip-rule:evenodd;fill:#B3B3B3;" d="M21.007,28.287c-0.957-0.553-2.181-0.225-2.732,0.732
			c-0.553,0.956-0.225,2.18,0.731,2.731c0.957,0.553,2.181,0.225,2.732-0.731C22.291,30.063,21.963,28.84,21.007,28.287z
			 M27.737,23.02c-0.552-0.956-1.775-1.284-2.731-0.732c-0.957,0.553-1.284,1.776-0.732,2.732c0.553,0.957,1.775,1.284,2.732,0.732
			C27.962,25.199,28.29,23.977,27.737,23.02z"/>
	</g>
</g>
<g id="Ellipse_3_">
	<g>
		<path style="fill-rule:evenodd;clip-rule:evenodd;fill:#E6E6E6;" d="M32.006,48.02c-1.104,0-2,0.896-2,2c0,1.104,0.896,2,2,2
			s2-0.896,2-2C34.006,48.915,33.11,48.02,32.006,48.02z M27.006,46.286c-0.957-0.552-2.18-0.224-2.732,0.732
			c-0.552,0.956-0.225,2.18,0.732,2.732c0.956,0.552,2.18,0.224,2.731-0.732C28.29,48.063,27.962,46.839,27.006,46.286z"/>
	</g>
</g>
<g id="Ellipse_4_">
	<g>
		<path style="fill-rule:evenodd;clip-rule:evenodd;fill:#808080;" d="M45.737,29.02c-0.553-0.957-1.775-1.285-2.732-0.732
			c-0.956,0.553-1.284,1.775-0.732,2.732c0.553,0.956,1.775,1.284,2.732,0.731C45.962,31.199,46.289,29.976,45.737,29.02z
			 M46.006,34.02c-1.104,0-2,0.896-2,2s0.896,2,2,2s2-0.896,2-2S47.11,34.02,46.006,34.02z"/>
	</g>
</g>
<g id="Btns_22_">
	<g>
		<path style="fill-rule:evenodd;clip-rule:evenodd;fill:#FFFFFF;" d="M46.006,3.999c-0.07,0-0.136,0.014-0.203,0.021H6.006
			c-1.104,0-2,0.896-2,2s0.896,2,2,2h40c1.104,0,2-0.896,2-2c0-0.003-0.001-0.006-0.001-0.009s0.001-0.006,0.001-0.009
			C48.006,4.895,47.11,3.999,46.006,3.999z M52.006,3.999c-1.104,0-2,0.896-2,2.003c0,1.104,0.896,2.001,2,2.001s2-0.896,2-2.001
			C54.006,4.895,53.11,3.999,52.006,3.999z M58.006,3.999c-1.104,0-2,0.896-2,2.003c0,1.104,0.896,2.001,2,2.001s2-0.896,2-2.001
			C60.006,4.895,59.11,3.999,58.006,3.999z"/>
	</g>
</g>
<g>
</g>
<g>
</g>
<g>
</g>
<g>
</g>
<g>
</g>
<g>
</g>
<g>
</g>
<g>
</g>
<g>
</g>
<g>
</g>
<g>
</g>
<g>
</g>
<g>
</g>
<g>
</g>
<g>
</g>
</svg>
