<?xml version="1.0" encoding="iso-8859-1"?>
<!-- Generator: Adobe Illustrator 16.0.0, SVG Export Plug-In . SVG Version: 6.00 Build 0)  -->
<!DOCTYPE svg PUBLIC "-//W3C//DTD SVG 1.1//EN" "http://www.w3.org/Graphics/SVG/1.1/DTD/svg11.dtd">
<svg version="1.1" id="Layer_1" xmlns="http://www.w3.org/2000/svg" xmlns:xlink="http://www.w3.org/1999/xlink" x="0px" y="0px"
	 width="64.006px" height="64.046px" viewBox="0 0 64.006 64.046" style="enable-background:new 0 0 64.006 64.046;"
	 xml:space="preserve">
<g id="Bar_28_">
	<g>
		<path style="fill:#CCCCCC;" d="M60.307,0.002C60.303,0.002,60.3,0,60.296,0H3.71C3.706,0,3.703,0.002,3.699,0.002
			C1.655,0.008,0,1.615,0,3.598v6.395v50.341c0,2.05,1.661,3.713,3.71,3.713h56.586c2.049,0,3.71-1.663,3.71-3.713V9.992V3.598
			C64.006,1.615,62.351,0.008,60.307,0.002z"/>
	</g>
</g>
<g id="Container_27_">
	<g>
		<path style="fill:#FFFFFF;" d="M58.006,12.006h-52h-2v2.002V26.02v32.03c0,1.106,0.896,2.003,2,2.003h52c1.104,0,2-0.896,2-2.003
			V26.02V14.008v-2.002H58.006z"/>
	</g>
</g>
<g id="Base">
	<g>
		<path style="fill-rule:evenodd;clip-rule:evenodd;fill:#CCCCCC;" d="M52.006,16.02h-40c-2.209,0-4,1.79-4,4v32
			c0,2.209,1.791,3.999,4,3.999h40c2.209,0,4-1.79,4-3.999v-32C56.006,17.81,54.215,16.02,52.006,16.02z M52.006,50.02
			c0,1.104-0.896,2-2,2h-36c-1.104,0-2-0.896-2-2v-28c0-1.105,0.896-2,2-2h36c1.104,0,2,0.895,2,2V50.02z"/>
	</g>
</g>
<g id="Magnifier">
	<g>
		<path style="fill-rule:evenodd;clip-rule:evenodd;fill:#48A0DC;" d="M43.339,44.15l-4.859-4.858
			c0.957-1.533,1.519-3.338,1.519-5.278c0-5.521-4.476-9.996-9.996-9.996s-9.996,4.476-9.996,9.996c0,5.521,4.476,9.997,9.996,9.997
			c1.94,0,3.745-0.562,5.278-1.519l4.858,4.857c0.884,0.884,2.316,0.884,3.2,0S44.223,45.034,43.339,44.15z M30.002,40.018
			c-3.315,0-6.003-2.688-6.003-6.003s2.688-6.003,6.003-6.003s6.004,2.688,6.004,6.003S33.317,40.018,30.002,40.018z"/>
	</g>
</g>
<g id="Btns_24_">
	<g>
		<path style="fill-rule:evenodd;clip-rule:evenodd;fill:#FFFFFF;" d="M46.006,3.999c-0.069,0-0.136,0.014-0.203,0.021H6.006
			c-1.104,0-2,0.896-2,2s0.896,2,2,2h40c1.104,0,2-0.896,2-2c0-0.003-0.001-0.006-0.001-0.009s0.001-0.006,0.001-0.009
			C48.006,4.895,47.11,3.999,46.006,3.999z M52.006,3.999c-1.104,0-2,0.896-2,2.003c0,1.104,0.896,2.001,2,2.001s2-0.896,2-2.001
			C54.006,4.895,53.11,3.999,52.006,3.999z M58.006,3.999c-1.104,0-2,0.896-2,2.003c0,1.104,0.896,2.001,2,2.001s2-0.896,2-2.001
			C60.006,4.895,59.11,3.999,58.006,3.999z"/>
	</g>
</g>
<g>
</g>
<g>
</g>
<g>
</g>
<g>
</g>
<g>
</g>
<g>
</g>
<g>
</g>
<g>
</g>
<g>
</g>
<g>
</g>
<g>
</g>
<g>
</g>
<g>
</g>
<g>
</g>
<g>
</g>
</svg>
