<?xml version="1.0" encoding="iso-8859-1"?>
<!-- Generator: Adobe Illustrator 16.0.0, SVG Export Plug-In . SVG Version: 6.00 Build 0)  -->
<!DOCTYPE svg PUBLIC "-//W3C//DTD SVG 1.1//EN" "http://www.w3.org/Graphics/SVG/1.1/DTD/svg11.dtd">
<svg version="1.1" id="Layer_1" xmlns="http://www.w3.org/2000/svg" xmlns:xlink="http://www.w3.org/1999/xlink" x="0px" y="0px"
	 width="64.006px" height="64.046px" viewBox="0 0 64.006 64.046" style="enable-background:new 0 0 64.006 64.046;"
	 xml:space="preserve">
<g id="Bar_21_">
	<g>
		<path style="fill:#CCCCCC;" d="M60.307,0.002C60.303,0.002,60.3,0,60.296,0H3.71C3.706,0,3.703,0.002,3.699,0.002
			C1.655,0.008,0,1.615,0,3.598v6.395v50.341c0,2.05,1.661,3.713,3.71,3.713h56.586c2.049,0,3.71-1.663,3.71-3.713V9.992V3.598
			C64.006,1.615,62.351,0.008,60.307,0.002z"/>
	</g>
</g>
<g id="Container_20_">
	<g>
		<path style="fill:#FFFFFF;" d="M58.006,12.006h-52h-2v2.002V26.02v32.03c0,1.106,0.896,2.003,2,2.003h52c1.104,0,2-0.896,2-2.003
			V26.02V14.008v-2.002H58.006z"/>
	</g>
</g>
<g id="Sep">
	<g>
		<rect x="4.006" y="8.02" style="fill:#CCCCCC;" width="56" height="4"/>
	</g>
</g>
<g id="Tab_Body_5_">
	<g>
		<path style="fill:#CCCCCC;" d="M20.006,0.02h-12c-2.209,0-4,1.791-4,4v4c0,2.209,1.791,4,4,4h12c2.209,0,4-1.791,4-4v-4
			C24.006,1.811,22.215,0.02,20.006,0.02z"/>
	</g>
</g>
<g id="Tab_Body_6_">
	<g>
		<path style="fill-rule:evenodd;clip-rule:evenodd;fill:#FFFFFF;" d="M18.006,4.02h-12c-1.104,0-2,0.896-2,2v4v2h2h12h2v-2v-4
			C20.006,4.915,19.11,4.02,18.006,4.02z"/>
	</g>
</g>
<g id="Tab_Body_7_">
	<g>
		<path style="fill:#CCCCCC;" d="M38.006,0.02h-12c-2.209,0-4,1.791-4,4v4c0,2.209,1.791,4,4,4h12c2.209,0,4-1.791,4-4v-4
			C42.006,1.811,40.215,0.02,38.006,0.02z"/>
	</g>
</g>
<g id="Tab_Body_8_">
	<g>
		<path style="fill-rule:evenodd;clip-rule:evenodd;fill:#FFFFFF;" d="M38.006,4.02h-12c-1.104,0-2,0.896-2,2v2h2h12h2v-2
			C40.006,4.915,39.11,4.02,38.006,4.02z"/>
	</g>
</g>
<g id="Tab_Body_9_">
	<g>
		<path style="fill-rule:evenodd;clip-rule:evenodd;fill:#FFFFFF;" d="M58.006,4.02h-12c-1.104,0-2,0.896-2,2v2h2h12h2v-2
			C60.006,4.915,59.11,4.02,58.006,4.02z"/>
	</g>
</g>
<g>
</g>
<g>
</g>
<g>
</g>
<g>
</g>
<g>
</g>
<g>
</g>
<g>
</g>
<g>
</g>
<g>
</g>
<g>
</g>
<g>
</g>
<g>
</g>
<g>
</g>
<g>
</g>
<g>
</g>
</svg>
