<?xml version="1.0" encoding="iso-8859-1"?>
<!-- Generator: Adobe Illustrator 16.0.0, SVG Export Plug-In . SVG Version: 6.00 Build 0)  -->
<!DOCTYPE svg PUBLIC "-//W3C//DTD SVG 1.1//EN" "http://www.w3.org/Graphics/SVG/1.1/DTD/svg11.dtd">
<svg version="1.1" id="Layer_1" xmlns="http://www.w3.org/2000/svg" xmlns:xlink="http://www.w3.org/1999/xlink" x="0px" y="0px"
	 width="64.006px" height="63.982px" viewBox="0 0 64.006 63.982" style="enable-background:new 0 0 64.006 63.982;"
	 xml:space="preserve">
<g id="Bar_79_">
	<g>
		<path style="fill:#CCCCCC;" d="M60.307,0.001C60.303,0.001,60.3,0,60.296,0H3.71C3.706,0,3.703,0.001,3.699,0.001
			C1.655,0.008,0,1.611,0,3.593v6.389v50.291c0,2.05,1.661,3.71,3.71,3.71h56.586c2.049,0,3.71-1.66,3.71-3.71V9.981V3.593
			C64.006,1.611,62.351,0.008,60.307,0.001z"/>
	</g>
</g>
<g id="Container_79_">
	<g>
		<path style="fill:#FFFFFF;" d="M58.006,11.992h-52h-2v2.001v13.999v30.001c0,1.104,0.896,1.999,2,1.999h52
			c1.104,0,2-0.895,2-1.999V27.992V13.993v-2.001H58.006z"/>
	</g>
</g>
<g id="Firefox">
	<g>
		<path style="fill:#ED7161;" d="M45.868,36.719c0.214-1.462,0.177-2.762-0.117-3.896c-0.105,0.842-0.22,1.351-0.335,1.552
			c-0.001-0.033-0.017-0.94-0.3-2.204c-0.129-0.875-0.309-1.705-0.565-2.467c0.067,0.37,0.104,0.679,0.122,0.954
			c-1.08-3.016-3.745-6.752-10.382-6.664c0,0,2.324,0.253,3.418,1.959c0,0-0.477-0.099-1.034-0.066c-0.002,0-0.004,0-0.006,0.001
			c-0.305,0.018-0.626,0.064-0.924,0.213c0.951,0.391,1.774,0.799,2.496,1.224c0.127,0.075,0.25,0.145,0.378,0.229
			c0.095,0.06,0.177,0.121,0.268,0.183c1.459,1.02,2.857,2.5,2.755,4.435c-0.304-0.492-0.706-0.815-1.222-0.977
			c0.636,2.57,0.699,4.69,0.184,6.364c-0.353-1.116-0.678-1.784-0.968-2.019c0.403,3.442-0.142,5.988-1.631,7.647
			c0.282-1.014,0.396-1.843,0.331-2.496c-1.75,2.724-3.741,4.132-5.973,4.221c-0.883-0.008-1.716-0.147-2.5-0.412
			c-1.15-0.4-2.193-1.086-3.12-2.06c1.448,0.125,2.77-0.133,3.933-0.744l1.906-1.284l-0.007-0.007
			c0.247-0.095,0.479-0.088,0.706,0.021c0.466-0.065,0.628-0.322,0.473-0.756c-0.226-0.322-0.564-0.615-1.002-0.873
			c-0.954-0.514-1.949-0.434-2.987,0.25c-0.988,0.58-1.941,0.557-2.867-0.061c-0.607-0.432-1.193-1.012-1.758-1.738l-0.227-0.345
			c0,0,0,0,0-0.001v-0.006c0.028-0.721,0.316-1.115,0.867-1.203c-0.128-0.012-0.221-0.021-0.323-0.029
			c0.103,0.009,0.197,0.017,0.325,0.029c0.621,0.058,1.335,0.205,2.14,0.446c0.134-0.8-0.043-1.637-0.529-2.495
			c0-0.008,0-0.015,0-0.015c0.755-0.728,1.426-1.255,1.998-1.592c0.254-0.141,0.402-0.353,0.451-0.64
			c0.008-0.008,0.015-0.015,0.021-0.015l0.007-0.007c0.007-0.008,0.021-0.022,0.028-0.029c0.148-0.229,0.099-0.411-0.155-0.573
			c-0.529,0.029-1.059-0.007-1.589-0.117l-0.007,0.022c-0.219-0.066-0.494-0.265-0.833-0.602l-0.869-0.882l-0.261-0.212
			c0,0.007,0,0.014,0,0.027h-0.007l0.007-0.035l-0.05-0.053c0.028-0.014,0.05-0.036,0.07-0.05c0.12-0.668,0.318-1.241,0.601-1.733
			l0.063-0.059c0.283-0.483,0.826-1.005,1.625-1.562c-1.483,0.189-2.825,0.88-4.019,2.068c-0.988-0.374-2.16-0.293-3.509,0.243
			l-0.163,0.125c-0.003,0.002-0.006,0.002-0.009,0.004l0.172-0.129l0.006-0.009c-0.847-0.402-1.418-1.555-1.693-3.441
			c-1.081,1.102-1.604,3.068-1.568,5.908c-0.079,0.115-0.188,0.287-0.307,0.479c-0.025,0.021-0.058,0.036-0.083,0.059
			c-0.008,0-0.015,0.008-0.015,0.016c-0.008,0-0.008,0.009-0.008,0.009c-0.008,0.006-0.016,0.015-0.016,0.03
			c-0.165,0.265-0.39,0.663-0.676,1.202c-0.406,0.754-0.533,1.38-0.574,1.934c-0.006,0.009-0.012,0.014-0.018,0.023
			c0,0.02,0.006,0.035,0.006,0.055c-0.002,0.033-0.015,0.076-0.016,0.11c0.008-0.015,0.016-0.023,0.023-0.037
			c0.003,0.128,0.005,0.257,0.036,0.372l0.876-0.742c-0.318,0.828-0.529,1.709-0.636,2.643c-0.016,0.15,0.005,0.299-0.005,0.451
			c-0.1-0.118-0.198-0.234-0.295-0.347c0,3.321,1.028,6.393,2.762,8.911c0.012,0.018,0.019,0.036,0.031,0.056
			c0.025,0.034,0.054,0.063,0.08,0.098c1.236,1.752,2.817,3.224,4.646,4.311c1.314,0.803,2.727,1.365,4.233,1.699
			c0.106,0.023,0.211,0.052,0.318,0.074c0.309,0.061,0.624,0.106,0.94,0.147c0.243,0.033,0.485,0.064,0.731,0.086
			c0.105,0.008,0.206,0.029,0.312,0.036c0.151,0.01,0.296-0.002,0.445,0.003c0.167,0.005,0.331,0.025,0.5,0.025
			c0.133,0,0.262-0.017,0.394-0.021c0.217-0.005,0.432-0.017,0.645-0.032c0.382-0.027,0.759-0.07,1.132-0.126
			c0.079-0.013,0.158-0.023,0.235-0.038c7.138-1.188,12.595-7.545,12.595-15.229C45.959,36.606,45.915,36.658,45.868,36.719z
			 M25.287,40.082c-0.267-0.962-0.399-1.79-0.407-2.488C24.888,38.292,25.021,39.119,25.287,40.082
			c0.019,0.043,0.044,0.081,0.063,0.125C25.331,40.163,25.305,40.126,25.287,40.082z"/>
	</g>
</g>
<g id="Btns_76_">
	<g>
		<path style="fill-rule:evenodd;clip-rule:evenodd;fill:#FFFFFF;" d="M46.006,3.992c-0.007,0-0.013,0.002-0.02,0.002H6.006
			c-1.104,0-2,0.895-2,2c0,1.104,0.896,2,2,2h40c1.104,0,2-0.896,2-2v0v0C48.006,4.888,47.11,3.992,46.006,3.992z M52.006,3.992
			c-1.104,0-2,0.896-2,2.001c0,1.104,0.896,1.999,2,1.999s2-0.895,2-1.999C54.006,4.888,53.11,3.992,52.006,3.992z M58.006,3.992
			c-1.104,0-2,0.896-2,2.001c0,1.104,0.896,1.999,2,1.999s2-0.895,2-1.999C60.006,4.888,59.11,3.992,58.006,3.992z"/>
	</g>
</g>
<g>
</g>
<g>
</g>
<g>
</g>
<g>
</g>
<g>
</g>
<g>
</g>
<g>
</g>
<g>
</g>
<g>
</g>
<g>
</g>
<g>
</g>
<g>
</g>
<g>
</g>
<g>
</g>
<g>
</g>
</svg>
