<?xml version="1.0" encoding="iso-8859-1"?>
<!-- Generator: Adobe Illustrator 16.0.0, SVG Export Plug-In . SVG Version: 6.00 Build 0)  -->
<!DOCTYPE svg PUBLIC "-//W3C//DTD SVG 1.1//EN" "http://www.w3.org/Graphics/SVG/1.1/DTD/svg11.dtd">
<svg version="1.1" id="Layer_1" xmlns="http://www.w3.org/2000/svg" xmlns:xlink="http://www.w3.org/1999/xlink" x="0px" y="0px"
	 width="64.006px" height="63.983px" viewBox="0 0 64.006 63.983" style="enable-background:new 0 0 64.006 63.983;"
	 xml:space="preserve">
<g id="Bar_84_">
	<g>
		<path style="fill:#CCCCCC;" d="M60.307,0.003C60.303,0.003,60.3,0,60.296,0H3.711C3.707,0,3.703,0.003,3.699,0.003
			C1.655,0.009,0,1.612,0,3.594v6.39v50.291c0,2.049,1.661,3.709,3.711,3.709h56.585c2.049,0,3.71-1.66,3.71-3.709V9.983v-6.39
			C64.006,1.612,62.351,0.009,60.307,0.003z"/>
	</g>
</g>
<g id="Container_84_">
	<g>
		<path style="fill:#FFFFFF;" d="M58.006,11.994h-52h-2v2v11.999v32c0,1.104,0.896,2,2,2h52c1.104,0,2-0.896,2-2v-32V13.994v-2
			H58.006z"/>
	</g>
</g>
<g id="Upload">
	<g>
		<path style="fill-rule:evenodd;clip-rule:evenodd;fill:#88C057;" d="M39.417,34.473l-5.841-5.861
			c-0.324-0.325-0.73-0.509-1.151-0.572c-0.136-0.029-0.275-0.046-0.419-0.046c-0.561,0-1.065,0.232-1.429,0.604
			c-0.018,0.016-0.038,0.025-0.056,0.042l-5.866,5.847c-0.81,0.807-0.81,2.115,0,2.923c0.811,0.808,2.123,0.808,2.934,0L30.006,35
			v10.995c0,1.104,0.896,1.999,2,1.999s2-0.895,2-1.999v-11.09l2.49,2.499c0.807,0.809,2.114,0.809,2.921,0
			C40.224,36.594,40.224,35.281,39.417,34.473z"/>
	</g>
</g>
<g id="Btns_81_">
	<g>
		<path style="fill-rule:evenodd;clip-rule:evenodd;fill:#FFFFFF;" d="M46.006,3.994c-0.003,0-0.007,0.001-0.01,0.001H6.006
			c-1.104,0-2,0.896-2,2s0.896,2,2,2h40c0.138,0,0.272-0.014,0.403-0.041c0.911-0.187,1.597-0.993,1.597-1.959
			C48.006,4.89,47.11,3.994,46.006,3.994z M52.006,3.994c-1.104,0-2,0.896-2,2.001c0,1.104,0.896,2,2,2s2-0.896,2-2
			C54.006,4.89,53.11,3.994,52.006,3.994z M58.006,3.994c-1.104,0-2,0.896-2,2.001c0,1.104,0.896,2,2,2s2-0.896,2-2
			C60.006,4.89,59.11,3.994,58.006,3.994z"/>
	</g>
</g>
<g>
</g>
<g>
</g>
<g>
</g>
<g>
</g>
<g>
</g>
<g>
</g>
<g>
</g>
<g>
</g>
<g>
</g>
<g>
</g>
<g>
</g>
<g>
</g>
<g>
</g>
<g>
</g>
<g>
</g>
</svg>
