<?xml version="1.0" encoding="iso-8859-1"?>
<!-- Generator: Adobe Illustrator 16.0.0, SVG Export Plug-In . SVG Version: 6.00 Build 0)  -->
<!DOCTYPE svg PUBLIC "-//W3C//DTD SVG 1.1//EN" "http://www.w3.org/Graphics/SVG/1.1/DTD/svg11.dtd">
<svg version="1.1" id="Layer_1" xmlns="http://www.w3.org/2000/svg" xmlns:xlink="http://www.w3.org/1999/xlink" x="0px" y="0px"
	 width="64.006px" height="64.046px" viewBox="0 0 64.006 64.046" style="enable-background:new 0 0 64.006 64.046;"
	 xml:space="preserve">
<g id="Bar_5_">
	<g>
		<path style="fill:#CCCCCC;" d="M60.307,0.002C60.303,0.002,60.3,0,60.296,0H3.71C3.706,0,3.703,0.002,3.699,0.002
			C1.655,0.008,0,1.615,0,3.598v6.395v50.341c0,2.05,1.661,3.713,3.71,3.713h56.586c2.049,0,3.71-1.663,3.71-3.713V9.992V3.598
			C64.006,1.615,62.351,0.008,60.307,0.002z"/>
	</g>
</g>
<g id="Container_5_">
	<g>
		<path style="fill:#FFFFFF;" d="M58.006,12.006h-52h-2v2.002V26.02v32.03c0,1.106,0.896,2.003,2,2.003h52c1.104,0,2-0.896,2-2.003
			V26.02V14.008v-2.002H58.006z"/>
	</g>
</g>
<g id="Container_6_">
	<g>
		<path style="fill:#E6E6E6;" d="M54.006,36.006h-44h-2v2.002v8.012v8.03c0,1.106,0.896,2.003,2,2.003h44c1.104,0,2-0.896,2-2.003
			v-8.03v-8.012v-2.002H54.006z"/>
	</g>
</g>
<g id="_x31_2">
	<g>
		<path style="fill-rule:evenodd;clip-rule:evenodd;fill:#666666;" d="M18.006,28.019h2v20h4v-24h-6V28.019z M46.006,32.019
			c0-4.418-3.582-8-8-8c-4.419,0-8,3.582-8,8h4c0-2.21,1.791-4,4-4s4,1.79,4,4c0,3.834-12,2.813-12,12v4h16v-4h-12
			C34.006,37.893,46.006,39.562,46.006,32.019z"/>
	</g>
</g>
<g id="Btns_5_">
	<g>
		<path style="fill-rule:evenodd;clip-rule:evenodd;fill:#FFFFFF;" d="M46.006,3.998c-0.073,0-0.142,0.014-0.213,0.021H6.006
			c-1.104,0-2,0.896-2,2c0,1.104,0.896,2,2,2h40c1.104,0,2-0.896,2-2c0-0.003-0.001-0.006-0.001-0.009s0.001-0.006,0.001-0.009
			C48.006,4.895,47.11,3.998,46.006,3.998z M52.006,3.998c-1.104,0-2,0.896-2,2.004c0,1.104,0.896,2.001,2,2.001s2-0.896,2-2.001
			C54.006,4.895,53.11,3.998,52.006,3.998z M58.006,3.998c-1.104,0-2,0.896-2,2.004c0,1.104,0.896,2.001,2,2.001s2-0.896,2-2.001
			C60.006,4.895,59.11,3.998,58.006,3.998z"/>
	</g>
</g>
<g>
</g>
<g>
</g>
<g>
</g>
<g>
</g>
<g>
</g>
<g>
</g>
<g>
</g>
<g>
</g>
<g>
</g>
<g>
</g>
<g>
</g>
<g>
</g>
<g>
</g>
<g>
</g>
<g>
</g>
</svg>
