<?xml version="1.0" encoding="iso-8859-1"?>
<!-- Generator: Adobe Illustrator 16.0.0, SVG Export Plug-In . SVG Version: 6.00 Build 0)  -->
<!DOCTYPE svg PUBLIC "-//W3C//DTD SVG 1.1//EN" "http://www.w3.org/Graphics/SVG/1.1/DTD/svg11.dtd">
<svg version="1.1" id="Layer_1" xmlns="http://www.w3.org/2000/svg" xmlns:xlink="http://www.w3.org/1999/xlink" x="0px" y="0px"
	 width="68.042px" height="64.046px" viewBox="0 0 68.042 64.046" style="enable-background:new 0 0 68.042 64.046;"
	 xml:space="preserve">
<g id="Bar_6_">
	<g>
		<path style="fill:#CCCCCC;" d="M62.322,0.002C62.318,0.002,62.315,0,62.312,0H5.726C5.722,0,5.719,0.002,5.715,0.002
			C3.671,0.008,2.016,1.615,2.016,3.598v6.395v50.341c0,2.05,1.661,3.713,3.71,3.713h56.586c2.049,0,3.71-1.663,3.71-3.713V9.992
			V3.598C66.021,1.615,64.366,0.008,62.322,0.002z"/>
	</g>
</g>
<g id="Container_7_">
	<g>
		<path style="fill:#FFFFFF;" d="M60.021,12.006h-52h-2v2.002V26.02v32.03c0,1.106,0.896,2.003,2,2.003h52c1.104,0,2-0.896,2-2.003
			V26.02V14.008v-2.002H60.021z"/>
	</g>
</g>
<g id="Leg">
	<g>
		<path style="fill:#CCCCCC;" d="M22.021,32.02c-1.104,0-2,0.895-2,2v16c0,1.104,0.896,2,2,2s2-0.896,2-2v-16
			C24.021,32.914,23.126,32.02,22.021,32.02z"/>
	</g>
</g>
<g id="Leg_1_">
	<g>
		<path style="fill:#CCCCCC;" d="M46.021,32.02c-1.104,0-2,0.895-2,2v16c0,1.104,0.896,2,2,2s2-0.896,2-2v-16
			C48.021,32.914,47.126,32.02,46.021,32.02z"/>
	</g>
</g>
<g id="Stand">
	<g>
		<rect x="20.021" y="42.02" style="fill:#CCCCCC;" width="28" height="4"/>
	</g>
</g>
<g id="Bar_7_">
	<g>
		<path style="fill:#4D4D4D;" d="M50.021,24.02h-32c-1.104,0-2,0.895-2,2v6c0,1.104,0.896,2,2,2h32c1.104,0,2-0.896,2-2v-6
			C52.021,24.914,51.126,24.02,50.021,24.02z"/>
	</g>
</g>
<g id="Stripes">
	<g>
		<path style="fill-rule:evenodd;clip-rule:evenodd;fill:#FFCC66;" d="M16.021,29.676v2.344c0,1.104,0.896,2,2,2h4.342l10-10H21.678
			L16.021,29.676z M50.021,24.02h-6.344l-10,10h10.687l7.657-7.657V26.02C52.021,24.914,51.126,24.02,50.021,24.02z"/>
	</g>
</g>
<g id="Btns_6_">
	<g>
		<path style="fill-rule:evenodd;clip-rule:evenodd;fill:#FFFFFF;" d="M48.021,3.998c-0.073,0-0.142,0.014-0.213,0.021H8.021
			c-1.104,0-2,0.896-2,2c0,1.104,0.896,2,2,2h40c1.104,0,2-0.896,2-2c0-0.003-0.001-0.006-0.001-0.009s0.001-0.006,0.001-0.009
			C50.021,4.895,49.126,3.998,48.021,3.998z M54.021,3.998c-1.104,0-2,0.896-2,2.004c0,1.104,0.896,2.001,2,2.001s2-0.896,2-2.001
			C56.021,4.895,55.126,3.998,54.021,3.998z M60.021,3.998c-1.104,0-2,0.896-2,2.004c0,1.104,0.896,2.001,2,2.001s2-0.896,2-2.001
			C62.021,4.895,61.126,3.998,60.021,3.998z"/>
	</g>
</g>
<g>
</g>
<g>
</g>
<g>
</g>
<g>
</g>
<g>
</g>
<g>
</g>
<g>
</g>
<g>
</g>
<g>
</g>
<g>
</g>
<g>
</g>
<g>
</g>
<g>
</g>
<g>
</g>
<g>
</g>
</svg>
