<?xml version="1.0" encoding="iso-8859-1"?>
<!-- Generator: Adobe Illustrator 16.0.0, SVG Export Plug-In . SVG Version: 6.00 Build 0)  -->
<!DOCTYPE svg PUBLIC "-//W3C//DTD SVG 1.1//EN" "http://www.w3.org/Graphics/SVG/1.1/DTD/svg11.dtd">
<svg version="1.1" id="Layer_1" xmlns="http://www.w3.org/2000/svg" xmlns:xlink="http://www.w3.org/1999/xlink" x="0px" y="0px"
	 width="64.006px" height="63.984px" viewBox="0 0 64.006 63.984" style="enable-background:new 0 0 64.006 63.984;"
	 xml:space="preserve">
<g id="Bar_75_">
	<g>
		<path style="fill:#CCCCCC;" d="M60.307,0.003C60.303,0.003,60.3,0,60.296,0H3.71C3.707,0,3.704,0.003,3.7,0.003
			C1.656,0.009,0,1.613,0,3.594v6.39v50.291c0,2.048,1.661,3.71,3.71,3.71h56.585c2.049,0,3.71-1.662,3.71-3.71V9.983v-6.39
			C64.006,1.613,62.351,0.009,60.307,0.003z"/>
	</g>
</g>
<g id="Container_74_">
	<g>
		<path style="fill:#FFFFFF;" d="M58.006,11.993h-52h-2v2v12.001v31.999c0,1.105,0.896,2.001,2,2.001h52c1.104,0,2-0.896,2-2.001
			V25.994V13.993v-2H58.006z"/>
	</g>
</g>
<g id="Grid_2_">
	<g>
		<path style="fill-rule:evenodd;clip-rule:evenodd;fill:#48A0DC;" d="M24.006,19.994h-12c-1.104,0-2,0.896-2,1.999v30.001
			c0,1.104,0.896,1.999,2,1.999h12c1.104,0,2-0.896,2-1.999V21.993C26.006,20.89,25.11,19.994,24.006,19.994z M36.006,27.993h14
			c1.104,0,2-0.895,2-2c0-1.104-0.896-2-2-2h-14c-1.105,0-2,0.896-2,2C34.006,27.099,34.901,27.993,36.006,27.993z M50.006,31.993
			h-14c-1.105,0-2,0.896-2,2.001c0,1.104,0.895,1.999,2,1.999h14c1.104,0,2-0.896,2-1.999C52.006,32.889,51.11,31.993,50.006,31.993
			z M50.006,39.993h-14c-1.105,0-2,0.896-2,2s0.895,2,2,2h14c1.104,0,2-0.896,2-2S51.11,39.993,50.006,39.993z"/>
	</g>
</g>
<g id="Btns_71_">
	<g>
		<path style="fill-rule:evenodd;clip-rule:evenodd;fill:#FFFFFF;" d="M46.005,3.993c-0.007,0-0.013,0.002-0.02,0.002H6.006
			c-1.104,0-2,0.896-2,2s0.896,2,2,2h40c1.104,0,2-0.896,2-2C48.006,4.889,47.11,3.993,46.005,3.993z M52.006,3.993
			c-1.105,0-2,0.896-2,2.002c0,1.104,0.895,1.999,2,1.999c1.104,0,2-0.896,2-1.999C54.006,4.889,53.11,3.993,52.006,3.993z
			 M58.006,3.993c-1.104,0-2,0.896-2,2.002c0,1.104,0.896,1.999,2,1.999s2-0.896,2-1.999C60.006,4.889,59.11,3.993,58.006,3.993z"/>
	</g>
</g>
<g>
</g>
<g>
</g>
<g>
</g>
<g>
</g>
<g>
</g>
<g>
</g>
<g>
</g>
<g>
</g>
<g>
</g>
<g>
</g>
<g>
</g>
<g>
</g>
<g>
</g>
<g>
</g>
<g>
</g>
</svg>
