<?xml version="1.0" encoding="iso-8859-1"?>
<!-- Generator: Adobe Illustrator 16.0.0, SVG Export Plug-In . SVG Version: 6.00 Build 0)  -->
<!DOCTYPE svg PUBLIC "-//W3C//DTD SVG 1.1//EN" "http://www.w3.org/Graphics/SVG/1.1/DTD/svg11.dtd">
<svg version="1.1" id="Layer_1" xmlns="http://www.w3.org/2000/svg" xmlns:xlink="http://www.w3.org/1999/xlink" x="0px" y="0px"
	 width="68.006px" height="67.995px" viewBox="0 0 68.006 67.995" style="enable-background:new 0 0 68.006 67.995;"
	 xml:space="preserve">
<g id="Bar_91_">
	<g>
		<path style="fill-rule:evenodd;clip-rule:evenodd;fill:#CCCCCC;" d="M36.006,51.995c0-8.836,7.163-16,16-16
			c4.785,0,9.068,2.112,12,5.442V9.983V3.595c0-1.981-1.655-3.587-3.699-3.592C60.303,0.003,60.3,0,60.296,0H3.71
			C3.706,0,3.703,0.003,3.699,0.003C1.655,0.008,0,1.613,0,3.595v6.389v50.291c0,2.048,1.661,3.709,3.71,3.709h37.725
			C38.112,61.052,36.006,56.774,36.006,51.995z"/>
	</g>
</g>
<g id="Container_93_">
	<g>
		<path style="fill:#FFFFFF;" d="M58.006,11.994h-52h-2v1.999v12.001v31.999c0,1.104,0.896,2.001,2,2.001h52
			c1.104,0,2-0.896,2-2.001V25.994V13.993v-1.999H58.006z"/>
	</g>
</g>
<g id="Btns_90_">
	<g>
		<path style="fill-rule:evenodd;clip-rule:evenodd;fill:#FFFFFF;" d="M46.006,3.993c-0.01,0-0.019,0.003-0.029,0.003H6.006
			c-1.104,0-2,0.895-2,2c0,1.104,0.896,2,2,2h40c1.104,0,2-0.896,2-2c0,0,0,0,0,0s0,0,0,0C48.006,4.889,47.11,3.993,46.006,3.993z
			 M52.006,3.993c-1.104,0-2,0.896-2,2.002c0,1.104,0.896,1.999,2,1.999s2-0.896,2-1.999C54.006,4.889,53.11,3.993,52.006,3.993z
			 M58.006,3.993c-1.104,0-2,0.896-2,2.002c0,1.104,0.896,1.999,2,1.999s2-0.896,2-1.999C60.006,4.889,59.11,3.993,58.006,3.993z"/>
	</g>
</g>
<g id="Elipse_6_">
	<g>
		<circle style="fill:#ED7161;" cx="52.006" cy="51.995" r="12"/>
	</g>
</g>
<g id="Minus_4_">
	<g>
		<path style="fill:#FFFFFF;" d="M56.006,49.995h-8c-1.105,0-2,0.894-2,1.999c0,1.104,0.895,1.999,2,1.999h8
			c1.104,0,1.999-0.896,1.999-1.999C58.005,50.889,57.11,49.995,56.006,49.995z"/>
	</g>
</g>
<g>
</g>
<g>
</g>
<g>
</g>
<g>
</g>
<g>
</g>
<g>
</g>
<g>
</g>
<g>
</g>
<g>
</g>
<g>
</g>
<g>
</g>
<g>
</g>
<g>
</g>
<g>
</g>
<g>
</g>
</svg>
