<?xml version="1.0" encoding="iso-8859-1"?>
<!-- Generator: Adobe Illustrator 16.0.0, SVG Export Plug-In . SVG Version: 6.00 Build 0)  -->
<!DOCTYPE svg PUBLIC "-//W3C//DTD SVG 1.1//EN" "http://www.w3.org/Graphics/SVG/1.1/DTD/svg11.dtd">
<svg version="1.1" id="Layer_1" xmlns="http://www.w3.org/2000/svg" xmlns:xlink="http://www.w3.org/1999/xlink" x="0px" y="0px"
	 width="64.007px" height="63.983px" viewBox="0 0 64.007 63.983" style="enable-background:new 0 0 64.007 63.983;"
	 xml:space="preserve">
<g id="Bar_46_">
	<g>
		<path style="fill:#CCCCCC;" d="M60.307,0.003C60.303,0.003,60.3,0,60.296,0H3.71C3.706,0,3.703,0.003,3.699,0.003
			C1.655,0.008,0,1.613,0,3.594v6.39v50.291c0,2.048,1.661,3.709,3.71,3.709h56.586c2.05,0,3.711-1.661,3.711-3.709V9.983v-6.39
			C64.007,1.613,62.351,0.008,60.307,0.003z"/>
	</g>
</g>
<g id="Container_45_">
	<g>
		<path style="fill:#FFFFFF;" d="M58.006,11.993h-52h-2v2v12.001v31.999c0,1.104,0.896,2,2,2h52c1.104,0,2-0.896,2-2V25.994V13.993
			v-2H58.006z"/>
	</g>
</g>
<g id="Mouth_4_">
	<g>
		<path style="fill:#4D4D4D;" d="M40.006,35.993c-1.104,0-2,0.896-2,2c0,3.313-2.687,6-6,6s-6-2.687-6-6c0-1.104-0.896-2-2-2
			s-2,0.896-2,2c0,5.523,4.477,9.999,10,9.999c5.522,0,10-4.476,10-9.999C42.006,36.89,41.11,35.993,40.006,35.993z"/>
	</g>
</g>
<g id="Eye_8_">
	<g>
		<ellipse style="fill:#4D4D4D;" cx="19.006" cy="29.994" rx="3" ry="4"/>
	</g>
</g>
<g id="Eye_9_">
	<g>
		<ellipse style="fill:#4D4D4D;" cx="45.006" cy="29.994" rx="3" ry="4"/>
	</g>
</g>
<g id="Btns_42_">
	<g>
		<path style="fill-rule:evenodd;clip-rule:evenodd;fill:#FFFFFF;" d="M46.006,3.993c-0.007,0-0.013,0.002-0.02,0.002H6.006
			c-1.104,0-2,0.896-2,2s0.896,2,2,2h40c1.104,0,2-0.896,2-2c0-0.001,0-0.001,0-0.001C48.006,4.889,47.11,3.993,46.006,3.993z
			 M52.006,3.993c-1.104,0-2,0.896-2,2.001c0,1.104,0.896,2,2,2s2-0.896,2-2C54.006,4.889,53.11,3.993,52.006,3.993z M58.006,3.993
			c-1.104,0-2,0.896-2,2.001c0,1.104,0.896,2,2,2s2-0.896,2-2C60.006,4.889,59.11,3.993,58.006,3.993z"/>
	</g>
</g>
<g>
</g>
<g>
</g>
<g>
</g>
<g>
</g>
<g>
</g>
<g>
</g>
<g>
</g>
<g>
</g>
<g>
</g>
<g>
</g>
<g>
</g>
<g>
</g>
<g>
</g>
<g>
</g>
<g>
</g>
</svg>
