<?xml version="1.0" encoding="iso-8859-1"?>
<!-- Generator: Adobe Illustrator 16.0.0, SVG Export Plug-In . SVG Version: 6.00 Build 0)  -->
<!DOCTYPE svg PUBLIC "-//W3C//DTD SVG 1.1//EN" "http://www.w3.org/Graphics/SVG/1.1/DTD/svg11.dtd">
<svg version="1.1" id="Layer_1" xmlns="http://www.w3.org/2000/svg" xmlns:xlink="http://www.w3.org/1999/xlink" x="0px" y="0px"
	 width="64.006px" height="63.984px" viewBox="0 0 64.006 63.984" style="enable-background:new 0 0 64.006 63.984;"
	 xml:space="preserve">
<g id="Bar_58_">
	<g>
		<path style="fill:#CCCCCC;" d="M60.307,0.003C60.303,0.003,60.3,0,60.296,0H3.71C3.706,0,3.703,0.003,3.699,0.003
			C1.655,0.009,0,1.614,0,3.595v6.39v50.291c0,2.047,1.661,3.709,3.71,3.709h56.586c2.049,0,3.71-1.662,3.71-3.709V9.984v-6.39
			C64.006,1.614,62.351,0.009,60.307,0.003z"/>
	</g>
</g>
<g id="Container_57_">
	<g>
		<path style="fill:#FFFFFF;" d="M58.006,11.994h-52h-2v2v12v31.999c0,1.105,0.896,2.001,2,2.001h52c1.104,0,2-0.896,2-2.001V25.994
			v-12v-2H58.006z"/>
	</g>
</g>
<g id="Cart">
	<g>
		<path style="fill:#88C057;" d="M27.006,43.993c-1.657,0-3,1.344-3,3c0,1.657,1.343,3.001,3,3.001c1.656,0,3-1.344,3-3.001
			C30.006,45.337,28.662,43.993,27.006,43.993z M39.006,43.993c-1.657,0-3,1.344-3,3c0,1.657,1.343,3.001,3,3.001
			c1.656,0,3-1.344,3-3.001C42.006,45.337,40.662,43.993,39.006,43.993z M45.971,27.822c-0.005-0.04-0.016-0.076-0.022-0.115
			c-0.145-0.962-0.939-1.714-1.942-1.714h-20v-1.999c0-1.106-0.896-2-2-2h-2c-1.104,0-2,0.894-2,2c0,1.104,0.896,1.999,2,1.999
			v1.999c0,0.304,0.078,0.584,0.198,0.841c0.006,0.012,0.016,0.021,0.022,0.032c0.122,0.25,0.295,0.459,0.505,0.638l2.345,8.749
			c-0.628,0.338-1.07,0.979-1.07,1.742c0,1.104,0.896,1.999,2,1.999h18c1.104,0,2-0.896,2-1.999c0-0.711-0.393-1.306-0.951-1.661
			l2.863-9.744c0.024-0.084,0.005-0.165,0.018-0.247c0.021-0.118,0.07-0.225,0.07-0.35C46.006,27.934,45.977,27.881,45.971,27.822z
			 M38.506,37.992H27.147l-2.144-7.998h15.852L38.506,37.992z"/>
	</g>
</g>
<g id="Btns_54_">
	<g>
		<path style="fill-rule:evenodd;clip-rule:evenodd;fill:#FFFFFF;" d="M46.006,3.994c-0.007,0-0.013,0.002-0.02,0.002H6.006
			c-1.104,0-2,0.896-2,2s0.896,2,2,2h40c1.104,0,2-0.896,2-2c0-0.001,0-0.001,0-0.001C48.006,4.89,47.11,3.994,46.006,3.994z
			 M52.006,3.994c-1.104,0-2,0.896-2,2.001c0,1.104,0.896,2,2,2s2-0.896,2-2C54.006,4.89,53.11,3.994,52.006,3.994z M58.006,3.994
			c-1.104,0-2,0.896-2,2.001c0,1.104,0.896,2,2,2s2-0.896,2-2C60.006,4.89,59.11,3.994,58.006,3.994z"/>
	</g>
</g>
<g>
</g>
<g>
</g>
<g>
</g>
<g>
</g>
<g>
</g>
<g>
</g>
<g>
</g>
<g>
</g>
<g>
</g>
<g>
</g>
<g>
</g>
<g>
</g>
<g>
</g>
<g>
</g>
<g>
</g>
</svg>
