<?xml version="1.0" encoding="iso-8859-1"?>
<!-- Generator: Adobe Illustrator 16.0.0, SVG Export Plug-In . SVG Version: 6.00 Build 0)  -->
<!DOCTYPE svg PUBLIC "-//W3C//DTD SVG 1.1//EN" "http://www.w3.org/Graphics/SVG/1.1/DTD/svg11.dtd">
<svg version="1.1" id="Layer_1" xmlns="http://www.w3.org/2000/svg" xmlns:xlink="http://www.w3.org/1999/xlink" x="0px" y="0px"
	 width="64.006px" height="63.984px" viewBox="0 0 64.006 63.984" style="enable-background:new 0 0 64.006 63.984;"
	 xml:space="preserve">
<g id="Bar_90_">
	<g>
		<path style="fill:#CCCCCC;" d="M60.307,0.003C60.303,0.003,60.3,0,60.296,0H3.71C3.707,0,3.703,0.003,3.699,0.003
			C1.655,0.008,0,1.613,0,3.595v6.39v50.29c0,2.049,1.661,3.71,3.71,3.71h56.585c2.049,0,3.71-1.661,3.71-3.71V9.984v-6.39
			C64.006,1.613,62.351,0.008,60.307,0.003z"/>
	</g>
</g>
<g id="Container_90_">
	<g>
		<path style="fill:#FFFFFF;" d="M58.006,11.994h-52h-2v1.999v12.001v31.999c0,1.105,0.895,2.001,2,2.001h52
			c1.104,0,2-0.896,2-2.001V25.994V13.993v-1.999H58.006z"/>
	</g>
</g>
<g id="Music_icon">
	<g>
		<path style="fill-rule:evenodd;clip-rule:evenodd;fill:#9B7CAB;" d="M42.206,24.613l-14.4-2.594c-0.994-0.179-1.8,0.499-1.8,1.514
			v2.461v1.219v10.863c-0.323-0.052-0.657-0.081-1-0.081c-2.762,0-5,1.79-5,3.999c0,2.21,2.238,4.001,5,4.001
			c2.565,0,4.655-1.552,4.942-3.543c0.035-0.147,0.058-0.3,0.058-0.458V29.771l10,1.802v10.501c-0.323-0.052-0.657-0.081-1-0.081
			c-2.762,0-5,1.791-5,4.001c0,2.208,2.238,3.999,5,3.999c2.565,0,4.655-1.551,4.942-3.541c0.035-0.147,0.058-0.3,0.058-0.458
			V30.454v-0.46v-3.218C44.006,25.761,43.2,24.792,42.206,24.613z"/>
	</g>
</g>
<g id="Btns_87_">
	<g>
		<path style="fill-rule:evenodd;clip-rule:evenodd;fill:#FFFFFF;" d="M46.005,3.995c-0.003,0-0.006,0.001-0.01,0.001H6.006
			c-1.104,0-2,0.896-2,2s0.896,2,2,2h40c1.104,0,2-0.896,2-2C48.006,4.891,47.11,3.995,46.005,3.995z M52.006,3.995
			c-1.105,0-2,0.896-2,2.001c0,1.104,0.895,2,2,2c1.104,0,2-0.896,2-2C54.006,4.891,53.11,3.995,52.006,3.995z M58.006,3.995
			c-1.104,0-2,0.896-2,2.001c0,1.104,0.896,2,2,2s2-0.896,2-2C60.006,4.891,59.11,3.995,58.006,3.995z"/>
	</g>
</g>
<g>
</g>
<g>
</g>
<g>
</g>
<g>
</g>
<g>
</g>
<g>
</g>
<g>
</g>
<g>
</g>
<g>
</g>
<g>
</g>
<g>
</g>
<g>
</g>
<g>
</g>
<g>
</g>
<g>
</g>
</svg>
