<?xml version="1.0" encoding="iso-8859-1"?>
<!-- Generator: Adobe Illustrator 16.0.0, SVG Export Plug-In . SVG Version: 6.00 Build 0)  -->
<!DOCTYPE svg PUBLIC "-//W3C//DTD SVG 1.1//EN" "http://www.w3.org/Graphics/SVG/1.1/DTD/svg11.dtd">
<svg version="1.1" id="Layer_1" xmlns="http://www.w3.org/2000/svg" xmlns:xlink="http://www.w3.org/1999/xlink" x="0px" y="0px"
	 width="64.007px" height="64.046px" viewBox="0 0 64.007 64.046" style="enable-background:new 0 0 64.007 64.046;"
	 xml:space="preserve">
<g id="Bar_20_">
	<g>
		<path style="fill-rule:evenodd;clip-rule:evenodd;fill:#48A0DC;" d="M60.308,0.002C60.304,0.002,60.3,0,60.296,0H3.711
			C3.707,0,3.704,0.002,3.7,0.002c-0.061,0-0.115,0.015-0.175,0.018h6.476v8h-10V3.588C0.001,3.592,0,3.595,0,3.598v6.395v50.341
			c0,2.05,1.662,3.713,3.711,3.713h56.585c2.05,0,3.711-1.663,3.711-3.713V9.992V3.598C64.007,1.615,62.352,0.008,60.308,0.002z"/>
	</g>
</g>
<g id="Container_19_">
	<g>
		<path style="fill:#FFFFFF;" d="M58.001,12.006h-52h-2v2.002V26.02v32.03c0,1.106,0.896,2.003,2,2.003h52c1.104,0,2-0.896,2-2.003
			V26.02V14.008v-2.002H58.001z"/>
	</g>
</g>
<g id="Tab_Body">
	<g>
		<path style="fill:#48A0DC;" d="M56.001,0.02h-12c-2.209,0-4,1.791-4,4v4c0,2.209,1.791,4,4,4h12c2.209,0,4-1.791,4-4v-4
			C60.001,1.811,58.21,0.02,56.001,0.02z"/>
	</g>
</g>
<g id="Tab_Body_12_">
	<g>
		<path style="fill-rule:evenodd;clip-rule:evenodd;fill:#FFFFFF;" d="M58.001,4.02h-12c-1.104,0-2,0.896-2,2v4v2h2h12h2v-2v-4
			C60.001,4.915,59.105,4.02,58.001,4.02z"/>
	</g>
</g>
<g id="Tab_Body_10_">
	<g>
		<path style="fill-rule:evenodd;clip-rule:evenodd;fill:#CCCCCC;" d="M40.001,0.02h-4h-2h-30c-2.209,0-4,1.791-4,4v4h34h6v-4
			c0-2.209,1.791-4,4-4H40.001z"/>
	</g>
</g>
<g id="Tab_Body_3_">
	<g>
		<path style="fill-rule:evenodd;clip-rule:evenodd;fill:#FFFFFF;" d="M38.001,4.02h-12c-1.104,0-2,0.896-2,2v2h2h12h2v-2
			C40.001,4.915,39.105,4.02,38.001,4.02z"/>
	</g>
</g>
<g id="Tab_Body_4_">
	<g>
		<path style="fill-rule:evenodd;clip-rule:evenodd;fill:#FFFFFF;" d="M18.001,4.02h-12c-1.104,0-2,0.896-2,2v2h2h12h2v-2
			C20.001,4.915,19.105,4.02,18.001,4.02z"/>
	</g>
</g>
<g>
</g>
<g>
</g>
<g>
</g>
<g>
</g>
<g>
</g>
<g>
</g>
<g>
</g>
<g>
</g>
<g>
</g>
<g>
</g>
<g>
</g>
<g>
</g>
<g>
</g>
<g>
</g>
<g>
</g>
</svg>
