<?xml version="1.0" encoding="iso-8859-1"?>
<!-- Generator: Adobe Illustrator 16.0.0, SVG Export Plug-In . SVG Version: 6.00 Build 0)  -->
<!DOCTYPE svg PUBLIC "-//W3C//DTD SVG 1.1//EN" "http://www.w3.org/Graphics/SVG/1.1/DTD/svg11.dtd">
<svg version="1.1" id="Layer_1" xmlns="http://www.w3.org/2000/svg" xmlns:xlink="http://www.w3.org/1999/xlink" x="0px" y="0px"
	 width="64.006px" height="64.046px" viewBox="0 0 64.006 64.046" style="enable-background:new 0 0 64.006 64.046;"
	 xml:space="preserve">
<g id="Bar_34_">
	<g>
		<path style="fill:#CCCCCC;" d="M60.307,0.002C60.303,0.002,60.3,0,60.296,0H3.71C3.706,0,3.703,0.002,3.699,0.002
			C1.655,0.008,0,1.615,0,3.598v6.395v50.341c0,2.05,1.661,3.713,3.71,3.713h56.586c2.049,0,3.71-1.663,3.71-3.713V9.992V3.598
			C64.006,1.615,62.351,0.008,60.307,0.002z"/>
	</g>
</g>
<g id="Container_33_">
	<g>
		<path style="fill:#FFFFFF;" d="M58.006,12.006h-52h-2v2.002V26.02v32.03c0,1.106,0.896,2.003,2,2.003h52c1.104,0,2-0.896,2-2.003
			V26.02V14.008v-2.002H58.006z"/>
	</g>
</g>
<g id="W">
	<g>
		<path style="fill-rule:evenodd;clip-rule:evenodd;fill:#9B7CAB;" d="M20.601,30.09c-1.028-0.219-2.104,0.335-2.403,1.238
			L17.02,34.88l-1.031-3.315c-0.013-0.021-0.026-0.025-0.039-0.043c-0.099-0.508-0.426-0.976-0.956-1.254
			c-0.952-0.498-2.169-0.202-2.719,0.662l-1.406,4.383l-1.063-3.986c-0.298-0.902-1.374-1.455-2.403-1.234
			c-1.028,0.221-1.621,1.132-1.322,2.035l2.158,6.539c0.293,0.887,1.21,1.481,2.222,1.313c0.567-0.036,0.996-0.529,1.281-0.978
			l2.246-3.534l2.268,3.59c0.296,0.469,0.787,0.765,1.324,0.866c0.005,0.001,0.011,0.001,0.016,0.002
			c0.097,0.018,0.194,0.032,0.293,0.037c0.03,0.001,0.061,0.011,0.09,0.011c0.049-0.001,0.084-0.014,0.131-0.017
			c0.088-0.005,0.174-0.017,0.261-0.033c0.349-0.054,0.63-0.176,0.847-0.378c0.003-0.004,0.008-0.008,0.012-0.013
			c0.22-0.209,0.394-0.483,0.521-0.868l2.169-6.541C22.22,31.22,21.629,30.31,20.601,30.09z"/>
	</g>
</g>
<g id="W_3_">
	<g>
		<path style="fill-rule:evenodd;clip-rule:evenodd;fill:#9B7CAB;" d="M38.601,30.09c-1.028-0.219-2.104,0.335-2.403,1.238
			L35.02,34.88l-1.031-3.315c-0.013-0.021-0.026-0.025-0.039-0.043c-0.099-0.508-0.426-0.976-0.956-1.254
			c-0.952-0.498-2.169-0.202-2.719,0.662l-1.406,4.383l-1.063-3.986c-0.298-0.902-1.374-1.455-2.403-1.234
			c-1.028,0.221-1.621,1.132-1.322,2.035l2.158,6.539c0.293,0.887,1.21,1.481,2.222,1.313c0.567-0.036,0.996-0.529,1.281-0.978
			l2.246-3.534l2.268,3.59c0.296,0.469,0.787,0.765,1.324,0.866c0.005,0.001,0.011,0.001,0.016,0.002
			c0.097,0.018,0.194,0.032,0.293,0.037c0.03,0.001,0.061,0.011,0.09,0.011c0.049-0.001,0.084-0.014,0.131-0.017
			c0.088-0.005,0.174-0.017,0.261-0.033c0.349-0.054,0.63-0.176,0.847-0.378c0.003-0.004,0.008-0.008,0.012-0.013
			c0.22-0.209,0.394-0.483,0.521-0.868l2.169-6.541C40.22,31.22,39.629,30.31,38.601,30.09z"/>
	</g>
</g>
<g id="W_2_">
	<g>
		<path style="fill-rule:evenodd;clip-rule:evenodd;fill:#9B7CAB;" d="M56.601,30.09c-1.028-0.219-2.104,0.335-2.403,1.238
			L53.02,34.88l-1.031-3.315c-0.013-0.021-0.026-0.025-0.039-0.043c-0.099-0.508-0.426-0.976-0.956-1.254
			c-0.952-0.498-2.169-0.202-2.719,0.662l-1.406,4.383l-1.063-3.986c-0.298-0.902-1.374-1.455-2.403-1.234
			c-1.028,0.221-1.621,1.132-1.322,2.035l2.158,6.539c0.293,0.887,1.21,1.481,2.222,1.313c0.567-0.036,0.996-0.529,1.281-0.978
			l2.246-3.534l2.268,3.59c0.296,0.469,0.787,0.765,1.324,0.866c0.005,0.001,0.011,0.001,0.016,0.002
			c0.097,0.018,0.194,0.032,0.293,0.037c0.03,0.001,0.061,0.011,0.09,0.011c0.049-0.001,0.084-0.014,0.131-0.017
			c0.088-0.005,0.174-0.017,0.261-0.033c0.349-0.054,0.63-0.176,0.847-0.378c0.003-0.004,0.008-0.008,0.012-0.013
			c0.22-0.209,0.394-0.483,0.521-0.868l2.169-6.541C58.22,31.22,57.629,30.31,56.601,30.09z"/>
	</g>
</g>
<g id="Btns_30_">
	<g>
		<path style="fill-rule:evenodd;clip-rule:evenodd;fill:#FFFFFF;" d="M46.006,3.999c-0.07,0-0.136,0.014-0.203,0.021H6.006
			c-1.104,0-2,0.896-2,2s0.896,2,2,2h40c1.104,0,2-0.896,2-2c0-0.003-0.001-0.006-0.001-0.009s0.001-0.006,0.001-0.009
			C48.006,4.895,47.11,3.999,46.006,3.999z M52.006,3.999c-1.104,0-2,0.896-2,2.003c0,1.104,0.896,2.001,2,2.001s2-0.896,2-2.001
			C54.006,4.895,53.11,3.999,52.006,3.999z M58.006,3.999c-1.104,0-2,0.896-2,2.003c0,1.104,0.896,2.001,2,2.001s2-0.896,2-2.001
			C60.006,4.895,59.11,3.999,58.006,3.999z"/>
	</g>
</g>
<g>
</g>
<g>
</g>
<g>
</g>
<g>
</g>
<g>
</g>
<g>
</g>
<g>
</g>
<g>
</g>
<g>
</g>
<g>
</g>
<g>
</g>
<g>
</g>
<g>
</g>
<g>
</g>
<g>
</g>
</svg>
