<?xml version="1.0" encoding="iso-8859-1"?>
<!-- Generator: Adobe Illustrator 16.0.0, SVG Export Plug-In . SVG Version: 6.00 Build 0)  -->
<!DOCTYPE svg PUBLIC "-//W3C//DTD SVG 1.1//EN" "http://www.w3.org/Graphics/SVG/1.1/DTD/svg11.dtd">
<svg version="1.1" id="Layer_1" xmlns="http://www.w3.org/2000/svg" xmlns:xlink="http://www.w3.org/1999/xlink" x="0px" y="0px"
	 width="64.006px" height="63.983px" viewBox="0 0 64.006 63.983" style="enable-background:new 0 0 64.006 63.983;"
	 xml:space="preserve">
<g id="Bar_51_">
	<g>
		<path style="fill:#CCCCCC;" d="M60.307,0.003C60.303,0.003,60.3,0,60.296,0H3.71C3.707,0,3.703,0.003,3.699,0.003
			C1.655,0.008,0,1.613,0,3.594v6.39v50.291c0,2.048,1.661,3.709,3.71,3.709h56.585c2.049,0,3.71-1.661,3.71-3.709V9.983v-6.39
			C64.006,1.613,62.351,0.008,60.307,0.003z"/>
	</g>
</g>
<g id="Container_50_">
	<g>
		<path style="fill:#FFFFFF;" d="M58.006,11.993h-52h-2v2v12.001v31.999c0,1.104,0.895,2,2,2h52c1.104,0,2-0.896,2-2V25.994V13.993
			v-2H58.006z"/>
	</g>
</g>
<g id="Equalizer">
	<g>
		<path style="fill-rule:evenodd;clip-rule:evenodd;fill:#88C057;" d="M44.005,31.993v-6c0-1.104-0.895-2-2-2c-1.105,0-2,0.896-2,2
			v6c-1.105,0-2,0.896-2,2c0,1.104,0.896,1.999,2,1.999v10c0,1.105,0.895,2,2,2c1.104,0,2-0.895,2-2v-10c1.105,0,2-0.896,2-1.999
			C46.005,32.889,45.11,31.993,44.005,31.993z M34.006,29.993v-4c0-1.104-0.896-2-2-2c-1.104,0-2,0.896-2,2v4c-1.105,0-2,0.895-2,2
			c0,1.104,0.896,2,2,2v11.999c0,1.105,0.895,2,2,2c1.105,0,2-0.895,2-2V33.993c1.104,0,2-0.896,2-2
			C36.006,30.888,35.11,29.993,34.006,29.993z M24.006,37.993v-12c0-1.104-0.896-2-2-2c-1.105,0-2,0.896-2,2v12
			c-1.104,0-2,0.895-2,2c0,1.104,0.895,2,2,2v3.999c0,1.105,0.896,2,2,2c1.104,0,2-0.895,2-2v-3.999c1.104,0,2-0.896,2-2
			C26.005,38.888,25.11,37.993,24.006,37.993z"/>
	</g>
</g>
<g id="Btns_47_">
	<g>
		<path style="fill-rule:evenodd;clip-rule:evenodd;fill:#FFFFFF;" d="M46.005,3.993c-0.007,0-0.013,0.002-0.02,0.002H6.006
			c-1.104,0-2,0.896-2,2s0.896,2,2,2h40c1.104,0,2-0.896,2-2c0-0.001,0-0.001,0-0.001C48.006,4.889,47.11,3.993,46.005,3.993z
			 M52.006,3.993c-1.105,0-2,0.896-2,2.001c0,1.104,0.895,2,2,2c1.104,0,2-0.896,2-2C54.006,4.889,53.11,3.993,52.006,3.993z
			 M58.006,3.993c-1.104,0-2,0.896-2,2.001c0,1.104,0.896,2,2,2s2-0.896,2-2C60.006,4.889,59.11,3.993,58.006,3.993z"/>
	</g>
</g>
<g>
</g>
<g>
</g>
<g>
</g>
<g>
</g>
<g>
</g>
<g>
</g>
<g>
</g>
<g>
</g>
<g>
</g>
<g>
</g>
<g>
</g>
<g>
</g>
<g>
</g>
<g>
</g>
<g>
</g>
</svg>
