<?xml version="1.0" encoding="iso-8859-1"?>
<!-- Generator: Adobe Illustrator 16.0.0, SVG Export Plug-In . SVG Version: 6.00 Build 0)  -->
<!DOCTYPE svg PUBLIC "-//W3C//DTD SVG 1.1//EN" "http://www.w3.org/Graphics/SVG/1.1/DTD/svg11.dtd">
<svg version="1.1" id="Layer_1" xmlns="http://www.w3.org/2000/svg" xmlns:xlink="http://www.w3.org/1999/xlink" x="0px" y="0px"
	 width="64.007px" height="63.983px" viewBox="0 0 64.007 63.983" style="enable-background:new 0 0 64.007 63.983;"
	 xml:space="preserve">
<g id="Bar_65_">
	<g>
		<path style="fill:#CCCCCC;" d="M60.307,0.001C60.303,0.001,60.3,0,60.296,0H3.71C3.706,0,3.703,0.001,3.699,0.001
			C1.655,0.008,0,1.612,0,3.594v6.389v50.291c0,2.048,1.661,3.71,3.71,3.71h56.586c2.049,0,3.711-1.662,3.711-3.71V9.982V3.594
			C64.007,1.612,62.351,0.008,60.307,0.001z"/>
	</g>
</g>
<g id="Container_64_">
	<g>
		<path style="fill:#FFFFFF;" d="M58.006,11.993h-52h-2v1.999v12.001v31.999c0,1.105,0.896,2.001,2,2.001h52
			c1.104,0,2-0.896,2-2.001V25.993V13.992v-1.999H58.006z"/>
	</g>
</g>
<g id="Question">
	<g>
		<path style="fill-rule:evenodd;clip-rule:evenodd;fill:#9B7CAB;" d="M32.006,23.993c-4.419,0-8,3.581-8,8c0,1.104,0.896,2,2,2
			s2-0.896,2-2c0-2.209,1.791-4,4-4s4,1.791,4,4c0,4.147-6,2.876-6,10h4c0-3.812,6-3.332,6-10
			C40.006,27.574,36.424,23.993,32.006,23.993z M32.006,43.993c-1.105,0-2,0.895-2,2.001c0,1.104,0.895,1.999,2,1.999
			c1.104,0,2-0.895,2-1.999C34.006,44.888,33.11,43.993,32.006,43.993z"/>
	</g>
</g>
<g id="Btns_61_">
	<g>
		<path style="fill-rule:evenodd;clip-rule:evenodd;fill:#FFFFFF;" d="M46.006,3.994c-0.003,0-0.006,0.001-0.01,0.001H6.006
			c-1.104,0-2,0.896-2,2s0.896,2,2,2h40c1.104,0,2-0.896,2-2C48.006,4.89,47.11,3.994,46.006,3.994z M52.006,3.994
			c-1.104,0-2,0.896-2,2.001c0,1.104,0.896,1.999,2,1.999s2-0.896,2-1.999C54.006,4.89,53.11,3.994,52.006,3.994z M58.006,3.994
			c-1.104,0-2,0.896-2,2.001c0,1.104,0.896,1.999,2,1.999s2-0.896,2-1.999C60.006,4.89,59.11,3.994,58.006,3.994z"/>
	</g>
</g>
<g>
</g>
<g>
</g>
<g>
</g>
<g>
</g>
<g>
</g>
<g>
</g>
<g>
</g>
<g>
</g>
<g>
</g>
<g>
</g>
<g>
</g>
<g>
</g>
<g>
</g>
<g>
</g>
<g>
</g>
</svg>
