<?xml version="1.0" encoding="iso-8859-1"?>
<!-- Generator: Adobe Illustrator 16.0.0, SVG Export Plug-In . SVG Version: 6.00 Build 0)  -->
<!DOCTYPE svg PUBLIC "-//W3C//DTD SVG 1.1//EN" "http://www.w3.org/Graphics/SVG/1.1/DTD/svg11.dtd">
<svg version="1.1" id="Layer_1" xmlns="http://www.w3.org/2000/svg" xmlns:xlink="http://www.w3.org/1999/xlink" x="0px" y="0px"
	 width="64.006px" height="63.982px" viewBox="0 0 64.006 63.982" style="enable-background:new 0 0 64.006 63.982;"
	 xml:space="preserve">
<g id="Bar_81_">
	<g>
		<path style="fill:#CCCCCC;" d="M60.307,0.001C60.303,0.001,60.3,0,60.296,0H3.71C3.706,0,3.703,0.001,3.699,0.001
			C1.655,0.008,0,1.611,0,3.593v6.389v50.291c0,2.05,1.661,3.71,3.71,3.71h56.586c2.049,0,3.71-1.66,3.71-3.71V9.981V3.593
			C64.006,1.611,62.351,0.008,60.307,0.001z"/>
	</g>
</g>
<g id="Container_81_">
	<g>
		<path style="fill:#FFFFFF;" d="M58.006,11.992h-52h-2v2.001v11.999v32.001c0,1.104,0.896,1.999,2,1.999h52
			c1.104,0,2-0.895,2-1.999V25.992V13.993v-2.001H58.006z"/>
	</g>
</g>
<g id="Chrome">
	<g>
		<path style="fill:#88C057;" d="M26.032,35.993c0,3.3,2.675,5.974,5.974,5.974s5.973-2.674,5.973-5.974
			c0-3.299-2.674-5.973-5.973-5.973S26.032,32.694,26.032,35.993z M24.041,35.993c0-7.819,7.965-7.969,7.965-7.969h11.492
			c-2.528-3.639-6.726-6.031-11.492-6.031c-6.129,0-11.281,3.964-13.178,9.446l5.284,5.255
			C24.091,36.46,24.041,36.233,24.041,35.993z M44.619,30.017h-7.4c1.673,1.46,2.751,3.582,2.751,5.977
			c0,3.471-1.97,5.402-1.97,5.402l-8.317,8.364c0.76,0.127,1.527,0.233,2.323,0.233c7.732,0,14-6.268,14-14
			C46.006,33.846,45.483,31.835,44.619,30.017z M32.006,43.958c-3.533,0-5.402-1.97-5.402-1.97l-8.363-8.317
			c-0.128,0.759-0.234,1.526-0.234,2.322c0,6.129,3.963,11.281,9.446,13.179l5.254-5.284C32.472,43.908,32.246,43.958,32.006,43.958
			z"/>
	</g>
</g>
<g id="Btns_78_">
	<g>
		<path style="fill-rule:evenodd;clip-rule:evenodd;fill:#FFFFFF;" d="M46.006,3.992c-0.007,0-0.013,0.002-0.02,0.002H6.006
			c-1.104,0-2,0.895-2,2c0,1.104,0.896,2,2,2h40c1.104,0,2-0.896,2-2v0v0C48.006,4.888,47.11,3.992,46.006,3.992z M52.006,3.992
			c-1.104,0-2,0.896-2,2.001c0,1.104,0.896,1.999,2,1.999s2-0.895,2-1.999C54.006,4.888,53.11,3.992,52.006,3.992z M58.006,3.992
			c-1.104,0-2,0.896-2,2.001c0,1.104,0.896,1.999,2,1.999s2-0.895,2-1.999C60.006,4.888,59.11,3.992,58.006,3.992z"/>
	</g>
</g>
<g>
</g>
<g>
</g>
<g>
</g>
<g>
</g>
<g>
</g>
<g>
</g>
<g>
</g>
<g>
</g>
<g>
</g>
<g>
</g>
<g>
</g>
<g>
</g>
<g>
</g>
<g>
</g>
<g>
</g>
</svg>
