<?xml version="1.0" encoding="iso-8859-1"?>
<!-- Generator: Adobe Illustrator 16.0.0, SVG Export Plug-In . SVG Version: 6.00 Build 0)  -->
<!DOCTYPE svg PUBLIC "-//W3C//DTD SVG 1.1//EN" "http://www.w3.org/Graphics/SVG/1.1/DTD/svg11.dtd">
<svg version="1.1" id="Layer_1" xmlns="http://www.w3.org/2000/svg" xmlns:xlink="http://www.w3.org/1999/xlink" x="0px" y="0px"
	 width="64.006px" height="63.996px" viewBox="0 0 64.006 63.996" style="enable-background:new 0 0 64.006 63.996;"
	 xml:space="preserve">
<g id="Bar_94_">
	<g>
		<path style="fill:#CCCCCC;" d="M52.307,0.002C52.303,0.002,52.3,0,52.296,0H3.71C3.706,0,3.703,0.002,3.699,0.002
			C1.655,0.009,0,1.612,0,3.595v6.389v42.291c0,2.048,1.661,3.709,3.71,3.709h48.586c2.049,0,3.71-1.661,3.71-3.709V9.983V3.595
			C56.006,1.612,54.351,0.009,52.307,0.002z"/>
	</g>
</g>
<g id="Container_96_">
	<g>
		<path style="fill:#FFFFFF;" d="M50.006,11.993h-44h-2v2v12.001v23.999c0,1.104,0.896,2.001,2,2.001h44c1.104,0,2-0.896,2-2.001
			V25.994V13.993v-2H50.006z"/>
	</g>
</g>
<g id="Btns_93_">
	<g>
		<path style="fill-rule:evenodd;clip-rule:evenodd;fill:#FFFFFF;" d="M38.006,3.993c-0.01,0-0.019,0.003-0.029,0.003H6.006
			c-1.104,0-2,0.896-2,2s0.896,2,2,2h32c1.104,0,2-0.896,2-2V5.995V5.994C40.006,4.89,39.11,3.993,38.006,3.993z M44.006,3.993
			c-1.104,0-2,0.896-2,2.001s0.896,2,2,2s2-0.896,2-2S45.11,3.993,44.006,3.993z M50.006,3.993c-1.104,0-2,0.896-2,2.001
			s0.896,2,2,2s2-0.896,2-2S51.11,3.993,50.006,3.993z"/>
	</g>
</g>
<g id="Tablet_5_">
	<g>
		<path style="fill:#9B7CAB;" d="M60.005,7.995H28.006c-2.209,0-4.001,1.792-4.001,4.001v48c0,2.208,1.792,4,4.001,4h31.999
			c2.21,0,4.001-1.792,4.001-4v-48C64.006,9.787,62.215,7.995,60.005,7.995z"/>
	</g>
</g>
<g id="Screen__x26__Home_Btn_13_">
	<g>
		<path style="fill-rule:evenodd;clip-rule:evenodd;fill:#FFFFFF;" d="M28.006,15.996v40h31.999v-40H28.006z M44.006,57.996
			c-1.105,0-2,0.896-2,1.999c0,1.105,0.895,2.001,2,2.001c1.104,0,1.999-0.896,1.999-2.001
			C46.005,58.892,45.11,57.996,44.006,57.996z"/>
	</g>
</g>
<g>
</g>
<g>
</g>
<g>
</g>
<g>
</g>
<g>
</g>
<g>
</g>
<g>
</g>
<g>
</g>
<g>
</g>
<g>
</g>
<g>
</g>
<g>
</g>
<g>
</g>
<g>
</g>
<g>
</g>
</svg>
