<?xml version="1.0" encoding="iso-8859-1"?>
<!-- Generator: Adobe Illustrator 16.0.0, SVG Export Plug-In . SVG Version: 6.00 Build 0)  -->
<!DOCTYPE svg PUBLIC "-//W3C//DTD SVG 1.1//EN" "http://www.w3.org/Graphics/SVG/1.1/DTD/svg11.dtd">
<svg version="1.1" id="Layer_1" xmlns="http://www.w3.org/2000/svg" xmlns:xlink="http://www.w3.org/1999/xlink" x="0px" y="0px"
	 width="64.008px" height="64.046px" viewBox="0 0 64.008 64.046" style="enable-background:new 0 0 64.008 64.046;"
	 xml:space="preserve">
<g id="Bar_23_">
	<g>
		<path style="fill:#88C057;" d="M36.307,0.002C36.303,0.002,36.3,0,36.296,0H3.71C3.706,0,3.703,0.002,3.699,0.002
			C1.655,0.008,0,1.615,0,3.598v6.395v50.341c0,2.05,1.661,3.713,3.71,3.713h32.586c2.049,0,3.71-1.663,3.71-3.713V9.992V3.598
			C40.006,1.615,38.351,0.008,36.307,0.002z"/>
	</g>
</g>
<g id="Container_22_">
	<g>
		<path style="fill:#FFFFFF;" d="M34.006,12.006h-28h-2v2.002V26.02v32.03c0,1.106,0.896,2.003,2,2.003h28c1.104,0,2-0.896,2-2.003
			V26.02V14.008v-2.002H34.006z"/>
	</g>
</g>
<g id="Arrow_5_">
	<g>
		<path style="fill-rule:evenodd;clip-rule:evenodd;fill:#88C057;" d="M64.008,31.987c0-0.564-0.233-1.073-0.607-1.438
			c-0.015-0.016-0.023-0.036-0.039-0.052l-5.846-5.889c-0.807-0.813-2.115-0.813-2.922,0c-0.808,0.813-0.808,2.131,0,2.944
			l2.408,2.426H46.008c-1.105,0-2.001,0.899-2.001,2.009c0,1.108,0.896,2.008,2.001,2.008h11.089l-2.499,2.501
			c-0.809,0.809-0.809,2.122,0,2.932s2.121,0.81,2.932,0l5.859-5.864c0.325-0.325,0.51-0.732,0.573-1.154
			C63.991,32.273,64.008,32.133,64.008,31.987z"/>
	</g>
</g>
<g id="Btns_19_">
	<g>
		<path style="fill-rule:evenodd;clip-rule:evenodd;fill:#FFFFFF;" d="M22.006,3.999c-0.069,0-0.136,0.014-0.203,0.021H6.006
			c-1.104,0-2,0.896-2,2s0.896,2,2,2h16c1.104,0,2-0.896,2-2c0-0.003-0.001-0.006-0.001-0.009s0.001-0.006,0.001-0.009
			C24.006,4.895,23.11,3.999,22.006,3.999z M28.006,3.999c-1.104,0-2,0.896-2,2.003c0,1.104,0.896,2.001,2,2.001s2-0.896,2-2.001
			C30.006,4.895,29.11,3.999,28.006,3.999z M34.006,3.999c-1.104,0-2,0.896-2,2.003c0,1.104,0.896,2.001,2,2.001s2-0.896,2-2.001
			C36.006,4.895,35.11,3.999,34.006,3.999z"/>
	</g>
</g>
<g>
</g>
<g>
</g>
<g>
</g>
<g>
</g>
<g>
</g>
<g>
</g>
<g>
</g>
<g>
</g>
<g>
</g>
<g>
</g>
<g>
</g>
<g>
</g>
<g>
</g>
<g>
</g>
<g>
</g>
</svg>
