<?xml version="1.0" encoding="iso-8859-1"?>
<!-- Generator: Adobe Illustrator 16.0.0, SVG Export Plug-In . SVG Version: 6.00 Build 0)  -->
<!DOCTYPE svg PUBLIC "-//W3C//DTD SVG 1.1//EN" "http://www.w3.org/Graphics/SVG/1.1/DTD/svg11.dtd">
<svg version="1.1" id="Layer_1" xmlns="http://www.w3.org/2000/svg" xmlns:xlink="http://www.w3.org/1999/xlink" x="0px" y="0px"
	 width="64.006px" height="63.983px" viewBox="0 0 64.006 63.983" style="enable-background:new 0 0 64.006 63.983;"
	 xml:space="preserve">
<g id="Bar_67_">
	<g>
		<path style="fill:#CCCCCC;" d="M60.307,0.001C60.303,0.001,60.3,0,60.296,0H3.71C3.707,0,3.703,0.001,3.699,0.001
			C1.655,0.008,0,1.612,0,3.594v6.389v50.291c0,2.048,1.661,3.71,3.71,3.71h56.585c2.049,0,3.71-1.662,3.71-3.71V9.982V3.594
			C64.006,1.612,62.351,0.008,60.307,0.001z"/>
	</g>
</g>
<g id="Container_66_">
	<g>
		<path style="fill:#FFFFFF;" d="M58.006,11.993h-52h-2v1.999v12.001v31.999c0,1.105,0.895,2.001,2,2.001h52
			c1.104,0,2-0.896,2-2.001V25.993V13.992v-1.999H58.006z"/>
	</g>
</g>
<g id="Rounded_Rectangle_1_1_">
	<g>
		<path style="fill-rule:evenodd;clip-rule:evenodd;fill:#48A0DC;" d="M27.588,31.408l2.417-2.409v10.994
			c0,1.106,0.895,2.001,2,2.001c1.105,0,2-0.895,2-2.001V28.904l2.491,2.499c0.807,0.81,2.114,0.81,2.92,0
			c0.807-0.809,0.807-2.121,0-2.931l-5.841-5.86c-0.325-0.326-0.731-0.51-1.153-0.573c-0.135-0.028-0.274-0.045-0.417-0.045
			c-0.561,0-1.067,0.232-1.43,0.604c-0.017,0.016-0.038,0.024-0.054,0.041l-5.866,5.846c-0.81,0.808-0.81,2.115,0,2.923
			C25.465,32.215,26.779,32.215,27.588,31.408z M42.006,45.994h-20c-1.104,0-2,0.894-2,1.999s0.896,2,2,2h20c1.104,0,2-0.895,2-2
			S43.11,45.994,42.006,45.994z"/>
	</g>
</g>
<g id="Btns_63_">
	<g>
		<path style="fill-rule:evenodd;clip-rule:evenodd;fill:#FFFFFF;" d="M46.005,3.994c-0.003,0-0.006,0.001-0.01,0.001H6.006
			c-1.104,0-2,0.896-2,2s0.896,2,2,2h40c1.104,0,2-0.896,2-2C48.006,4.89,47.11,3.994,46.005,3.994z M52.006,3.994
			c-1.105,0-2,0.896-2,2.001c0,1.104,0.895,1.999,2,1.999c1.104,0,2-0.896,2-1.999C54.006,4.89,53.11,3.994,52.006,3.994z
			 M58.006,3.994c-1.104,0-2,0.896-2,2.001c0,1.104,0.896,1.999,2,1.999s2-0.896,2-1.999C60.006,4.89,59.11,3.994,58.006,3.994z"/>
	</g>
</g>
<g>
</g>
<g>
</g>
<g>
</g>
<g>
</g>
<g>
</g>
<g>
</g>
<g>
</g>
<g>
</g>
<g>
</g>
<g>
</g>
<g>
</g>
<g>
</g>
<g>
</g>
<g>
</g>
<g>
</g>
</svg>
