<?xml version="1.0" encoding="iso-8859-1"?>
<!-- Generator: Adobe Illustrator 16.0.0, SVG Export Plug-In . SVG Version: 6.00 Build 0)  -->
<!DOCTYPE svg PUBLIC "-//W3C//DTD SVG 1.1//EN" "http://www.w3.org/Graphics/SVG/1.1/DTD/svg11.dtd">
<svg version="1.1" id="Layer_1" xmlns="http://www.w3.org/2000/svg" xmlns:xlink="http://www.w3.org/1999/xlink" x="0px" y="0px"
	 width="64.006px" height="63.984px" viewBox="0 0 64.006 63.984" style="enable-background:new 0 0 64.006 63.984;"
	 xml:space="preserve">
<g id="Bar_59_">
	<g>
		<path style="fill:#CCCCCC;" d="M60.307,0.003C60.303,0.003,60.3,0,60.296,0H3.71C3.707,0,3.703,0.003,3.699,0.003
			C1.655,0.009,0,1.614,0,3.595v6.39v50.291c0,2.047,1.661,3.709,3.71,3.709h56.585c2.049,0,3.71-1.662,3.71-3.709V9.984v-6.39
			C64.006,1.614,62.351,0.009,60.307,0.003z"/>
	</g>
</g>
<g id="Container_58_">
	<g>
		<path style="fill:#FFFFFF;" d="M58.006,11.994h-52h-2v2v12v31.999c0,1.105,0.895,2.001,2,2.001h52c1.104,0,2-0.896,2-2.001V25.994
			v-12v-2H58.006z"/>
	</g>
</g>
<g id="Shape_1_">
	<g>
		<path style="fill-rule:evenodd;clip-rule:evenodd;fill:#B3B3B3;" d="M48.006,34.994c0-1.851-3.023-3.462-7.506-4.326
			c1.492-4.314,1.608-7.738,0.005-8.664c-1.614-0.932-4.551,0.911-7.564,4.409c-2.917-3.345-5.746-5.096-7.31-4.192
			s-1.462,4.229-0.025,8.428c-4.536,0.86-7.601,2.481-7.601,4.346c0,1.851,3.023,3.463,7.505,4.327
			c-1.492,4.314-1.607,7.738-0.005,8.664c1.614,0.932,4.552-0.911,7.564-4.409c2.917,3.344,5.746,5.095,7.31,4.191
			s1.462-4.229,0.025-8.427C44.94,38.48,48.006,36.858,48.006,34.994z M38.506,25.468c0.834,0.481,0.739,2.355-0.079,4.869
			c-0.863-0.111-1.761-0.198-2.692-0.255c-0.482-0.722-0.974-1.401-1.467-2.045C36.061,26.029,37.663,24.98,38.506,25.468z
			 M37.46,37.271c0.064,0.149,0.122,0.293,0.183,0.44c-0.156,0.02-0.312,0.04-0.472,0.059c0.055-0.094,0.111-0.183,0.166-0.276
			C37.379,37.42,37.417,37.346,37.46,37.271z M35.604,36.495c-0.291,0.505-0.589,0.988-0.889,1.459
			c-0.558,0.024-1.126,0.04-1.709,0.04c-0.562,0-1.109-0.016-1.647-0.037c-0.306-0.479-0.61-0.974-0.907-1.488
			s-0.573-1.024-0.835-1.529c0.25-0.478,0.51-0.959,0.791-1.445c0.292-0.505,0.589-0.988,0.889-1.46
			c0.558-0.024,1.126-0.04,1.709-0.04c0.562,0,1.108,0.015,1.647,0.037c0.306,0.479,0.61,0.974,0.907,1.488s0.573,1.024,0.835,1.529
			C36.145,35.527,35.884,36.009,35.604,36.495z M33.327,39.989c-0.096,0.131-0.191,0.255-0.287,0.38
			c-0.097-0.126-0.193-0.248-0.29-0.378c0.086,0,0.169,0.004,0.255,0.004C33.114,39.995,33.219,39.99,33.327,39.989z M28.748,37.452
			c0.064,0.112,0.132,0.218,0.197,0.328c-0.215-0.023-0.425-0.049-0.633-0.076c0.081-0.194,0.163-0.389,0.251-0.587
			C28.625,37.229,28.684,37.34,28.748,37.452z M28.551,32.718c-0.064-0.149-0.122-0.294-0.183-0.441
			c0.157-0.02,0.312-0.04,0.473-0.058c-0.055,0.093-0.111,0.182-0.166,0.275C28.632,32.568,28.594,32.643,28.551,32.718z
			 M32.683,30.001c0.096-0.131,0.192-0.256,0.288-0.382c0.097,0.127,0.194,0.249,0.291,0.38c-0.086,0-0.169-0.004-0.256-0.004
			C32.897,29.995,32.792,30,32.683,30.001z M37.263,32.537c-0.065-0.112-0.132-0.219-0.198-0.329
			c0.216,0.023,0.426,0.049,0.634,0.076c-0.081,0.194-0.164,0.389-0.251,0.587C37.386,32.76,37.328,32.648,37.263,32.537z
			 M27.598,25.628c0.811-0.468,2.333,0.504,4.047,2.392c-0.496,0.651-0.989,1.339-1.474,2.067c-0.873,0.056-1.713,0.139-2.525,0.242
			C26.868,27.9,26.787,26.096,27.598,25.628z M22.006,34.994c0-0.974,1.708-1.836,4.343-2.384c0.311,0.748,0.653,1.513,1.037,2.291
			c-0.417,0.835-0.791,1.656-1.125,2.459C23.675,36.812,22.006,35.957,22.006,34.994z M27.506,44.521
			c-0.834-0.481-0.739-2.354,0.078-4.867c0.863,0.111,1.762,0.198,2.693,0.255c0.482,0.721,0.973,1.399,1.466,2.043
			C29.95,43.959,28.349,45.008,27.506,44.521z M38.414,44.36c-0.811,0.469-2.333-0.503-4.047-2.392
			c0.496-0.651,0.988-1.338,1.473-2.065c0.873-0.056,1.714-0.139,2.526-0.243C39.144,42.089,39.224,43.893,38.414,44.36z
			 M39.662,37.379c-0.311-0.749-0.653-1.514-1.036-2.291c0.416-0.836,0.791-1.657,1.125-2.46c2.585,0.549,4.255,1.403,4.255,2.366
			C44.006,35.968,42.297,36.831,39.662,37.379z"/>
	</g>
</g>
<g id="Atom">
	<g>
		<circle style="fill:#465966;" cx="33.006" cy="34.995" r="1"/>
	</g>
</g>
<g id="Btns_55_">
	<g>
		<path style="fill-rule:evenodd;clip-rule:evenodd;fill:#FFFFFF;" d="M46.005,3.994c-0.007,0-0.013,0.002-0.02,0.002H6.006
			c-1.104,0-2,0.896-2,2s0.896,2,2,2h40c1.104,0,2-0.896,2-2c0-0.001,0-0.001,0-0.001C48.006,4.89,47.11,3.994,46.005,3.994z
			 M52.006,3.994c-1.105,0-2,0.896-2,2.001c0,1.104,0.895,2,2,2c1.104,0,2-0.896,2-2C54.006,4.89,53.11,3.994,52.006,3.994z
			 M58.006,3.994c-1.104,0-2,0.896-2,2.001c0,1.104,0.896,2,2,2s2-0.896,2-2C60.006,4.89,59.11,3.994,58.006,3.994z"/>
	</g>
</g>
<g>
</g>
<g>
</g>
<g>
</g>
<g>
</g>
<g>
</g>
<g>
</g>
<g>
</g>
<g>
</g>
<g>
</g>
<g>
</g>
<g>
</g>
<g>
</g>
<g>
</g>
<g>
</g>
<g>
</g>
</svg>
