<?xml version="1.0" encoding="iso-8859-1"?>
<!-- Generator: Adobe Illustrator 16.0.0, SVG Export Plug-In . SVG Version: 6.00 Build 0)  -->
<!DOCTYPE svg PUBLIC "-//W3C//DTD SVG 1.1//EN" "http://www.w3.org/Graphics/SVG/1.1/DTD/svg11.dtd">
<svg version="1.1" id="Layer_1" xmlns="http://www.w3.org/2000/svg" xmlns:xlink="http://www.w3.org/1999/xlink" x="0px" y="0px"
	 width="64.006px" height="64.046px" viewBox="0 0 64.006 64.046" style="enable-background:new 0 0 64.006 64.046;"
	 xml:space="preserve">
<g id="Bar_27_">
	<g>
		<path style="fill:#CCCCCC;" d="M60.307,0.002C60.303,0.002,60.3,0,60.296,0H3.71C3.707,0,3.703,0.002,3.699,0.002
			C1.655,0.008,0,1.615,0,3.598v6.395v50.341c0,2.05,1.661,3.713,3.71,3.713h56.585c2.049,0,3.71-1.663,3.71-3.713V9.992V3.598
			C64.006,1.615,62.351,0.008,60.307,0.002z"/>
	</g>
</g>
<g id="Container_26_">
	<g>
		<path style="fill:#FFFFFF;" d="M58.006,12.006h-52h-2v2.002V26.02v32.03c0,1.106,0.895,2.003,2,2.003h52c1.104,0,2-0.896,2-2.003
			V26.02V14.008v-2.002H58.006z"/>
	</g>
</g>
<g id="Text">
	<g>
		<path style="fill-rule:evenodd;clip-rule:evenodd;fill:#999999;" d="M47.606,45.172c0.424-0.698,0.686-1.493,0.686-2.353
			c0-2.651-2.303-4.8-5.143-4.8H39.72c-0.947,0-1.714,0.716-1.714,1.6v12.8c0,0.884,0.767,1.601,1.714,1.601h5.143
			c2.84,0,5.143-2.149,5.143-4.801C50.005,47.512,49.044,46.022,47.606,45.172z M41.434,41.219h1.714
			c0.947,0,1.714,0.717,1.714,1.601s-0.768,1.6-1.714,1.6h-1.714V41.219z M44.863,50.819h-3.429v-3.2h3.429
			c0.947,0,1.714,0.717,1.714,1.6C46.577,50.103,45.81,50.819,44.863,50.819z M39.056,33.883c0.819,0.317,1.725-0.133,2.023-1.003
			l0.284-0.86h5.298l0.271,0.816c0.298,0.866,1.204,1.313,2.024,0.998c0.819-0.315,1.242-1.273,0.943-2.139l-4.32-12.543
			c-0.298-0.866-0.964-1.133-1.573-1.133c-0.61,0-1.275,0.219-1.574,1.09l-4.32,12.621C37.813,32.603,38.236,33.565,39.056,33.883z
			 M44.006,24.02l1.991,6h-3.973L44.006,24.02z"/>
	</g>
</g>
<g id="Normal">
	<g>
		<path style="fill-rule:evenodd;clip-rule:evenodd;fill:#CCCCCC;" d="M24.005,38.02h-8c-2.209,0-4,1.79-4,4v8c0,2.209,1.791,4,4,4
			h8c2.209,0,4-1.791,4-4v-8C28.005,39.81,26.215,38.02,24.005,38.02z M24.005,48.02c0,1.104-0.896,2-2,2h-4c-1.104,0-2-0.896-2-2
			v-4c0-1.105,0.895-2,2-2h4c1.104,0,2,0.895,2,2V48.02z"/>
	</g>
</g>
<g id="Active">
	<g>
		<path style="fill-rule:evenodd;clip-rule:evenodd;fill:#48A0DC;" d="M24.005,18.02h-8c-2.209,0-4,1.791-4,4v8
			c0,2.209,1.791,3.999,4,3.999h8c2.209,0,4-1.79,4-3.999v-8C28.005,19.811,26.215,18.02,24.005,18.02z M23.702,24.275l-3.994,5.27
			c-0.305,0.402-0.754,0.485-1.125,0.266c-0.132-0.066-0.257-0.165-0.363-0.306l-1.92-2.541c-0.403-0.533-0.403-1.397,0-1.931
			c0.403-0.533,1.057-0.533,1.46,0l1.255,1.66l3.26-4.302c0.395-0.521,1.033-0.521,1.427,0S24.096,23.755,23.702,24.275z"/>
	</g>
</g>
<g id="Btns_23_">
	<g>
		<path style="fill-rule:evenodd;clip-rule:evenodd;fill:#FFFFFF;" d="M46.005,3.999c-0.07,0-0.135,0.014-0.203,0.021H6.006
			c-1.104,0-2,0.896-2,2s0.896,2,2,2h40c1.104,0,2-0.896,2-2c0-0.003-0.001-0.006-0.001-0.009s0.001-0.006,0.001-0.009
			C48.006,4.895,47.11,3.999,46.005,3.999z M52.006,3.999c-1.105,0-2,0.896-2,2.003c0,1.104,0.895,2.001,2,2.001
			c1.104,0,2-0.896,2-2.001C54.006,4.895,53.11,3.999,52.006,3.999z M58.006,3.999c-1.104,0-2,0.896-2,2.003
			c0,1.104,0.896,2.001,2,2.001s2-0.896,2-2.001C60.006,4.895,59.11,3.999,58.006,3.999z"/>
	</g>
</g>
<g>
</g>
<g>
</g>
<g>
</g>
<g>
</g>
<g>
</g>
<g>
</g>
<g>
</g>
<g>
</g>
<g>
</g>
<g>
</g>
<g>
</g>
<g>
</g>
<g>
</g>
<g>
</g>
<g>
</g>
</svg>
