<?xml version="1.0" encoding="iso-8859-1"?>
<!-- Generator: Adobe Illustrator 16.0.0, SVG Export Plug-In . SVG Version: 6.00 Build 0)  -->
<!DOCTYPE svg PUBLIC "-//W3C//DTD SVG 1.1//EN" "http://www.w3.org/Graphics/SVG/1.1/DTD/svg11.dtd">
<svg version="1.1" id="Layer_1" xmlns="http://www.w3.org/2000/svg" xmlns:xlink="http://www.w3.org/1999/xlink" x="0px" y="0px"
	 width="64.006px" height="63.983px" viewBox="0 0 64.006 63.983" style="enable-background:new 0 0 64.006 63.983;"
	 xml:space="preserve">
<g id="Bar_37_">
	<g>
		<path style="fill:#CCCCCC;" d="M60.307,0.002C60.303,0.002,60.3,0,60.296,0H3.71C3.706,0,3.703,0.002,3.699,0.002
			C1.655,0.009,0,1.613,0,3.594v6.39v50.291c0,2.048,1.661,3.709,3.71,3.709h56.586c2.049,0,3.71-1.661,3.71-3.709V9.983v-6.39
			C64.006,1.613,62.351,0.009,60.307,0.002z"/>
	</g>
</g>
<g id="Container_36_">
	<g>
		<path style="fill:#FFFFFF;" d="M58.006,11.994h-52h-2v2v12v31.999c0,1.104,0.896,2.001,2,2.001h52c1.104,0,2-0.896,2-2.001V25.994
			v-12v-2H58.006z"/>
	</g>
</g>
<g id="Cloud">
	<g>
		<path style="fill-rule:evenodd;clip-rule:evenodd;fill:#48A0DC;" d="M41.988,34.337c0.005-0.114,0.018-0.228,0.018-0.343
			c0-4.418-3.582-8-8-8c-3.11,0-5.8,1.779-7.123,4.371c-0.58-0.235-1.212-0.371-1.877-0.371c-2.762,0-5,2.238-5,5.001
			c0,0.168,0.033,0.327,0.05,0.49c-1.254,1.101-2.05,2.71-2.05,4.509c0,3.314,2.686,6.001,6,6.001h16c3.313,0,6-2.687,6-6.001
			C46.006,37.377,44.326,35.156,41.988,34.337z"/>
	</g>
</g>
<g id="Btns_33_">
	<g>
		<path style="fill-rule:evenodd;clip-rule:evenodd;fill:#FFFFFF;" d="M46.006,3.995c-0.003,0-0.007,0.001-0.01,0.001H6.006
			c-1.104,0-2,0.896-2,2s0.896,2,2,2h40c1.104,0,2-0.896,2-2C48.006,4.891,47.11,3.995,46.006,3.995z M52.006,3.995
			c-1.104,0-2,0.896-2,2.001c0,1.104,0.896,1.999,2,1.999s2-0.896,2-1.999C54.006,4.891,53.11,3.995,52.006,3.995z M58.006,3.995
			c-1.104,0-2,0.896-2,2.001c0,1.104,0.896,1.999,2,1.999s2-0.896,2-1.999C60.006,4.891,59.11,3.995,58.006,3.995z"/>
	</g>
</g>
<g>
</g>
<g>
</g>
<g>
</g>
<g>
</g>
<g>
</g>
<g>
</g>
<g>
</g>
<g>
</g>
<g>
</g>
<g>
</g>
<g>
</g>
<g>
</g>
<g>
</g>
<g>
</g>
<g>
</g>
</svg>
