<?xml version="1.0" encoding="iso-8859-1"?>
<!-- Generator: Adobe Illustrator 16.0.0, SVG Export Plug-In . SVG Version: 6.00 Build 0)  -->
<!DOCTYPE svg PUBLIC "-//W3C//DTD SVG 1.1//EN" "http://www.w3.org/Graphics/SVG/1.1/DTD/svg11.dtd">
<svg version="1.1" id="Layer_1" xmlns="http://www.w3.org/2000/svg" xmlns:xlink="http://www.w3.org/1999/xlink" x="0px" y="0px"
	 width="64.006px" height="64.046px" viewBox="0 0 64.006 64.046" style="enable-background:new 0 0 64.006 64.046;"
	 xml:space="preserve">
<g id="Bar_31_">
	<g>
		<path style="fill:#CCCCCC;" d="M60.307,0.002C60.303,0.002,60.3,0,60.296,0H3.71C3.706,0,3.703,0.002,3.699,0.002
			C1.655,0.008,0,1.615,0,3.598v6.395v50.341c0,2.05,1.661,3.713,3.71,3.713h56.586c2.049,0,3.71-1.663,3.71-3.713V9.992V3.598
			C64.006,1.615,62.351,0.008,60.307,0.002z"/>
	</g>
</g>
<g id="Container_30_">
	<g>
		<path style="fill:#FFFFFF;" d="M58.006,12.006h-52h-2v2.002V26.02v32.03c0,1.106,0.896,2.003,2,2.003h52c1.104,0,2-0.896,2-2.003
			V26.02V14.008v-2.002H58.006z"/>
	</g>
</g>
<g id="Chain">
	<g>
		<path style="fill-rule:evenodd;clip-rule:evenodd;fill:#ED7161;" d="M20.463,38.012l-4.465,4.465
			c-2.641,2.641-2.641,6.922,0,9.563c2.641,2.642,6.923,2.642,9.563,0l4.466-4.465c2.641-2.641,2.641-6.922,0-9.563
			S23.104,35.371,20.463,38.012z M26.939,45.234l-3.719,3.719c-1.134,1.133-2.972,1.133-4.105,0c-1.134-1.134-1.134-2.972,0-4.105
			l3.719-3.719c1.134-1.134,2.972-1.134,4.105,0C28.073,42.262,28.073,44.101,26.939,45.234z M48.026,20.012
			c-2.641-2.641-6.923-2.641-9.563,0l-4.465,4.465c-2.641,2.641-2.641,6.922,0,9.563s6.923,2.641,9.563,0l4.466-4.465
			C50.667,26.934,50.667,22.652,48.026,20.012z M44.939,27.234l-3.719,3.719c-1.134,1.133-2.972,1.133-4.105,0
			c-1.134-1.134-1.134-2.972,0-4.105l3.719-3.719c1.134-1.134,2.972-1.134,4.105,0S46.073,26.1,44.939,27.234z"/>
	</g>
</g>
<g id="Link">
	<g>
		<path style="fill-rule:evenodd;clip-rule:evenodd;fill:#BA594C;" d="M30.006,34.724l-5.34,5.34c-0.896,0.896-0.896,2.347,0,3.242
			c0.895,0.896,2.347,0.896,3.242,0l5.286-5.286h-3.188V34.724z M39.292,28.68c-0.896-0.896-2.347-0.896-3.242,0l-4.044,4.044v3.296
			h3.188l4.098-4.098C40.188,31.025,40.188,29.574,39.292,28.68z"/>
	</g>
</g>
<g id="Btns_27_">
	<g>
		<path style="fill-rule:evenodd;clip-rule:evenodd;fill:#FFFFFF;" d="M46.006,3.999c-0.069,0-0.136,0.014-0.203,0.021H6.006
			c-1.104,0-2,0.896-2,2s0.896,2,2,2h40c1.104,0,2-0.896,2-2c0-0.003-0.001-0.006-0.001-0.009s0.001-0.006,0.001-0.009
			C48.006,4.895,47.11,3.999,46.006,3.999z M52.006,3.999c-1.104,0-2,0.896-2,2.003c0,1.104,0.896,2.001,2,2.001s2-0.896,2-2.001
			C54.006,4.895,53.11,3.999,52.006,3.999z M58.006,3.999c-1.104,0-2,0.896-2,2.003c0,1.104,0.896,2.001,2,2.001s2-0.896,2-2.001
			C60.006,4.895,59.11,3.999,58.006,3.999z"/>
	</g>
</g>
<g>
</g>
<g>
</g>
<g>
</g>
<g>
</g>
<g>
</g>
<g>
</g>
<g>
</g>
<g>
</g>
<g>
</g>
<g>
</g>
<g>
</g>
<g>
</g>
<g>
</g>
<g>
</g>
<g>
</g>
</svg>
