<?xml version="1.0" encoding="iso-8859-1"?>
<!-- Generator: Adobe Illustrator 16.0.0, SVG Export Plug-In . SVG Version: 6.00 Build 0)  -->
<!DOCTYPE svg PUBLIC "-//W3C//DTD SVG 1.1//EN" "http://www.w3.org/Graphics/SVG/1.1/DTD/svg11.dtd">
<svg version="1.1" id="Layer_1" xmlns="http://www.w3.org/2000/svg" xmlns:xlink="http://www.w3.org/1999/xlink" x="0px" y="0px"
	 width="64.006px" height="63.984px" viewBox="0 0 64.006 63.984" style="enable-background:new 0 0 64.006 63.984;"
	 xml:space="preserve">
<g id="Bar_55_">
	<g>
		<path style="fill:#CCCCCC;" d="M60.307,0.003C60.303,0.003,60.3,0,60.296,0H3.71C3.706,0,3.703,0.003,3.699,0.003
			C1.655,0.009,0,1.614,0,3.595v6.39v50.291c0,2.047,1.661,3.709,3.71,3.709h56.586c2.049,0,3.71-1.662,3.71-3.709V9.984v-6.39
			C64.006,1.614,62.351,0.009,60.307,0.003z"/>
	</g>
</g>
<g id="Container_54_">
	<g>
		<path style="fill:#FFFFFF;" d="M58.006,11.994h-52h-2v2v12v31.999c0,1.105,0.896,2.001,2,2.001h52c1.104,0,2-0.896,2-2.001V25.994
			v-12v-2H58.006z"/>
	</g>
</g>
<g id="Attachment">
	<g>
		<path style="fill:#ED7161;" d="M43.697,24.245c-3.049-3.042-7.993-3.042-11.042,0c0,0-12.521,12.493-13.077,13.048
			c0.066-0.065,0.271-0.271,0.654-0.652c-3.05,3.044-3.05,7.977,0,11.02c2.504,2.499,6.271,2.91,9.232,1.306
			c-1.778,0-3.626-0.601-5.459-2.97c-1.265-1.637-2.43-5.432-0.087-7.901c-0.073,0.065-0.056,0.043,0.087-0.099
			c-0.031,0.031-0.056,0.066-0.087,0.099c0.645-0.578,8.736-8.34,8.736-8.34L35.416,27c1.524-1.521,3.996-1.521,5.521,0
			c1.524,1.522,1.524,3.988,0,5.51l-2.762,2.755l-1.981,1.978l-6.3,6.286l-1.381-1.377l8.283-8.265
			c0.762-0.762,0.762-1.994-0.001-2.755c-0.762-0.76-1.998-0.76-2.761,0l-8.212,8.334c-1.255,1.891-1.049,4.463,0.62,6.128
			c1.67,1.667,4.248,1.873,6.143,0.619c0,0,1.105-0.964,0.759-0.619c0.001,0,0.001,0,0.001,0l10.352-10.329
			C46.747,32.222,46.747,27.288,43.697,24.245z"/>
	</g>
</g>
<g id="Btns_51_">
	<g>
		<path style="fill-rule:evenodd;clip-rule:evenodd;fill:#FFFFFF;" d="M46.006,3.994c-0.007,0-0.013,0.002-0.02,0.002H6.006
			c-1.104,0-2,0.896-2,2s0.896,2,2,2h40c1.104,0,2-0.896,2-2c0-0.001,0-0.001,0-0.001C48.006,4.89,47.11,3.994,46.006,3.994z
			 M52.006,3.994c-1.104,0-2,0.896-2,2.001c0,1.104,0.896,2,2,2s2-0.896,2-2C54.006,4.89,53.11,3.994,52.006,3.994z M58.006,3.994
			c-1.104,0-2,0.896-2,2.001c0,1.104,0.896,2,2,2s2-0.896,2-2C60.006,4.89,59.11,3.994,58.006,3.994z"/>
	</g>
</g>
<g>
</g>
<g>
</g>
<g>
</g>
<g>
</g>
<g>
</g>
<g>
</g>
<g>
</g>
<g>
</g>
<g>
</g>
<g>
</g>
<g>
</g>
<g>
</g>
<g>
</g>
<g>
</g>
<g>
</g>
</svg>
