<?xml version="1.0" encoding="iso-8859-1"?>
<!-- Generator: Adobe Illustrator 16.0.0, SVG Export Plug-In . SVG Version: 6.00 Build 0)  -->
<!DOCTYPE svg PUBLIC "-//W3C//DTD SVG 1.1//EN" "http://www.w3.org/Graphics/SVG/1.1/DTD/svg11.dtd">
<svg version="1.1" id="Layer_1" xmlns="http://www.w3.org/2000/svg" xmlns:xlink="http://www.w3.org/1999/xlink" x="0px" y="0px"
	 width="64.006px" height="64.046px" viewBox="0 0 64.006 64.046" style="enable-background:new 0 0 64.006 64.046;"
	 xml:space="preserve">
<g id="Bar_30_">
	<g>
		<path style="fill:#CCCCCC;" d="M60.307,0.002C60.303,0.002,60.3,0,60.296,0H3.71C3.706,0,3.703,0.002,3.699,0.002
			C1.655,0.008,0,1.615,0,3.598v6.395v50.341c0,2.05,1.661,3.713,3.71,3.713h56.586c2.049,0,3.71-1.663,3.71-3.713V9.992V3.598
			C64.006,1.615,62.351,0.008,60.307,0.002z"/>
	</g>
</g>
<g id="Container_29_">
	<g>
		<path style="fill:#FFFFFF;" d="M58.006,12.006h-52h-2v2.002V26.02v32.03c0,1.106,0.895,2.003,2,2.003h52c1.104,0,2-0.896,2-2.003
			V26.02V14.008v-2.002H58.006z"/>
	</g>
</g>
<g id="Code">
	<g>
		<path style="fill-rule:evenodd;clip-rule:evenodd;fill:#88C057;" d="M49.426,33.768l-6.015-5.255
			c-0.782-0.685-2.052-0.685-2.835,0c-0.783,0.684-0.783,1.793,0,2.477l4.597,4.017l-4.597,4.016c-0.783,0.684-0.783,1.793,0,2.477
			c0.392,0.342,0.904,0.514,1.418,0.514c0.513,0,1.026-0.172,1.417-0.514l6.015-5.254C50.208,35.561,50.208,34.451,49.426,33.768z
			 M21.411,28.513c-0.784-0.685-2.053-0.685-2.835,0l-6.014,5.255c-0.783,0.684-0.783,1.793,0,2.477l6.014,5.254
			c0.391,0.342,0.904,0.514,1.417,0.514s1.026-0.172,1.418-0.514c0.782-0.684,0.782-1.793,0-2.477l-4.597-4.016l4.597-4.017
			C22.193,30.306,22.193,29.196,21.411,28.513z M34.674,24.14c-1.05-0.352-2.21,0.146-2.592,1.112l-5.914,20.26
			c-0.382,0.967,0.159,2.035,1.208,2.387c1.05,0.352,2.209-0.146,2.591-1.113l5.915-20.259C36.264,25.56,35.723,24.491,34.674,24.14
			z"/>
	</g>
</g>
<g id="Btns_26_">
	<g>
		<path style="fill-rule:evenodd;clip-rule:evenodd;fill:#FFFFFF;" d="M46.006,3.999c-0.069,0-0.136,0.014-0.203,0.021H6.006
			c-1.104,0-2,0.896-2,2s0.896,2,2,2h40c1.104,0,2-0.896,2-2c0-0.003-0.001-0.006-0.001-0.009s0.001-0.006,0.001-0.009
			C48.006,4.895,47.11,3.999,46.006,3.999z M52.006,3.999c-1.104,0-2,0.896-2,2.003c0,1.104,0.896,2.001,2,2.001s2-0.896,2-2.001
			C54.006,4.895,53.11,3.999,52.006,3.999z M58.006,3.999c-1.104,0-2,0.896-2,2.003c0,1.104,0.896,2.001,2,2.001s2-0.896,2-2.001
			C60.006,4.895,59.11,3.999,58.006,3.999z"/>
	</g>
</g>
<g>
</g>
<g>
</g>
<g>
</g>
<g>
</g>
<g>
</g>
<g>
</g>
<g>
</g>
<g>
</g>
<g>
</g>
<g>
</g>
<g>
</g>
<g>
</g>
<g>
</g>
<g>
</g>
<g>
</g>
</svg>
