<?xml version="1.0" encoding="iso-8859-1"?>
<!-- Generator: Adobe Illustrator 16.0.0, SVG Export Plug-In . SVG Version: 6.00 Build 0)  -->
<!DOCTYPE svg PUBLIC "-//W3C//DTD SVG 1.1//EN" "http://www.w3.org/Graphics/SVG/1.1/DTD/svg11.dtd">
<svg version="1.1" id="Layer_1" xmlns="http://www.w3.org/2000/svg" xmlns:xlink="http://www.w3.org/1999/xlink" x="0px" y="0px"
	 width="64.007px" height="63.983px" viewBox="0 0 64.007 63.983" style="enable-background:new 0 0 64.007 63.983;"
	 xml:space="preserve">
<g id="Bar_88_">
	<g>
		<path style="fill:#CCCCCC;" d="M60.307,0.003C60.303,0.003,60.3,0,60.296,0H3.71C3.706,0,3.703,0.003,3.699,0.003
			C1.655,0.009,0,1.612,0,3.594v6.39v50.291c0,2.049,1.661,3.709,3.71,3.709h56.586c2.049,0,3.711-1.66,3.711-3.709V9.983v-6.39
			C64.007,1.612,62.351,0.009,60.307,0.003z"/>
	</g>
</g>
<g id="Container_88_">
	<g>
		<path style="fill:#FFFFFF;" d="M58.006,11.994h-52h-2v2v11.999v32c0,1.104,0.896,2,2,2h52c1.104,0,2-0.896,2-2v-32V13.994v-2
			H58.006z"/>
	</g>
</g>
<g id="Add">
	<g>
		<path style="fill:#48A0DC;" d="M40.006,33.993h-6v-6c0-1.104-0.896-2-2-2s-2,0.896-2,2v6h-6c-1.104,0-2,0.896-2,2
			c0,1.105,0.896,2.001,2,2.001h6v6c0,1.104,0.896,2,2,2s2-0.896,2-2v-6h6c1.104,0,2-0.896,2-2.001
			C42.006,34.889,41.11,33.993,40.006,33.993z"/>
	</g>
</g>
<g id="Btns_85_">
	<g>
		<path style="fill-rule:evenodd;clip-rule:evenodd;fill:#FFFFFF;" d="M46.006,3.994c-0.003,0-0.006,0.001-0.01,0.001H6.006
			c-1.104,0-2,0.896-2,2s0.896,2,2,2h40c0.138,0,0.273-0.014,0.403-0.041c0.911-0.187,1.597-0.993,1.597-1.959
			C48.006,4.89,47.11,3.994,46.006,3.994z M52.006,3.994c-1.104,0-2,0.896-2,2.001c0,1.104,0.896,2,2,2s2-0.896,2-2
			C54.006,4.89,53.11,3.994,52.006,3.994z M58.006,3.994c-1.104,0-2,0.896-2,2.001c0,1.104,0.896,2,2,2s2-0.896,2-2
			C60.006,4.89,59.11,3.994,58.006,3.994z"/>
	</g>
</g>
<g>
</g>
<g>
</g>
<g>
</g>
<g>
</g>
<g>
</g>
<g>
</g>
<g>
</g>
<g>
</g>
<g>
</g>
<g>
</g>
<g>
</g>
<g>
</g>
<g>
</g>
<g>
</g>
<g>
</g>
</svg>
