<?xml version="1.0" encoding="iso-8859-1"?>
<!-- Generator: Adobe Illustrator 16.0.0, SVG Export Plug-In . SVG Version: 6.00 Build 0)  -->
<!DOCTYPE svg PUBLIC "-//W3C//DTD SVG 1.1//EN" "http://www.w3.org/Graphics/SVG/1.1/DTD/svg11.dtd">
<svg version="1.1" id="Layer_1" xmlns="http://www.w3.org/2000/svg" xmlns:xlink="http://www.w3.org/1999/xlink" x="0px" y="0px"
	 width="64.006px" height="63.982px" viewBox="0 0 64.006 63.982" style="enable-background:new 0 0 64.006 63.982;"
	 xml:space="preserve">
<g id="Bg">
	<g>
		<path style="fill-rule:evenodd;clip-rule:evenodd;fill:#CCCCCC;" d="M60.307,0.001C60.303,0.001,60.3,0,60.296,0H23.71
			c-0.004,0-0.007,0.001-0.011,0.001C21.655,0.008,20,1.611,20,3.593v6.389V20H3.71c-0.004,0-0.007,0.002-0.011,0.002
			C1.655,20.007,0,21.611,0,23.592v6.39v30.291c0,2.05,1.661,3.71,3.71,3.71h36.586c2.049,0,3.71-1.66,3.71-3.71V43.983h16.29
			c2.049,0,3.71-1.662,3.71-3.71V9.981V3.593C64.006,1.611,62.351,0.008,60.307,0.001z"/>
	</g>
</g>
<g id="Container_76_">
	<g>
		<path style="fill-rule:evenodd;clip-rule:evenodd;fill:#FFFFFF;" d="M20,40.273v-8.28H6.006h-2v1.999v14.001v10
			c0,1.104,0.896,1.999,2,1.999h32c1.104,0,2-0.895,2-1.999v-10v-4.01H23.71C21.661,43.983,20,42.321,20,40.273z M58.006,11.992h-32
			h-2v2.001v13.999v10c0,1.105,0.896,2.001,2,2.001h32c1.104,0,2-0.896,2-2.001v-10V13.993v-2.001H58.006z"/>
	</g>
</g>
<g id="Btns_73_">
	<g>
		<path style="fill-rule:evenodd;clip-rule:evenodd;fill:#FFFFFF;" d="M46.006,3.992c-0.007,0-0.013,0.002-0.02,0.002h-19.98
			c-1.104,0-2,0.895-2,2c0,1.104,0.896,2,2,2h20c1.104,0,2-0.896,2-2v0v0C48.006,4.888,47.11,3.992,46.006,3.992z M52.006,3.992
			c-1.104,0-2,0.896-2,2.001c0,1.104,0.896,1.999,2,1.999s2-0.895,2-1.999C54.006,4.888,53.11,3.992,52.006,3.992z M58.006,3.992
			c-1.104,0-2,0.896-2,2.001c0,1.104,0.896,1.999,2,1.999s2-0.895,2-1.999C60.006,4.888,59.11,3.992,58.006,3.992z M18.006,23.993
			c-0.003,0-0.007,0.001-0.01,0.001h-1.99h-3.99c-0.003,0-0.007-0.001-0.01-0.001s-0.007,0.001-0.01,0.001h-5.98
			c-0.003,0-0.007-0.001-0.01-0.001c-1.104,0-2,0.896-2,2.001c0,1.104,0.896,2,2,2h10h2h2v-4h-1.99
			C18.013,23.994,18.009,23.993,18.006,23.993z"/>
	</g>
</g>
<g>
</g>
<g>
</g>
<g>
</g>
<g>
</g>
<g>
</g>
<g>
</g>
<g>
</g>
<g>
</g>
<g>
</g>
<g>
</g>
<g>
</g>
<g>
</g>
<g>
</g>
<g>
</g>
<g>
</g>
</svg>
