<?xml version="1.0" encoding="iso-8859-1"?>
<!-- Generator: Adobe Illustrator 16.0.0, SVG Export Plug-In . SVG Version: 6.00 Build 0)  -->
<!DOCTYPE svg PUBLIC "-//W3C//DTD SVG 1.1//EN" "http://www.w3.org/Graphics/SVG/1.1/DTD/svg11.dtd">
<svg version="1.1" id="Layer_1" xmlns="http://www.w3.org/2000/svg" xmlns:xlink="http://www.w3.org/1999/xlink" x="0px" y="0px"
	 width="64.006px" height="63.988px" viewBox="0 0 64.006 63.988" style="enable-background:new 0 0 64.006 63.988;"
	 xml:space="preserve">
<g id="Bar_96_">
	<g>
		<path style="fill:#CCCCCC;" d="M52.307,8.007c-0.004,0-0.007-0.002-0.011-0.002H3.71c-0.004,0-0.007,0.002-0.011,0.002
			C1.655,8.014,0,9.618,0,11.6v6.389v42.291c0,2.048,1.661,3.709,3.71,3.709h48.585c2.049,0,3.71-1.661,3.71-3.709V17.988V11.6
			C56.006,9.618,54.351,8.014,52.307,8.007z"/>
	</g>
</g>
<g id="Container_98_">
	<g>
		<path style="fill:#FFFFFF;" d="M50.005,19.998h-44h-2v2v12.001v23.999c0,1.105,0.895,2.001,2,2.001h44c1.105,0,2-0.896,2-2.001
			V33.999V21.998v-2H50.005z"/>
	</g>
</g>
<g id="Btns_95_">
	<g>
		<path style="fill-rule:evenodd;clip-rule:evenodd;fill:#FFFFFF;" d="M38.005,11.998c-0.01,0-0.019,0.003-0.029,0.003H6.006
			c-1.104,0-2,0.896-2,2s0.896,2,2,2h32c1.104,0,2-0.896,2-2V14v-0.001C40.006,12.895,39.11,11.998,38.005,11.998z M44.005,11.998
			c-1.104,0-2,0.896-2,2.001s0.895,2,2,2c1.105,0,2-0.896,2-2S45.11,11.998,44.005,11.998z M50.005,11.998c-1.104,0-2,0.896-2,2.001
			s0.895,2,2,2c1.105,0,2-0.896,2-2S51.11,11.998,50.005,11.998z"/>
	</g>
</g>
<g id="Phone_5_">
	<g>
		<path style="fill:#88C057;" d="M60.006,0h-24c-2.209,0-4,1.791-4,4.001v48c0,2.209,1.791,4,4,4h24c2.209,0,4-1.791,4-4v-48
			C64.006,1.791,62.215,0,60.006,0z"/>
	</g>
</g>
<g id="Screen__x26__Home_Btn_15_">
	<g>
		<path style="fill-rule:evenodd;clip-rule:evenodd;fill:#FFFFFF;" d="M36.006,8.001v40h24v-40H36.006z M48.006,50
			c-1.104,0-2,0.896-2,2c0,1.105,0.896,2.001,2,2.001s2-0.896,2-2.001C50.006,50.896,49.11,50,48.006,50z"/>
	</g>
</g>
<g>
</g>
<g>
</g>
<g>
</g>
<g>
</g>
<g>
</g>
<g>
</g>
<g>
</g>
<g>
</g>
<g>
</g>
<g>
</g>
<g>
</g>
<g>
</g>
<g>
</g>
<g>
</g>
<g>
</g>
</svg>
