<?xml version="1.0" encoding="iso-8859-1"?>
<!-- Generator: Adobe Illustrator 16.0.0, SVG Export Plug-In . SVG Version: 6.00 Build 0)  -->
<!DOCTYPE svg PUBLIC "-//W3C//DTD SVG 1.1//EN" "http://www.w3.org/Graphics/SVG/1.1/DTD/svg11.dtd">
<svg version="1.1" id="Layer_1" xmlns="http://www.w3.org/2000/svg" xmlns:xlink="http://www.w3.org/1999/xlink" x="0px" y="0px"
	 width="64.006px" height="63.982px" viewBox="0 0 64.006 63.982" style="enable-background:new 0 0 64.006 63.982;"
	 xml:space="preserve">
<g id="Bar_77_">
	<g>
		<path style="fill:#CCCCCC;" d="M60.307,0.001C60.303,0.001,60.3,0,60.296,0H3.71C3.706,0,3.703,0.001,3.699,0.001
			C1.655,0.008,0,1.611,0,3.593v6.389v50.291c0,2.05,1.661,3.71,3.71,3.71h56.586c2.05,0,3.71-1.66,3.71-3.71V9.981V3.593
			C64.006,1.611,62.351,0.008,60.307,0.001z"/>
	</g>
</g>
<g id="Container_77_">
	<g>
		<path style="fill:#FFFFFF;" d="M58.006,11.992h-52h-2v2.001v13.999v30.001c0,1.104,0.896,1.999,2,1.999h52
			c1.104,0,2-0.895,2-1.999V27.992V13.993v-2.001H58.006z"/>
	</g>
</g>
<g id="Opera">
	<g>
		<path style="fill:#ED7161;" d="M40.044,24.357c-2.212-1.52-4.947-2.358-8.034-2.358c-2.823,0-5.352,0.701-7.457,1.981
			c-4.052,2.445-6.546,7.017-6.546,12.875c0,7.927,5.599,15.144,13.998,15.144c8.401,0,13.999-7.217,13.999-15.144
			C46.004,31.286,43.749,26.878,40.044,24.357z M32.064,49.159c-4.857,0-5.66-7.148-5.66-12.438c0-5.708,1.098-11.925,5.605-11.925
			c4.506,0,5.597,6.285,5.597,11.994C37.606,42.08,36.923,49.159,32.064,49.159z"/>
	</g>
</g>
<g id="Btns_74_">
	<g>
		<path style="fill-rule:evenodd;clip-rule:evenodd;fill:#FFFFFF;" d="M46.006,3.992c-0.007,0-0.013,0.002-0.02,0.002H6.006
			c-1.104,0-2,0.895-2,2c0,1.104,0.896,2,2,2h40c1.104,0,2-0.896,2-2v0v0C48.006,4.888,47.11,3.992,46.006,3.992z M52.006,3.992
			c-1.104,0-2,0.896-2,2.001c0,1.104,0.896,1.999,2,1.999s2-0.895,2-1.999C54.006,4.888,53.11,3.992,52.006,3.992z M58.006,3.992
			c-1.104,0-2,0.896-2,2.001c0,1.104,0.896,1.999,2,1.999s2-0.895,2-1.999C60.006,4.888,59.11,3.992,58.006,3.992z"/>
	</g>
</g>
<g>
</g>
<g>
</g>
<g>
</g>
<g>
</g>
<g>
</g>
<g>
</g>
<g>
</g>
<g>
</g>
<g>
</g>
<g>
</g>
<g>
</g>
<g>
</g>
<g>
</g>
<g>
</g>
<g>
</g>
</svg>
