<?xml version="1.0" encoding="iso-8859-1"?>
<!-- Generator: Adobe Illustrator 16.0.0, SVG Export Plug-In . SVG Version: 6.00 Build 0)  -->
<!DOCTYPE svg PUBLIC "-//W3C//DTD SVG 1.1//EN" "http://www.w3.org/Graphics/SVG/1.1/DTD/svg11.dtd">
<svg version="1.1" id="Layer_1" xmlns="http://www.w3.org/2000/svg" xmlns:xlink="http://www.w3.org/1999/xlink" x="0px" y="0px"
	 width="64.006px" height="64.046px" viewBox="0 0 64.006 64.046" style="enable-background:new 0 0 64.006 64.046;"
	 xml:space="preserve">
<g id="Bar_11_">
	<g>
		<path style="fill:#CCCCCC;" d="M26.307,0.002C26.303,0.002,26.299,0,26.296,0H3.71C3.706,0,3.703,0.002,3.699,0.002
			C1.655,0.008,0,1.615,0,3.598v6.395v50.341c0,2.05,1.661,3.713,3.71,3.713h22.586c2.049,0,3.71-1.663,3.71-3.713V9.992V3.598
			C30.006,1.615,28.351,0.008,26.307,0.002z"/>
	</g>
</g>
<g id="Container_11_">
	<g>
		<path style="fill:#FFFFFF;" d="M24.006,12.006h-18h-2v2.002V26.02v32.03c0,1.106,0.896,2.003,2,2.003h18c1.104,0,2-0.896,2-2.003
			V26.02V14.008v-2.002H24.006z"/>
	</g>
</g>
<g id="Btns_10_">
	<g>
		<path style="fill-rule:evenodd;clip-rule:evenodd;fill:#FFFFFF;" d="M12.006,3.999c-0.069,0-0.136,0.014-0.203,0.021H6.006
			c-1.104,0-2,0.896-2,2s0.896,2,2,2h6c1.104,0,2-0.896,2-2c0-0.003-0.001-0.006-0.001-0.009s0.001-0.006,0.001-0.009
			C14.006,4.895,13.11,3.999,12.006,3.999z M18.006,3.999c-1.104,0-2,0.896-2,2.003c0,1.104,0.896,2.001,2,2.001s2-0.896,2-2.001
			C20.006,4.895,19.11,3.999,18.006,3.999z M24.006,3.999c-1.104,0-2,0.896-2,2.003c0,1.104,0.896,2.001,2,2.001s2-0.896,2-2.001
			C26.006,4.895,25.11,3.999,24.006,3.999z"/>
	</g>
</g>
<g id="Bar_12_">
	<g>
		<path style="fill:#CCCCCC;" d="M60.307,0.002C60.303,0.002,60.3,0,60.296,0H37.71c-0.004,0-0.007,0.002-0.011,0.002
			C35.655,0.008,34,1.615,34,3.598v6.395v50.341c0,2.05,1.661,3.713,3.71,3.713h22.586c2.049,0,3.71-1.663,3.71-3.713V9.992V3.598
			C64.006,1.615,62.351,0.008,60.307,0.002z"/>
	</g>
</g>
<g id="Container_12_">
	<g>
		<path style="fill:#FFFFFF;" d="M58.006,12.006h-18h-2v2.002V26.02v32.03c0,1.106,0.896,2.003,2,2.003h18c1.104,0,2-0.896,2-2.003
			V26.02V14.008v-2.002H58.006z"/>
	</g>
</g>
<g id="Btns_11_">
	<g>
		<path style="fill-rule:evenodd;clip-rule:evenodd;fill:#FFFFFF;" d="M46.006,3.999c-0.069,0-0.136,0.014-0.203,0.021h-5.797
			c-1.104,0-2,0.896-2,2s0.896,2,2,2h6c1.104,0,2-0.896,2-2c0-0.003-0.001-0.006-0.001-0.009s0.001-0.006,0.001-0.009
			C48.006,4.895,47.11,3.999,46.006,3.999z M52.006,3.999c-1.104,0-2,0.896-2,2.003c0,1.104,0.896,2.001,2,2.001s2-0.896,2-2.001
			C54.006,4.895,53.11,3.999,52.006,3.999z M58.006,3.999c-1.104,0-2,0.896-2,2.003c0,1.104,0.896,2.001,2,2.001s2-0.896,2-2.001
			C60.006,4.895,59.11,3.999,58.006,3.999z"/>
	</g>
</g>
<g>
</g>
<g>
</g>
<g>
</g>
<g>
</g>
<g>
</g>
<g>
</g>
<g>
</g>
<g>
</g>
<g>
</g>
<g>
</g>
<g>
</g>
<g>
</g>
<g>
</g>
<g>
</g>
<g>
</g>
</svg>
