<?xml version="1.0" encoding="iso-8859-1"?>
<!-- Generator: Adobe Illustrator 16.0.0, SVG Export Plug-In . SVG Version: 6.00 Build 0)  -->
<!DOCTYPE svg PUBLIC "-//W3C//DTD SVG 1.1//EN" "http://www.w3.org/Graphics/SVG/1.1/DTD/svg11.dtd">
<svg version="1.1" id="Layer_1" xmlns="http://www.w3.org/2000/svg" xmlns:xlink="http://www.w3.org/1999/xlink" x="0px" y="0px"
	 width="64.007px" height="63.984px" viewBox="0 0 64.007 63.984" style="enable-background:new 0 0 64.007 63.984;"
	 xml:space="preserve">
<g id="Bar_70_">
	<g>
		<path style="fill:#CCCCCC;" d="M60.307,0.003C60.303,0.003,60.3,0,60.296,0H3.71C3.706,0,3.703,0.003,3.699,0.003
			C1.655,0.009,0,1.613,0,3.594v6.39v50.291c0,2.048,1.661,3.71,3.71,3.71h56.586c2.05,0,3.711-1.662,3.711-3.71V9.983v-6.39
			C64.007,1.613,62.351,0.009,60.307,0.003z"/>
	</g>
</g>
<g id="Container_69_">
	<g>
		<path style="fill:#FFFFFF;" d="M58.006,11.993h-52h-2v2v12.001v31.999c0,1.105,0.896,2.001,2,2.001h52c1.104,0,2-0.896,2-2.001
			V25.994V13.993v-2H58.006z"/>
	</g>
</g>
<g id="Magnifier_1_">
	<g>
		<path style="fill-rule:evenodd;clip-rule:evenodd;fill:#88C057;" d="M45.339,46.126l-4.979-4.979
			c1.347-1.967,2.138-4.345,2.138-6.908c0-6.763-5.482-12.246-12.246-12.246c-6.763,0-12.245,5.483-12.245,12.246
			s5.482,12.245,12.245,12.245c2.564,0,4.942-0.791,6.909-2.138l4.979,4.979c0.884,0.884,2.316,0.884,3.2,0
			S46.223,47.011,45.339,46.126z M30.001,41.993c-4.421,0-8.004-3.584-8.004-8.004c0-4.422,3.583-8.004,8.004-8.004
			s8.005,3.582,8.005,8.004C38.006,38.409,34.422,41.993,30.001,41.993z"/>
	</g>
</g>
<g id="Btns_66_">
	<g>
		<path style="fill-rule:evenodd;clip-rule:evenodd;fill:#FFFFFF;" d="M46.006,3.993c-0.007,0-0.013,0.002-0.02,0.002H6.006
			c-1.104,0-2,0.896-2,2s0.896,2,2,2h40c1.104,0,2-0.896,2-2C48.006,4.889,47.11,3.993,46.006,3.993z M52.006,3.993
			c-1.104,0-2,0.896-2,2.002c0,1.104,0.896,1.999,2,1.999s2-0.896,2-1.999C54.006,4.889,53.11,3.993,52.006,3.993z M58.006,3.993
			c-1.104,0-2,0.896-2,2.002c0,1.104,0.896,1.999,2,1.999s2-0.896,2-1.999C60.006,4.889,59.11,3.993,58.006,3.993z"/>
	</g>
</g>
<g>
</g>
<g>
</g>
<g>
</g>
<g>
</g>
<g>
</g>
<g>
</g>
<g>
</g>
<g>
</g>
<g>
</g>
<g>
</g>
<g>
</g>
<g>
</g>
<g>
</g>
<g>
</g>
<g>
</g>
</svg>
