<?xml version="1.0" encoding="iso-8859-1"?>
<!-- Generator: Adobe Illustrator 16.0.0, SVG Export Plug-In . SVG Version: 6.00 Build 0)  -->
<!DOCTYPE svg PUBLIC "-//W3C//DTD SVG 1.1//EN" "http://www.w3.org/Graphics/SVG/1.1/DTD/svg11.dtd">
<svg version="1.1" id="Layer_1" xmlns="http://www.w3.org/2000/svg" xmlns:xlink="http://www.w3.org/1999/xlink" x="0px" y="0px"
	 width="64.006px" height="64.046px" viewBox="0 0 64.006 64.046" style="enable-background:new 0 0 64.006 64.046;"
	 xml:space="preserve">
<g id="Bar_8_">
	<g>
		<path style="fill-rule:evenodd;clip-rule:evenodd;fill:#CCCCCC;" d="M26.307,0.002C26.303,0.002,26.299,0,26.295,0H3.71
			C3.707,0,3.703,0.002,3.699,0.002C1.655,0.008,0,1.615,0,3.598v6.395v16.342c0,2.049,1.661,3.712,3.71,3.712h22.585
			c2.049,0,3.711-1.663,3.711-3.712V9.992V3.598C30.006,1.615,28.351,0.008,26.307,0.002z M60.307,0.002
			C60.303,0.002,60.3,0,60.296,0H37.71c-0.003,0-0.007,0.002-0.011,0.002C35.655,0.008,34,1.615,34,3.598v6.395v16.342
			c0,2.049,1.662,3.712,3.71,3.712h22.586c2.049,0,3.71-1.663,3.71-3.712V9.992V3.598C64.006,1.615,62.351,0.008,60.307,0.002z
			 M26.307,34.002c-0.004,0-0.007-0.002-0.011-0.002H3.71c-0.004,0-0.007,0.002-0.011,0.002C1.655,34.008,0,35.615,0,37.598v6.395
			v16.341c0,2.05,1.661,3.713,3.71,3.713h22.585c2.049,0,3.711-1.663,3.711-3.713V43.992v-6.395
			C30.006,35.615,28.351,34.008,26.307,34.002z M60.307,34.002C60.303,34.002,60.3,34,60.296,34H37.71
			c-0.003,0-0.007,0.002-0.011,0.002c-2.044,0.006-3.7,1.613-3.7,3.596v6.395v16.341c0,2.05,1.662,3.713,3.71,3.713h22.586
			c2.049,0,3.71-1.663,3.71-3.713V43.992v-6.395C64.006,35.615,62.351,34.008,60.307,34.002z"/>
	</g>
</g>
<g id="Container_8_">
	<g>
		<path style="fill-rule:evenodd;clip-rule:evenodd;fill:#FFFFFF;" d="M6.006,12.006h-2v2.002V24.05c0,1.106,0.895,2.003,2,2.003h18
			c1.105,0,2-0.896,2-2.003V14.008v-2.002h-2H6.006z M58.006,12.006h-18h-2v2.002V24.05c0,1.106,0.896,2.003,2,2.003h18
			c1.104,0,2-0.896,2-2.003V14.008v-2.002H58.006z M6.006,46.006h-2v2.002V58.05c0,1.106,0.895,2.003,2,2.003h18
			c1.105,0,2-0.896,2-2.003V48.008v-2.002h-2H6.006z M40.006,46.006h-2v2.002V58.05c0,1.106,0.896,2.003,2,2.003h18
			c1.104,0,2-0.896,2-2.003V48.008v-2.002h-2H40.006z"/>
	</g>
</g>
<g id="Btns_7_">
	<g>
		<path style="fill-rule:evenodd;clip-rule:evenodd;fill:#FFFFFF;" d="M12.006,3.998c-0.073,0-0.142,0.014-0.213,0.021H6.006
			c-1.104,0-2,0.896-2,2c0,1.104,0.896,2,2,2h6c1.104,0,2-0.896,2-2c0-0.003-0.001-0.006-0.001-0.009s0.001-0.006,0.001-0.009
			C14.006,4.895,13.11,3.998,12.006,3.998z M18.006,3.998c-1.104,0-2,0.896-2,2.004c0,1.104,0.896,2.001,2,2.001s2-0.896,2-2.001
			C20.006,4.895,19.11,3.998,18.006,3.998z M24.006,3.998c-1.104,0-2,0.896-2,2.004c0,1.104,0.896,2.001,2,2.001s2-0.896,2-2.001
			C26.006,4.895,25.11,3.998,24.006,3.998z M46.005,3.998c-0.073,0-0.142,0.014-0.212,0.021h-5.787c-1.104,0-2,0.896-2,2
			c0,1.104,0.896,2,2,2h6c1.104,0,2-0.896,2-2c0-0.003-0.001-0.006-0.001-0.009s0.001-0.006,0.001-0.009
			C48.006,4.895,47.11,3.998,46.005,3.998z M52.006,3.998c-1.105,0-2,0.896-2,2.004c0,1.104,0.895,2.001,2,2.001
			c1.104,0,2-0.896,2-2.001C54.006,4.895,53.11,3.998,52.006,3.998z M58.006,8.003c1.104,0,2-0.896,2-2.001
			c0-1.107-0.896-2.004-2-2.004s-2,0.896-2,2.004C56.006,7.106,56.901,8.003,58.006,8.003z M12.006,37.999
			c-0.07,0-0.136,0.014-0.203,0.021H6.006c-1.104,0-2,0.896-2,2s0.896,2,2,2h6c1.104,0,2-0.896,2-2c0-0.003-0.001-0.006-0.001-0.009
			s0.001-0.006,0.001-0.009C14.006,38.895,13.11,37.999,12.006,37.999z M18.006,37.999c-1.104,0-2,0.896-2,2.003
			c0,1.104,0.896,2.001,2,2.001s2-0.896,2-2.001C20.006,38.895,19.11,37.999,18.006,37.999z M24.006,37.999
			c-1.104,0-2,0.896-2,2.003c0,1.104,0.896,2.001,2,2.001s2-0.896,2-2.001C26.006,38.895,25.11,37.999,24.006,37.999z
			 M46.005,37.999c-0.07,0-0.135,0.014-0.203,0.021h-5.796c-1.104,0-2,0.896-2,2s0.896,2,2,2h6c1.104,0,2-0.896,2-2
			c0-0.003-0.001-0.006-0.001-0.009s0.001-0.006,0.001-0.009C48.006,38.895,47.11,37.999,46.005,37.999z M52.006,37.999
			c-1.105,0-2,0.896-2,2.003c0,1.104,0.895,2.001,2,2.001c1.104,0,2-0.896,2-2.001C54.006,38.895,53.11,37.999,52.006,37.999z
			 M58.006,37.999c-1.104,0-2,0.896-2,2.003c0,1.104,0.896,2.001,2,2.001s2-0.896,2-2.001C60.006,38.895,59.11,37.999,58.006,37.999
			z"/>
	</g>
</g>
<g>
</g>
<g>
</g>
<g>
</g>
<g>
</g>
<g>
</g>
<g>
</g>
<g>
</g>
<g>
</g>
<g>
</g>
<g>
</g>
<g>
</g>
<g>
</g>
<g>
</g>
<g>
</g>
<g>
</g>
</svg>
