<?xml version="1.0" encoding="iso-8859-1"?>
<!-- Generator: Adobe Illustrator 16.0.0, SVG Export Plug-In . SVG Version: 6.00 Build 0)  -->
<!DOCTYPE svg PUBLIC "-//W3C//DTD SVG 1.1//EN" "http://www.w3.org/Graphics/SVG/1.1/DTD/svg11.dtd">
<svg version="1.1" id="Layer_1" xmlns="http://www.w3.org/2000/svg" xmlns:xlink="http://www.w3.org/1999/xlink" x="0px" y="0px"
	 width="64.007px" height="63.984px" viewBox="0 0 64.007 63.984" style="enable-background:new 0 0 64.007 63.984;"
	 xml:space="preserve">
<g id="Bar_57_">
	<g>
		<path style="fill:#CCCCCC;" d="M60.307,0.003C60.303,0.003,60.3,0,60.296,0H3.71C3.706,0,3.703,0.003,3.699,0.003
			C1.655,0.009,0,1.614,0,3.595v6.39v50.291c0,2.047,1.661,3.709,3.71,3.709h56.586c2.049,0,3.711-1.662,3.711-3.709V9.984v-6.39
			C64.007,1.614,62.351,0.009,60.307,0.003z"/>
	</g>
</g>
<g id="Container_56_">
	<g>
		<path style="fill:#FFFFFF;" d="M58.006,11.994h-52h-2v2v12v31.999c0,1.105,0.896,2.001,2,2.001h52c1.104,0,2-0.896,2-2.001V25.994
			v-12v-2H58.006z"/>
	</g>
</g>
<g id="Pin_3_">
	<g>
		<path style="fill-rule:evenodd;clip-rule:evenodd;fill:#48A0DC;" d="M33.005,21.991c-6.072,0-10.995,4.741-10.995,10.589
			c0,0.113,0.055,2.836,1,4.776c2.708,6.017,9.985,12.679,9.995,12.643c0.011,0.023,7.258-6.602,9.979-12.606
			c0.808-1.423,1.016-4.58,1.016-4.813C43.999,26.732,39.077,21.991,33.005,21.991z M33.006,35.995c-1.701,0-3.08-1.372-3.08-3.063
			c0-1.692,1.379-3.062,3.08-3.062s3.08,1.369,3.08,3.062C36.086,34.623,34.707,35.995,33.006,35.995z"/>
	</g>
</g>
<g id="Btns_53_">
	<g>
		<path style="fill-rule:evenodd;clip-rule:evenodd;fill:#FFFFFF;" d="M46.006,3.994c-0.007,0-0.013,0.002-0.02,0.002H6.006
			c-1.104,0-2,0.896-2,2s0.896,2,2,2h40c1.104,0,2-0.896,2-2c0-0.001,0-0.001,0-0.001C48.006,4.89,47.11,3.994,46.006,3.994z
			 M52.006,3.994c-1.104,0-2,0.896-2,2.001c0,1.104,0.896,2,2,2s2-0.896,2-2C54.006,4.89,53.11,3.994,52.006,3.994z M58.006,3.994
			c-1.104,0-2,0.896-2,2.001c0,1.104,0.896,2,2,2s2-0.896,2-2C60.006,4.89,59.11,3.994,58.006,3.994z"/>
	</g>
</g>
<g>
</g>
<g>
</g>
<g>
</g>
<g>
</g>
<g>
</g>
<g>
</g>
<g>
</g>
<g>
</g>
<g>
</g>
<g>
</g>
<g>
</g>
<g>
</g>
<g>
</g>
<g>
</g>
<g>
</g>
</svg>
