<?xml version="1.0" encoding="iso-8859-1"?>
<!-- Generator: Adobe Illustrator 16.0.0, SVG Export Plug-In . SVG Version: 6.00 Build 0)  -->
<!DOCTYPE svg PUBLIC "-//W3C//DTD SVG 1.1//EN" "http://www.w3.org/Graphics/SVG/1.1/DTD/svg11.dtd">
<svg version="1.1" id="Layer_1" xmlns="http://www.w3.org/2000/svg" xmlns:xlink="http://www.w3.org/1999/xlink" x="0px" y="0px"
	 width="64.006px" height="63.983px" viewBox="0 0 64.006 63.983" style="enable-background:new 0 0 64.006 63.983;"
	 xml:space="preserve">
<g id="Bar_36_">
	<g>
		<path style="fill:#CCCCCC;" d="M60.307,0.002C60.303,0.002,60.3,0,60.296,0H3.71C3.706,0,3.703,0.002,3.699,0.002
			C1.655,0.009,0,1.613,0,3.594v6.39v50.291c0,2.048,1.661,3.709,3.71,3.709h56.586c2.049,0,3.71-1.661,3.71-3.709V9.983v-6.39
			C64.006,1.613,62.351,0.009,60.307,0.002z"/>
	</g>
</g>
<g id="Container_35_">
	<g>
		<path style="fill:#FFFFFF;" d="M58.006,11.994h-52h-2v2v12v31.999c0,1.104,0.896,2.001,2,2.001h52c1.104,0,2-0.896,2-2.001V25.994
			v-12v-2H58.006z"/>
	</g>
</g>
<g id="Home">
	<g>
		<path style="fill-rule:evenodd;clip-rule:evenodd;fill:#48A0DC;" d="M40.006,37.993c-1.104,0-2,0.896-2,2v6h-12v-6
			c0-1.104-0.896-2-2-2s-2,0.896-2,2v8c0,1.104,0.896,2,2,2h16c1.104,0,2-0.896,2-2v-8C42.006,38.889,41.11,37.993,40.006,37.993z
			 M45.427,34.394L33.605,22.571c-0.439-0.438-1.025-0.633-1.6-0.6c-0.575-0.033-1.16,0.161-1.6,0.6L18.585,34.394
			c-0.816,0.817-0.816,2.14,0,2.955c0.815,0.817,2.139,0.817,2.955,0l10.466-10.466l10.466,10.466c0.815,0.817,2.14,0.817,2.955,0
			C46.243,36.533,46.243,35.211,45.427,34.394z"/>
	</g>
</g>
<g id="Btns_32_">
	<g>
		<path style="fill-rule:evenodd;clip-rule:evenodd;fill:#FFFFFF;" d="M46.006,3.995c-0.003,0-0.006,0.001-0.01,0.001H6.006
			c-1.104,0-2,0.896-2,2s0.896,2,2,2h40c1.104,0,2-0.896,2-2C48.006,4.891,47.11,3.995,46.006,3.995z M52.006,3.995
			c-1.104,0-2,0.896-2,2.001c0,1.104,0.896,1.999,2,1.999s2-0.896,2-1.999C54.006,4.891,53.11,3.995,52.006,3.995z M58.006,3.995
			c-1.104,0-2,0.896-2,2.001c0,1.104,0.896,1.999,2,1.999s2-0.896,2-1.999C60.006,4.891,59.11,3.995,58.006,3.995z"/>
	</g>
</g>
<g>
</g>
<g>
</g>
<g>
</g>
<g>
</g>
<g>
</g>
<g>
</g>
<g>
</g>
<g>
</g>
<g>
</g>
<g>
</g>
<g>
</g>
<g>
</g>
<g>
</g>
<g>
</g>
<g>
</g>
</svg>
