<?xml version="1.0" encoding="iso-8859-1"?>
<!-- Generator: Adobe Illustrator 16.0.0, SVG Export Plug-In . SVG Version: 6.00 Build 0)  -->
<!DOCTYPE svg PUBLIC "-//W3C//DTD SVG 1.1//EN" "http://www.w3.org/Graphics/SVG/1.1/DTD/svg11.dtd">
<svg version="1.1" id="Layer_1" xmlns="http://www.w3.org/2000/svg" xmlns:xlink="http://www.w3.org/1999/xlink" x="0px" y="0px"
	 width="64.006px" height="64.046px" viewBox="0 0 64.006 64.046" style="enable-background:new 0 0 64.006 64.046;"
	 xml:space="preserve">
<g id="Bar_33_">
	<g>
		<path style="fill:#CCCCCC;" d="M60.307,0.002C60.303,0.002,60.3,0,60.296,0H3.71C3.706,0,3.703,0.002,3.699,0.002
			C1.655,0.008,0,1.615,0,3.598v6.395v50.341c0,2.05,1.661,3.713,3.71,3.713h56.586c2.049,0,3.71-1.663,3.71-3.713V9.992V3.598
			C64.006,1.615,62.351,0.008,60.307,0.002z"/>
	</g>
</g>
<g id="Container_32_">
	<g>
		<path style="fill:#FFFFFF;" d="M58.006,12.006h-52h-2v2.002V26.02v32.03c0,1.106,0.896,2.003,2,2.003h52c1.104,0,2-0.896,2-2.003
			V26.02V14.008v-2.002H58.006z"/>
	</g>
</g>
<g id="Water">
	<g>
		<circle style="fill:#48A0DC;" cx="32.006" cy="36.02" r="20"/>
	</g>
</g>
<g id="Land">
	<g>
		<path style="fill:#FFCC66;" d="M38.102,18.734c0.57-0.216,1.146-0.419,1.713-0.643c0.189-0.075,0.395-0.14,0.584-0.223
			c-2.485-1.146-5.188-1.78-7.931-1.847c0.222,0.054,0.453,0.069,0.696,0.069c1.094-0.001,1.428,0.477,1.243,1.554
			c-0.116,0.684-0.127,1.391-0.128,2.087c-0.001,0.415,0.256,0.716,0.668,0.841c0.38,0.115,0.57-0.146,0.78-0.396
			c0.499-0.594,1.044-1.123,1.872-1.23C37.772,18.925,37.932,18.799,38.102,18.734z M39.219,23.189
			c0.31,0.078,0.728-0.151,0.811,0.369c0.093,0.586,0.379,1.07,0.745,1.547c0.511,0.668,0.186,1.342-0.645,1.493
			c-0.131,0.023-0.263,0.046-0.396,0.056c-0.693,0.051-0.722,0.092-0.811,0.788c-0.061,0.477,0.204,0.729,0.541,0.984
			c0.31,0.235,0.56,0.052,0.77-0.099c0.217-0.156,0.396-0.392,0.532-0.627c0.384-0.662,0.825-1.305,1.568-1.532
			c0.642-0.195,1.356-0.463,1.976,0.03c0.273-0.154,0.603-0.353,0.835-0.271c0.514,0.179,0.941,0.508,1.214,1.046
			c0.172,0.339,0.531,0.582,0.754,0.813c0.316-0.293,0.508-0.612,0.762-0.675c0.454-0.112,0.949-0.105,1.422-0.072
			c0.169,0.013,0.404,0.217,0.459,0.384c0.052,0.159-0.078,0.389-0.155,0.575c-0.033,0.081-0.137,0.133-0.28,0.263
			c0.413,0.063,0.722,0.118,1.032,0.153c0.057,0.007,0.105,0.016,0.156,0.023c-0.337-0.82-0.727-1.629-1.183-2.418
			c-0.793-1.373-1.727-2.611-2.769-3.718c-0.222,0.293-0.554,0.52-0.964,0.605c-0.501,0.104-0.915,0.002-1.35-0.163
			c-0.312-0.119-0.52-0.036-0.799,0.176c-0.452,0.343-0.996,0.57-1.52,0.807c-0.119,0.055-0.359-0.004-0.465-0.099
			c-0.352-0.316-0.675-0.666-0.993-1.018c-0.114-0.126-0.185-0.293-0.293-0.472C39.833,22.516,39.537,22.84,39.219,23.189z
			 M43.338,21.394c0.368,0.055,0.631,0.146,0.772,0.507c0.146,0.369,0.372,0.28,0.566,0.056c0.272-0.315,0.408-0.683,0.379-1.093
			c-0.45-0.388-0.917-0.754-1.396-1.097c-0.213,0.194-0.438,0.375-0.661,0.565c-0.163,0.141-0.373,0.48-0.314,0.574
			C42.821,21.126,43.092,21.356,43.338,21.394z M51.957,34.58c-0.017-0.027-0.033-0.055-0.049-0.082
			c-0.309-0.525-0.522-1.107-0.77-1.668c-0.073-0.166-0.163-0.343-0.167-0.516c-0.004-0.182,0.062-0.504,0.141-0.518
			c0.141-0.026,0.307-0.003,0.454,0.05c-0.112-0.525-0.248-1.049-0.404-1.569c-0.148,0.205-0.371,0.348-0.67,0.414
			c-0.849,0.188-1.688,0.129-2.501-0.188c-0.381-0.149-0.727-0.189-1.075,0.089c-0.381,0.305-0.805,0.272-1.223,0.073
			c-0.195-0.093-0.369-0.254-0.572-0.303c-0.685-0.163-1.117-0.53-1.243-1.258c-0.022-0.126-0.307-0.312-0.453-0.297
			c-1.005,0.099-2.005,0.333-3.009,0.351c-1.041,0.017-1.462,0.725-1.809,1.448c-0.242,0.504-0.538,0.89-0.943,1.246
			c-0.766,0.671-1.167,1.503-1.08,2.555c0.031,0.389-0.069,0.787-0.081,1.183c-0.011,0.342-0.106,0.768,0.054,1.013
			c0.521,0.8,1.137,1.541,1.735,2.289c0.094,0.116,0.291,0.227,0.43,0.215c0.738-0.061,1.495-0.08,2.204-0.269
			c0.729-0.193,1.386-0.369,1.989,0.252c0.086,0.09,0.229,0.133,0.353,0.176c0.912,0.322,0.991,0.404,0.959,1.361
			c-0.021,0.6,0.11,1.098,0.422,1.641c0.666,1.153,1.089,2.378,0.452,3.746c-0.165,0.354-0.171,0.919-0.003,1.267
			c0.416,0.858,0.553,1.763,0.743,2.674c0.028,0.138,0.068,0.272,0.107,0.408C50.22,46.216,52.372,40.396,51.957,34.58z
			 M33.576,42.367c-0.773-0.148-1.424-0.531-2.134-0.796c-0.635-0.236-1.093-0.61-1.253-1.304c-0.124-0.539-0.506-0.802-1.02-0.986
			c-0.488-0.175-0.967-0.429-1.384-0.738c-0.565-0.418-1.063-0.901-1.862-0.756c-0.201,0.036-0.492-0.054-0.646-0.192
			c-0.507-0.455-1.062-0.498-1.531-0.083c-0.442,0.391-1.332,0.578-0.907,1.545c0.092,0.21-0.039,0.555-0.144,0.805
			c-0.126,0.305-0.322,0.583-0.506,0.86c-0.579,0.87-0.476,1.778-0.079,2.654c0.328,0.726,0.741,1.416,1.159,2.095
			c0.175,0.283,0.423,0.566,0.707,0.727c0.995,0.566,1.529,1.353,1.417,2.53c-0.031,0.331-0.028,0.669,0,1.001
			c0.068,0.808,0.182,1.612,0.236,2.421c0.026,0.393-0.036,0.792-0.065,1.188c-0.01,0.13-0.076,0.264-0.059,0.388
			c0.06,0.426,0.123,0.851,0.201,1.272c0.716,0.238,1.444,0.437,2.184,0.592c0.188-0.695,0.583-1.36,1.105-1.761
			c0.153-0.117,0.282-0.333,0.319-0.523c0.084-0.432,0.301-0.717,0.69-0.912c0.171-0.085,0.36-0.223,0.439-0.385
			c0.299-0.622,0.675-1.242,0.799-1.904c0.155-0.838,0.652-1.245,1.35-1.508c0.827-0.313,1.15-0.64,1.104-1.496
			c-0.06-1.081,0.255-1.987,0.94-2.809c0.247-0.296,0.431-0.721,0.12-1.051C34.423,42.883,34.014,42.45,33.576,42.367z
			 M23.556,29.165c0.302-0.207,0.59-0.517,0.74-0.847c0.538-1.176,1.71-1.632,2.605-2.399c0.103-0.088,0.279-0.098,0.425-0.125
			c0.314-0.06,0.754-0.003,0.914-0.189c0.163-0.19,0.05-0.616,0.059-0.938c0.02-0.672,0.289-0.948,0.941-0.959
			c0.283-0.006,0.567-0.005,0.851,0.005c0.61,0.021,0.736,0.195,0.636,0.795c-0.019,0.115,0.05,0.298,0.141,0.363
			c0.076,0.056,0.242-0.012,0.369-0.025c-0.024-0.135-0.049-0.271-0.073-0.405c-0.054-0.296-0.158-0.594-0.148-0.887
			c0.012-0.341-0.042-0.597-0.299-0.849c-0.215-0.212-0.391-0.495-0.493-0.78c-0.101-0.275-0.242-0.387-0.51-0.348
			c-0.469,0.067-0.771-0.133-0.933-0.563c-0.125-0.333-0.376-0.419-0.707-0.438c-0.573-0.035-0.813,0.411-0.893,0.787
			c-0.201,0.946-0.977,1.447-1.487,2.146c-0.323,0.441-0.937,0.311-1.029-0.221c-0.079-0.455-0.31-0.658-0.698-0.8
			c-0.249-0.091-0.482-0.227-0.714-0.357c-0.636-0.356-0.764-1.062-0.221-1.532c0.799-0.691,1.684-1.178,2.822-0.955
			c0.217,0.042,0.633-0.114,0.704-0.284c0.281-0.678,0.919-0.952,1.41-1.382c0.366-0.319,0.998-0.235,1.34,0.073
			c0.416,0.374,0.323,0.737,0.037,1.144c-0.093,0.133-0.141,0.451-0.066,0.516c0.173,0.146,0.518,0.324,0.643,0.246
			c0.441-0.272,0.824-0.643,1.212-0.994c0.035-0.032-0.038-0.205-0.081-0.304c-0.279-0.636-0.811-0.919-1.453-1.099
			c-0.718-0.199-0.861-0.777-0.247-1.19c0.122-0.082,0.252-0.153,0.384-0.221c-0.689,0.078-1.378,0.19-2.063,0.343
			c-0.606,0.131-0.802,0.575-0.548,1.127c0.148,0.324,0.201,0.666-0.127,0.903c-0.331,0.24-0.662,0.079-0.892-0.174
			c-0.151-0.168-0.19-0.437-0.286-0.658c-0.069-0.16-0.149-0.316-0.225-0.474c-0.193,0.104-0.528,0.177-0.558,0.315
			c-0.155,0.73-0.789,0.846-1.306,1.112c-0.088,0.045-0.277,0.052-0.313,0c-0.063-0.089-0.079-0.246-0.051-0.358
			s0.059-0.226,0.091-0.341c-0.49,0.231-0.976,0.48-1.453,0.756c-4.664,2.692-7.827,6.98-9.211,11.776
			c0.494,0.798,1.167,1.483,1.712,2.254c0.229,0.323,0.322,0.741,0.481,1.115c0.088,0.207,0.133,0.468,0.286,0.606
			c0.554,0.503,1.212,0.799,1.969,0.883c0.286,0.031,0.59,0.117,0.836,0.263c0.779,0.462,1.535,0.964,2.292,1.444
			c0.288-0.629,0.229-0.785-0.431-1.086c-0.438-0.2-0.598-0.556-0.51-1.027c0.032-0.171,0.065-0.342,0.125-0.658
			c-0.251,0.208-0.385,0.322-0.522,0.431c-0.857,0.679-1.771,0.397-2.132-0.629c-0.344-0.979,0.019-1.813,0.563-2.559
			c0.854-1.171,2.23-0.802,3.399-1.028c0.157-0.031,0.354,0.08,0.517,0.157c0.189,0.09,0.361,0.216,0.606,0.367
			C22.08,29.978,22.873,29.635,23.556,29.165z M21.66,24.998c0.014-0.139,0.322-0.348,0.494-0.348
			c0.316,0.002,0.715,0.086,0.708,0.509c-0.002,0.144-0.309,0.282-0.476,0.422C21.998,25.44,21.617,25.428,21.66,24.998z"/>
	</g>
</g>
<g id="Btns_29_">
	<g>
		<path style="fill-rule:evenodd;clip-rule:evenodd;fill:#FFFFFF;" d="M46.006,3.999c-0.07,0-0.136,0.014-0.203,0.021H6.006
			c-1.104,0-2,0.896-2,2s0.896,2,2,2h40c1.104,0,2-0.896,2-2c0-0.003-0.001-0.006-0.001-0.009s0.001-0.006,0.001-0.009
			C48.006,4.895,47.11,3.999,46.006,3.999z M52.006,3.999c-1.104,0-2,0.896-2,2.003c0,1.104,0.896,2.001,2,2.001s2-0.896,2-2.001
			C54.006,4.895,53.11,3.999,52.006,3.999z M58.006,3.999c-1.104,0-2,0.896-2,2.003c0,1.104,0.896,2.001,2,2.001s2-0.896,2-2.001
			C60.006,4.895,59.11,3.999,58.006,3.999z"/>
	</g>
</g>
<g>
</g>
<g>
</g>
<g>
</g>
<g>
</g>
<g>
</g>
<g>
</g>
<g>
</g>
<g>
</g>
<g>
</g>
<g>
</g>
<g>
</g>
<g>
</g>
<g>
</g>
<g>
</g>
<g>
</g>
</svg>
