<?xml version="1.0" encoding="iso-8859-1"?>
<!-- Generator: Adobe Illustrator 16.0.0, SVG Export Plug-In . SVG Version: 6.00 Build 0)  -->
<!DOCTYPE svg PUBLIC "-//W3C//DTD SVG 1.1//EN" "http://www.w3.org/Graphics/SVG/1.1/DTD/svg11.dtd">
<svg version="1.1" id="Layer_1" xmlns="http://www.w3.org/2000/svg" xmlns:xlink="http://www.w3.org/1999/xlink" x="0px" y="0px"
	 width="64.007px" height="63.984px" viewBox="0 0 64.007 63.984" style="enable-background:new 0 0 64.007 63.984;"
	 xml:space="preserve">
<g id="Bar_54_">
	<g>
		<path style="fill:#CCCCCC;" d="M60.307,0.003C60.303,0.003,60.3,0,60.296,0H3.71C3.706,0,3.703,0.003,3.699,0.003
			C1.655,0.009,0,1.614,0,3.595v6.39v50.291c0,2.047,1.661,3.709,3.71,3.709h56.586c2.05,0,3.711-1.662,3.711-3.709V9.984v-6.39
			C64.007,1.614,62.351,0.009,60.307,0.003z"/>
	</g>
</g>
<g id="Container_53_">
	<g>
		<path style="fill:#FFFFFF;" d="M58.006,11.994h-52h-2v2v12v31.999c0,1.105,0.896,2.001,2,2.001h52c1.104,0,2-0.896,2-2.001V25.994
			v-12v-2H58.006z"/>
	</g>
</g>
<g id="base">
	<g>
		<path style="fill:#CCCCCC;" d="M51.256,23.995h-38.5c-1.519,0-2.75,1.264-2.75,2.824v18.353c0,1.56,1.231,2.823,2.75,2.823h38.5
			c1.519,0,2.75-1.264,2.75-2.823V26.819C54.006,25.259,52.774,23.995,51.256,23.995z"/>
	</g>
</g>
<g id="Controlls">
	<g>
		<path style="fill:#536A79;" d="M26.006,34.003h-2v-1.994c0-1.101-0.896-1.993-2-1.993c-1.104,0-2,0.893-2,1.993v1.994h-2
			c-1.104,0-2,0.892-2,1.993c0,1.101,0.896,1.993,2,1.993h2v1.991c0,1.101,0.896,1.993,2,1.993c1.104,0,2-0.893,2-1.993v-1.991h2
			c1.104,0,2-0.893,2-1.993C28.006,34.895,27.11,34.003,26.006,34.003z"/>
	</g>
</g>
<g id="Btn">
	<g>
		<ellipse style="fill:#ED7161;" cx="39.006" cy="38.994" rx="3" ry="2.979"/>
	</g>
</g>
<g id="Btn_1_">
	<g>
		<ellipse style="fill:#48A0DC;" cx="47.006" cy="32.998" rx="3" ry="2.979"/>
	</g>
</g>
<g id="Btns_50_">
	<g>
		<path style="fill-rule:evenodd;clip-rule:evenodd;fill:#FFFFFF;" d="M46.006,3.994c-0.007,0-0.013,0.002-0.02,0.002H6.006
			c-1.104,0-2,0.896-2,2s0.896,2,2,2h40c1.104,0,2-0.896,2-2c0-0.001,0-0.001,0-0.001C48.006,4.89,47.11,3.994,46.006,3.994z
			 M52.006,3.994c-1.104,0-2,0.896-2,2.001c0,1.104,0.896,2,2,2s2-0.896,2-2C54.006,4.89,53.11,3.994,52.006,3.994z M58.006,3.994
			c-1.104,0-2,0.896-2,2.001c0,1.104,0.896,2,2,2s2-0.896,2-2C60.006,4.89,59.11,3.994,58.006,3.994z"/>
	</g>
</g>
<g>
</g>
<g>
</g>
<g>
</g>
<g>
</g>
<g>
</g>
<g>
</g>
<g>
</g>
<g>
</g>
<g>
</g>
<g>
</g>
<g>
</g>
<g>
</g>
<g>
</g>
<g>
</g>
<g>
</g>
</svg>
