<?xml version="1.0" encoding="iso-8859-1"?>
<!-- Generator: Adobe Illustrator 16.0.0, SVG Export Plug-In . SVG Version: 6.00 Build 0)  -->
<!DOCTYPE svg PUBLIC "-//W3C//DTD SVG 1.1//EN" "http://www.w3.org/Graphics/SVG/1.1/DTD/svg11.dtd">
<svg version="1.1" id="Layer_1" xmlns="http://www.w3.org/2000/svg" xmlns:xlink="http://www.w3.org/1999/xlink" x="0px" y="0px"
	 width="64.006px" height="63.983px" viewBox="0 0 64.006 63.983" style="enable-background:new 0 0 64.006 63.983;"
	 xml:space="preserve">
<g id="Bar_40_">
	<g>
		<path style="fill:#CCCCCC;" d="M60.307,0.002C60.303,0.002,60.3,0,60.296,0H3.71C3.706,0,3.703,0.002,3.699,0.002
			C1.655,0.009,0,1.613,0,3.594v6.39v50.291c0,2.048,1.661,3.709,3.71,3.709h56.586c2.049,0,3.71-1.661,3.71-3.709V9.983v-6.39
			C64.006,1.613,62.351,0.009,60.307,0.002z"/>
	</g>
</g>
<g id="Container_39_">
	<g>
		<path style="fill:#FFFFFF;" d="M58.006,11.994h-52h-2v2v12v31.999c0,1.104,0.896,2.001,2,2.001h52c1.104,0,2-0.896,2-2.001V25.994
			v-12v-2H58.006z"/>
	</g>
</g>
<g id="Shield">
	<g>
		<path style="fill-rule:evenodd;clip-rule:evenodd;fill:#ED7161;" d="M32.006,22.646c-1.65,2.042-4.171,3.35-7,3.35
			c-1.851,0-3.57-0.561-5-1.518v3.518V38.03c0,5.536,7.984,11.964,11.925,11.964c4.2,0,12.075-6.428,12.075-11.964V27.996v-3.518
			c-1.43,0.957-3.149,1.518-5,1.518C36.177,25.996,33.656,24.688,32.006,22.646z"/>
	</g>
</g>
<g id="Remove">
	<g>
		<path style="fill-rule:evenodd;clip-rule:evenodd;fill:#FFFFFF;" d="M37.433,39.251l-2.715-2.267l2.715-2.266
			c0.746-0.623,0.746-1.633,0-2.258c-0.746-0.622-1.956-0.622-2.703,0l-2.715,2.268l-2.774-2.315c-0.749-0.628-1.964-0.628-2.713,0
			c-0.75,0.623-0.75,1.638,0,2.265l2.774,2.315l-2.718,2.27c-0.746,0.623-0.746,1.633,0,2.254c0.747,0.624,1.957,0.624,2.703,0
			l2.717-2.268l2.715,2.267c0.749,0.627,1.964,0.627,2.713,0C38.182,40.891,38.182,39.876,37.433,39.251z"/>
	</g>
</g>
<g id="Btns_36_">
	<g>
		<path style="fill-rule:evenodd;clip-rule:evenodd;fill:#FFFFFF;" d="M46.006,3.995c-0.003,0-0.006,0.001-0.01,0.001H6.006
			c-1.104,0-2,0.896-2,2s0.896,2,2,2h40c1.104,0,2-0.896,2-2C48.006,4.891,47.11,3.995,46.006,3.995z M52.006,3.995
			c-1.104,0-2,0.896-2,2.001c0,1.104,0.896,1.999,2,1.999s2-0.896,2-1.999C54.006,4.891,53.11,3.995,52.006,3.995z M58.006,3.995
			c-1.104,0-2,0.896-2,2.001c0,1.104,0.896,1.999,2,1.999s2-0.896,2-1.999C60.006,4.891,59.11,3.995,58.006,3.995z"/>
	</g>
</g>
<g>
</g>
<g>
</g>
<g>
</g>
<g>
</g>
<g>
</g>
<g>
</g>
<g>
</g>
<g>
</g>
<g>
</g>
<g>
</g>
<g>
</g>
<g>
</g>
<g>
</g>
<g>
</g>
<g>
</g>
</svg>
