<?xml version="1.0" encoding="iso-8859-1"?>
<!-- Generator: Adobe Illustrator 16.0.0, SVG Export Plug-In . SVG Version: 6.00 Build 0)  -->
<!DOCTYPE svg PUBLIC "-//W3C//DTD SVG 1.1//EN" "http://www.w3.org/Graphics/SVG/1.1/DTD/svg11.dtd">
<svg version="1.1" id="Layer_1" xmlns="http://www.w3.org/2000/svg" xmlns:xlink="http://www.w3.org/1999/xlink" x="0px" y="0px"
	 width="64.006px" height="63.983px" viewBox="0 0 64.006 63.983" style="enable-background:new 0 0 64.006 63.983;"
	 xml:space="preserve">
<g id="Bar_87_">
	<g>
		<path style="fill:#CCCCCC;" d="M60.307,0.003C60.303,0.003,60.3,0,60.296,0H3.711C3.707,0,3.703,0.003,3.699,0.003
			C1.655,0.009,0,1.612,0,3.594v6.39v50.291c0,2.049,1.661,3.709,3.711,3.709h56.585c2.049,0,3.71-1.66,3.71-3.709V9.983v-6.39
			C64.006,1.612,62.351,0.009,60.307,0.003z"/>
	</g>
</g>
<g id="Container_87_">
	<g>
		<path style="fill:#FFFFFF;" d="M58.006,11.994h-52h-2v2v13.999v30c0,1.104,0.896,2,2,2h52c1.104,0,2-0.896,2-2v-30V13.994v-2
			H58.006z"/>
	</g>
</g>
<g id="Remove_1_">
	<g>
		<path style="fill:#ED7161;" d="M34.47,37.968l4.979-4.977c0.687-0.688,0.687-1.803,0-2.489c-0.688-0.687-1.802-0.687-2.489,0
			l-4.979,4.978l-4.978-4.978c-0.688-0.687-1.802-0.687-2.489,0s-0.688,1.802,0,2.489l4.979,4.977l-4.979,4.979
			c-0.688,0.688-0.688,1.802,0,2.489s1.802,0.688,2.489,0l4.978-4.978l4.979,4.978c0.688,0.688,1.802,0.688,2.489,0
			c0.687-0.688,0.687-1.801,0-2.489L34.47,37.968z"/>
	</g>
</g>
<g id="Btns_84_">
	<g>
		<path style="fill-rule:evenodd;clip-rule:evenodd;fill:#FFFFFF;" d="M46.006,3.994c-0.003,0-0.006,0.001-0.01,0.001H6.006
			c-1.104,0-2,0.896-2,2s0.896,2,2,2h40c0.138,0,0.273-0.014,0.403-0.041c0.911-0.187,1.597-0.993,1.597-1.959
			C48.006,4.89,47.11,3.994,46.006,3.994z M52.006,3.994c-1.104,0-2,0.896-2,2.001c0,1.104,0.896,2,2,2s2-0.896,2-2
			C54.006,4.89,53.11,3.994,52.006,3.994z M58.006,3.994c-1.104,0-2,0.896-2,2.001c0,1.104,0.896,2,2,2s2-0.896,2-2
			C60.006,4.89,59.11,3.994,58.006,3.994z"/>
	</g>
</g>
<g>
</g>
<g>
</g>
<g>
</g>
<g>
</g>
<g>
</g>
<g>
</g>
<g>
</g>
<g>
</g>
<g>
</g>
<g>
</g>
<g>
</g>
<g>
</g>
<g>
</g>
<g>
</g>
<g>
</g>
</svg>
