<?xml version="1.0" encoding="iso-8859-1"?>
<!-- Generator: Adobe Illustrator 16.0.0, SVG Export Plug-In . SVG Version: 6.00 Build 0)  -->
<!DOCTYPE svg PUBLIC "-//W3C//DTD SVG 1.1//EN" "http://www.w3.org/Graphics/SVG/1.1/DTD/svg11.dtd">
<svg version="1.1" id="Layer_1" xmlns="http://www.w3.org/2000/svg" xmlns:xlink="http://www.w3.org/1999/xlink" x="0px" y="0px"
	 width="64.002px" height="55.996px" viewBox="0 0 64.002 55.996" style="enable-background:new 0 0 64.002 55.996;"
	 xml:space="preserve">
<g id="Bar_93_">
	<g>
		<path style="fill:#CCCCCC;" d="M60.303,0.002C60.299,0.002,60.296,0,60.292,0H11.706c-0.004,0-0.007,0.002-0.011,0.002
			c-2.044,0.007-3.699,1.61-3.699,3.592v6.39v42.291c0,2.049,1.661,3.709,3.71,3.709h48.586c2.049,0,3.71-1.66,3.71-3.709V9.983
			v-6.39C64.002,1.612,62.347,0.009,60.303,0.002z"/>
	</g>
</g>
<g id="Container_95_">
	<g>
		<path style="fill:#FFFFFF;" d="M58.002,11.993h-44h-2v2v12v23.999c0,1.106,0.895,2.002,2,2.002h44c1.104,0,2-0.896,2-2.002V25.993
			v-12v-2H58.002z"/>
	</g>
</g>
<g id="Btns_92_">
	<g>
		<path style="fill-rule:evenodd;clip-rule:evenodd;fill:#FFFFFF;" d="M46.002,3.994c-0.01,0-0.019,0.003-0.029,0.003H14.002
			c-1.104,0-2,0.896-2,2s0.896,2,2,2h32c1.104,0,2-0.896,2-2c0,0,0-0.001,0-0.001s0-0.001,0-0.001
			C48.002,4.89,47.106,3.994,46.002,3.994z M52.002,3.994c-1.104,0-2,0.896-2,2s0.896,2,2,2s2-0.896,2-2S53.106,3.994,52.002,3.994z
			 M58.002,3.994c-1.104,0-2,0.896-2,2s0.896,2,2,2s2-0.896,2-2S59.106,3.994,58.002,3.994z"/>
	</g>
</g>
<g id="Tablet_4_">
	<g>
		<path style="fill:#9B7CAB;" d="M52,15.995H4c-2.209,0-4,1.791-4,4v32c0,2.209,1.791,4.001,4,4.001h48
			c2.21,0,4.001-1.792,4.001-4.001v-32C56.001,17.786,54.21,15.995,52,15.995z"/>
	</g>
</g>
<g id="Screen__x26__Home_Btn_12_">
	<g>
		<path style="fill-rule:evenodd;clip-rule:evenodd;fill:#FFFFFF;" d="M8,19.995v32h40v-32H8z M4.001,33.996
			c-1.104,0-2,0.894-2,1.999c0,1.104,0.896,2,2,2s2-0.896,2-2C6.001,34.89,5.105,33.996,4.001,33.996z"/>
	</g>
</g>
<g>
</g>
<g>
</g>
<g>
</g>
<g>
</g>
<g>
</g>
<g>
</g>
<g>
</g>
<g>
</g>
<g>
</g>
<g>
</g>
<g>
</g>
<g>
</g>
<g>
</g>
<g>
</g>
<g>
</g>
</svg>
