<?xml version="1.0" encoding="iso-8859-1"?>
<!-- Generator: Adobe Illustrator 16.0.0, SVG Export Plug-In . SVG Version: 6.00 Build 0)  -->
<!DOCTYPE svg PUBLIC "-//W3C//DTD SVG 1.1//EN" "http://www.w3.org/Graphics/SVG/1.1/DTD/svg11.dtd">
<svg version="1.1" id="Layer_1" xmlns="http://www.w3.org/2000/svg" xmlns:xlink="http://www.w3.org/1999/xlink" x="0px" y="0px"
	 width="70.75px" height="69.111px" viewBox="0 0 70.75 69.111" style="enable-background:new 0 0 70.75 69.111;"
	 xml:space="preserve">
<g id="Body_7_">
	<g>
		<path style="fill-rule:evenodd;clip-rule:evenodd;fill:#CCCCCC;" d="M60.307,0.003C60.303,0.003,60.299,0,60.296,0H3.71
			C3.707,0,3.703,0.003,3.699,0.003C1.655,0.009,0,1.613,0,3.594v6.39v50.291c0,2.048,1.661,3.71,3.71,3.71h41.683l-3.634-3.636
			c-2.362-2.357-2.362-6.18,0-8.537c2.355-2.357,6.18-2.357,8.538,0l1.601,1.601l5.723-5.721c1.727-1.73,4.234-2.182,6.384-1.384
			V9.983v-6.39C64.006,1.613,62.351,0.009,60.307,0.003z"/>
	</g>
</g>
<g id="Container_92_">
	<g>
		<path style="fill:#FFFFFF;" d="M58.006,11.994h-52h-2v1.999v12.001v31.999c0,1.105,0.895,2.001,2,2.001h52
			c1.104,0,2-0.896,2-2.001V25.994V13.993v-1.999H58.006z"/>
	</g>
</g>
<g id="Btns_89_">
	<g>
		<path style="fill-rule:evenodd;clip-rule:evenodd;fill:#FFFFFF;" d="M46.005,3.994c-0.007,0-0.013,0.002-0.02,0.002H6.006
			c-1.104,0-2,0.896-2,2s0.896,2,2,2h40c1.104,0,2-0.896,2-2V5.995V5.994C48.006,4.89,47.11,3.994,46.005,3.994z M52.006,3.994
			c-1.105,0-2,0.896-2,2c0,1.105,0.895,2,2,2c1.104,0,2-0.895,2-2C54.006,4.89,53.11,3.994,52.006,3.994z M58.006,3.994
			c-1.104,0-2,0.896-2,2c0,1.105,0.896,2,2,2s2-0.895,2-2C60.006,4.89,59.11,3.994,58.006,3.994z"/>
	</g>
</g>
<g id="Ok_4_">
	<g>
		<path style="fill-rule:evenodd;clip-rule:evenodd;fill:#88C057;" d="M63.398,50.561c-0.788-0.79-2.065-0.79-2.854,0l-8.522,8.521
			l-4.508-4.518c-0.807-0.808-2.114-0.808-2.921,0c-0.806,0.81-0.806,2.118,0,2.927l5.841,5.851c0.208,0.208,0.45,0.361,0.708,0.462
			c0.745,0.343,1.654,0.213,2.268-0.4l9.988-9.988C64.187,52.626,64.187,51.347,63.398,50.561z"/>
	</g>
</g>
<g>
</g>
<g>
</g>
<g>
</g>
<g>
</g>
<g>
</g>
<g>
</g>
<g>
</g>
<g>
</g>
<g>
</g>
<g>
</g>
<g>
</g>
<g>
</g>
<g>
</g>
<g>
</g>
<g>
</g>
</svg>
