<?xml version="1.0" encoding="iso-8859-1"?>
<!-- Generator: Adobe Illustrator 16.0.0, SVG Export Plug-In . SVG Version: 6.00 Build 0)  -->
<!DOCTYPE svg PUBLIC "-//W3C//DTD SVG 1.1//EN" "http://www.w3.org/Graphics/SVG/1.1/DTD/svg11.dtd">
<svg version="1.1" id="Layer_1" xmlns="http://www.w3.org/2000/svg" xmlns:xlink="http://www.w3.org/1999/xlink" x="0px" y="0px"
	 width="64.005px" height="63.995px" viewBox="0 0 64.005 63.995" style="enable-background:new 0 0 64.005 63.995;"
	 xml:space="preserve">
<g id="Bar_95_">
	<g>
		<path style="fill:#CCCCCC;" d="M52.307,0.002C52.303,0.002,52.3,0,52.296,0H3.71C3.706,0,3.703,0.002,3.699,0.002
			C1.655,0.009,0,1.612,0,3.595v6.389v42.291c0,2.048,1.661,3.709,3.71,3.709h48.586c2.049,0,3.71-1.661,3.71-3.709V9.983V3.595
			C56.006,1.612,54.351,0.009,52.307,0.002z"/>
	</g>
</g>
<g id="Container_97_">
	<g>
		<path style="fill:#FFFFFF;" d="M50.006,11.993h-44h-2v2v12.001v23.999c0,1.104,0.896,2.001,2,2.001h44c1.104,0,2-0.896,2-2.001
			V25.994V13.993v-2H50.006z"/>
	</g>
</g>
<g id="Btns_94_">
	<g>
		<path style="fill-rule:evenodd;clip-rule:evenodd;fill:#FFFFFF;" d="M38.006,3.993c-0.01,0-0.019,0.003-0.029,0.003H6.006
			c-1.104,0-2,0.896-2,2s0.896,2,2,2h32c1.104,0,2-0.896,2-2V5.995V5.994C40.006,4.89,39.11,3.993,38.006,3.993z M44.006,3.993
			c-1.104,0-2,0.896-2,2.001s0.896,2,2,2s2-0.896,2-2S45.11,3.993,44.006,3.993z M50.006,3.993c-1.104,0-2,0.896-2,2.001
			s0.896,2,2,2s2-0.896,2-2S51.11,3.993,50.006,3.993z"/>
	</g>
</g>
<g id="Phone_4_">
	<g>
		<path style="fill:#88C057;" d="M60.004,31.994h-48c-2.209,0-3.999,1.791-3.999,4.001v23.999c0,2.209,1.79,4.001,3.999,4.001h48
			c2.21,0,4.001-1.792,4.001-4.001V35.995C64.005,33.785,62.214,31.994,60.004,31.994z"/>
	</g>
</g>
<g id="Screen__x26__Home_Btn_14_">
	<g>
		<path style="fill-rule:evenodd;clip-rule:evenodd;fill:#FFFFFF;" d="M16.005,35.995v23.999h39.999V35.995H16.005z M12.006,45.995
			c-1.105,0-2.001,0.896-2.001,2.001c0,1.104,0.896,1.999,2.001,1.999c1.104,0,1.999-0.896,1.999-1.999
			C14.005,46.891,13.109,45.995,12.006,45.995z"/>
	</g>
</g>
<g>
</g>
<g>
</g>
<g>
</g>
<g>
</g>
<g>
</g>
<g>
</g>
<g>
</g>
<g>
</g>
<g>
</g>
<g>
</g>
<g>
</g>
<g>
</g>
<g>
</g>
<g>
</g>
<g>
</g>
</svg>
