<?xml version="1.0" encoding="iso-8859-1"?>
<!-- Generator: Adobe Illustrator 16.0.0, SVG Export Plug-In . SVG Version: 6.00 Build 0)  -->
<!DOCTYPE svg PUBLIC "-//W3C//DTD SVG 1.1//EN" "http://www.w3.org/Graphics/SVG/1.1/DTD/svg11.dtd">
<svg version="1.1" id="Layer_1" xmlns="http://www.w3.org/2000/svg" xmlns:xlink="http://www.w3.org/1999/xlink" x="0px" y="0px"
	 width="68.022px" height="67.992px" viewBox="0 0 68.022 67.992" style="enable-background:new 0 0 68.022 67.992;"
	 xml:space="preserve">
<g id="Body_6_">
	<g>
		<path style="fill-rule:evenodd;clip-rule:evenodd;fill:#CCCCCC;" d="M47.423,55.888l-1.645-1.646
			c-2.359-2.358-2.359-6.181,0-8.539c2.358-2.358,6.181-2.358,8.54,0l1.646,1.646l1.658-1.658c1.727-1.73,4.234-2.182,6.384-1.384
			V9.983v-6.39c0-1.98-1.655-3.585-3.699-3.591C60.303,0.003,60.3,0,60.296,0H3.71C3.706,0,3.703,0.003,3.699,0.003
			C1.655,0.009,0,1.613,0,3.594v6.39v50.291c0,2.048,1.661,3.71,3.71,3.71h40.548c-0.769-2.137-0.315-4.616,1.398-6.33
			L47.423,55.888z"/>
	</g>
</g>
<g id="Container_91_">
	<g>
		<path style="fill:#FFFFFF;" d="M58.006,11.994h-52h-2v1.999v12.001v31.999c0,1.105,0.896,2.001,2,2.001h52
			c1.104,0,2-0.896,2-2.001V25.994V13.993v-1.999H58.006z"/>
	</g>
</g>
<g id="Btns_88_">
	<g>
		<path style="fill-rule:evenodd;clip-rule:evenodd;fill:#FFFFFF;" d="M46.006,3.994c-0.007,0-0.013,0.002-0.02,0.002H6.006
			c-1.104,0-2,0.896-2,2s0.896,2,2,2h40c1.104,0,2-0.896,2-2V5.995V5.994C48.006,4.89,47.11,3.994,46.006,3.994z M52.006,3.994
			c-1.104,0-2,0.896-2,2c0,1.105,0.896,2,2,2s2-0.895,2-2C54.006,4.89,53.11,3.994,52.006,3.994z M58.006,3.994
			c-1.104,0-2,0.896-2,2c0,1.105,0.896,2,2,2s2-0.895,2-2C60.006,4.89,59.11,3.994,58.006,3.994z"/>
	</g>
</g>
<g id="Remove_5_">
	<g>
		<path style="fill-rule:evenodd;clip-rule:evenodd;fill:#ED7161;" d="M63.436,60.721l-4.703-4.702l4.703-4.702
			c0.743-0.744,0.743-1.948,0-2.691c-0.743-0.742-1.948-0.742-2.691,0l-4.703,4.703l-4.762-4.762c-0.746-0.748-1.955-0.748-2.701,0
			c-0.746,0.744-0.746,1.954,0,2.7l4.763,4.762l-4.705,4.706c-0.743,0.743-0.743,1.947,0,2.69s1.947,0.743,2.69,0l4.706-4.705
			l4.703,4.702c0.746,0.747,1.955,0.747,2.701,0C64.182,62.677,64.182,61.467,63.436,60.721z"/>
	</g>
</g>
<g>
</g>
<g>
</g>
<g>
</g>
<g>
</g>
<g>
</g>
<g>
</g>
<g>
</g>
<g>
</g>
<g>
</g>
<g>
</g>
<g>
</g>
<g>
</g>
<g>
</g>
<g>
</g>
<g>
</g>
</svg>
