<?xml version="1.0" encoding="iso-8859-1"?>
<!-- Generator: Adobe Illustrator 16.0.0, SVG Export Plug-In . SVG Version: 6.00 Build 0)  -->
<!DOCTYPE svg PUBLIC "-//W3C//DTD SVG 1.1//EN" "http://www.w3.org/Graphics/SVG/1.1/DTD/svg11.dtd">
<svg version="1.1" id="Layer_1" xmlns="http://www.w3.org/2000/svg" xmlns:xlink="http://www.w3.org/1999/xlink" x="0px" y="0px"
	 width="64.006px" height="63.984px" viewBox="0 0 64.006 63.984" style="enable-background:new 0 0 64.006 63.984;"
	 xml:space="preserve">
<g id="Bar_68_">
	<g>
		<path style="fill:#CCCCCC;" d="M60.307,0.003C60.303,0.003,60.3,0,60.296,0H3.71C3.706,0,3.703,0.003,3.699,0.003
			C1.655,0.009,0,1.613,0,3.594v6.39v50.291c0,2.048,1.661,3.71,3.71,3.71h56.586c2.049,0,3.71-1.662,3.71-3.71V9.983v-6.39
			C64.006,1.613,62.351,0.009,60.307,0.003z"/>
	</g>
</g>
<g id="Container_67_">
	<g>
		<path style="fill:#FFFFFF;" d="M58.006,11.993h-52h-2v2v12.001v31.999c0,1.105,0.896,2.001,2,2.001h52c1.104,0,2-0.896,2-2.001
			V25.994V13.993v-2H58.006z"/>
	</g>
</g>
<g id="Star">
	<g>
		<path style="fill:#FFCC66;" d="M45.929,32.572c-0.175-0.574-0.631-1.001-1.19-1.113l-7.628-1.53l-3.747-7.092
			c-0.275-0.521-0.794-0.844-1.357-0.844s-1.083,0.323-1.357,0.844l-3.747,7.092l-7.628,1.53c-0.56,0.112-1.017,0.539-1.191,1.113
			c-0.174,0.573-0.039,1.203,0.354,1.64l5.298,5.903l-0.961,8.022c-0.071,0.594,0.167,1.183,0.624,1.537
			c0.271,0.211,0.594,0.318,0.919,0.318c0.222,0,0.444-0.05,0.653-0.152l7.037-3.445l7.036,3.445
			c0.209,0.103,0.432,0.152,0.653,0.152c0.325,0,0.647-0.107,0.919-0.318c0.456-0.354,0.695-0.943,0.624-1.537l-0.961-8.022
			l5.299-5.903C45.969,33.775,46.104,33.146,45.929,32.572z"/>
	</g>
</g>
<g id="Btns_64_">
	<g>
		<path style="fill-rule:evenodd;clip-rule:evenodd;fill:#FFFFFF;" d="M46.006,3.993c-0.007,0-0.013,0.002-0.02,0.002H6.006
			c-1.104,0-2,0.896-2,2s0.896,2,2,2h40c1.104,0,2-0.896,2-2C48.006,4.889,47.11,3.993,46.006,3.993z M52.006,3.993
			c-1.104,0-2,0.896-2,2.002c0,1.104,0.896,1.999,2,1.999s2-0.896,2-1.999C54.006,4.889,53.11,3.993,52.006,3.993z M58.006,3.993
			c-1.104,0-2,0.896-2,2.002c0,1.104,0.896,1.999,2,1.999s2-0.896,2-1.999C60.006,4.889,59.11,3.993,58.006,3.993z"/>
	</g>
</g>
<g>
</g>
<g>
</g>
<g>
</g>
<g>
</g>
<g>
</g>
<g>
</g>
<g>
</g>
<g>
</g>
<g>
</g>
<g>
</g>
<g>
</g>
<g>
</g>
<g>
</g>
<g>
</g>
<g>
</g>
</svg>
