<?xml version="1.0" encoding="iso-8859-1"?>
<!-- Generator: Adobe Illustrator 16.0.0, SVG Export Plug-In . SVG Version: 6.00 Build 0)  -->
<!DOCTYPE svg PUBLIC "-//W3C//DTD SVG 1.1//EN" "http://www.w3.org/Graphics/SVG/1.1/DTD/svg11.dtd">
<svg version="1.1" id="Layer_1" xmlns="http://www.w3.org/2000/svg" xmlns:xlink="http://www.w3.org/1999/xlink" x="0px" y="0px"
	 width="64.006px" height="64.046px" viewBox="0 0 64.006 64.046" style="enable-background:new 0 0 64.006 64.046;"
	 xml:space="preserve">
<g id="Bar_1_">
	<g>
		<path style="fill:#CCCCCC;" d="M60.307,0.002C60.303,0.002,60.3,0,60.296,0H3.71C3.706,0,3.703,0.002,3.699,0.002
			C1.655,0.008,0,1.615,0,3.598v6.395v50.341c0,2.05,1.661,3.713,3.71,3.713h56.586c2.049,0,3.71-1.663,3.71-3.713V9.992V3.598
			C64.006,1.615,62.351,0.008,60.307,0.002z"/>
	</g>
</g>
<g id="Container_1_">
	<g>
		<path style="fill:#FFFFFF;" d="M58.006,12.006h-52h-2v2.002V26.02v32.03c0,1.106,0.896,2.003,2,2.003h52c1.104,0,2-0.896,2-2.003
			V26.02V14.008v-2.002H58.006z"/>
	</g>
</g>
<g id="Pin">
	<g>
		<path style="fill:#E6B85C;" d="M26.438,22.02h-4.866c-1.962,0-3.553,1.593-3.553,3.557v8.892c0,1.964,1.591,3.557,3.553,3.557
			h4.866c1.962,0,3.553-1.593,3.553-3.557v-8.892C29.991,23.612,28.4,22.02,26.438,22.02z"/>
	</g>
</g>
<g id="Pin_1_">
	<g>
		<path style="fill:#E6B85C;" d="M42.438,22.02h-4.866c-1.962,0-3.553,1.593-3.553,3.557v8.892c0,1.964,1.591,3.557,3.553,3.557
			h4.866c1.962,0,3.553-1.593,3.553-3.557v-8.892C45.991,23.612,44.4,22.02,42.438,22.02z"/>
	</g>
</g>
<g id="Shape">
	<g>
		<rect x="14.006" y="26.002" style="fill:#FFCC66;" width="36" height="24.018"/>
	</g>
</g>
<g id="Btns_1_">
	<g>
		<path style="fill-rule:evenodd;clip-rule:evenodd;fill:#FFFFFF;" d="M46.006,3.998c-0.073,0-0.142,0.014-0.213,0.021H6.006
			c-1.104,0-2,0.896-2,2c0,1.104,0.896,2,2,2h40c1.104,0,2-0.896,2-2c0-0.003-0.001-0.006-0.001-0.009s0.001-0.006,0.001-0.009
			C48.006,4.895,47.11,3.998,46.006,3.998z M52.006,3.998c-1.104,0-2,0.896-2,2.004c0,1.104,0.896,2.001,2,2.001s2-0.896,2-2.001
			C54.006,4.895,53.11,3.998,52.006,3.998z M58.006,3.998c-1.104,0-2,0.896-2,2.004c0,1.104,0.896,2.001,2,2.001s2-0.896,2-2.001
			C60.006,4.895,59.11,3.998,58.006,3.998z"/>
	</g>
</g>
<g>
</g>
<g>
</g>
<g>
</g>
<g>
</g>
<g>
</g>
<g>
</g>
<g>
</g>
<g>
</g>
<g>
</g>
<g>
</g>
<g>
</g>
<g>
</g>
<g>
</g>
<g>
</g>
<g>
</g>
</svg>
