<?xml version="1.0" encoding="iso-8859-1"?>
<!-- Generator: Adobe Illustrator 16.0.0, SVG Export Plug-In . SVG Version: 6.00 Build 0)  -->
<!DOCTYPE svg PUBLIC "-//W3C//DTD SVG 1.1//EN" "http://www.w3.org/Graphics/SVG/1.1/DTD/svg11.dtd">
<svg version="1.1" id="Layer_1" xmlns="http://www.w3.org/2000/svg" xmlns:xlink="http://www.w3.org/1999/xlink" x="0px" y="0px"
	 width="64.006px" height="63.984px" viewBox="0 0 64.006 63.984" style="enable-background:new 0 0 64.006 63.984;"
	 xml:space="preserve">
<g id="Bar_52_">
	<g>
		<path style="fill:#CCCCCC;" d="M60.307,0.003C60.303,0.003,60.3,0,60.296,0H3.71C3.706,0,3.703,0.003,3.699,0.003
			C1.655,0.009,0,1.614,0,3.595v6.39v50.291c0,2.047,1.661,3.709,3.71,3.709h56.586c2.049,0,3.71-1.662,3.71-3.709V9.984v-6.39
			C64.006,1.614,62.351,0.009,60.307,0.003z"/>
	</g>
</g>
<g id="Container_51_">
	<g>
		<path style="fill:#FFFFFF;" d="M58.006,11.994h-52h-2v2v12v31.999c0,1.105,0.896,2.001,2,2.001h52c1.104,0,2-0.896,2-2.001V25.994
			v-12v-2H58.006z"/>
	</g>
</g>
<g id="Arrow_6_">
	<g>
		<path style="fill-rule:evenodd;clip-rule:evenodd;fill:#ED7161;" d="M36.006,33.994h6c1.104,0,2-0.896,2-2c0-1.105-0.896-2-2-2
			h-1.051l4.412-4.466c0.81-0.817,0.81-2.141,0-2.955c-0.809-0.817-2.121-0.817-2.932,0l-4.43,4.483v-1.063c0-1.105-0.896-2-2-2
			s-2,0.895-2,2v6C34.006,33.098,34.901,33.994,36.006,33.994z M28.006,37.992h-6c-1.104,0-2,0.896-2,2c0,1.105,0.896,2,2,2h1.051
			l-4.412,4.467c-0.811,0.817-0.811,2.141-0.001,2.955c0.81,0.817,2.122,0.817,2.933,0l4.43-4.484v1.063
			c0,1.105,0.896,2.001,2,2.001s2-0.896,2-2.001v-6.001C30.006,38.889,29.11,37.992,28.006,37.992z M45.428,46.423l-4.475-4.43
			h1.057c1.103,0,1.996-0.896,1.996-1.999c0-1.105-0.894-2-1.996-2h-5.982c-1.102,0-1.995,0.895-1.995,2v6c0,1.104,0.894,2,1.995,2
			c1.103,0,1.995-0.896,1.995-2v-1.052l4.457,4.412c0.814,0.81,2.135,0.81,2.948,0C46.243,48.547,46.243,47.233,45.428,46.423z
			 M28.047,23.994c-1.104,0-1.996,0.895-1.996,1.999v1.052l-4.457-4.412c-0.814-0.812-2.135-0.812-2.948-0.002
			c-0.814,0.81-0.814,2.123,0,2.933l4.475,4.431h-1.056c-1.104,0-1.996,0.895-1.996,2c0,1.104,0.893,2,1.996,2h5.982
			c1.102,0,1.994-0.896,1.994-2v-6.001C30.041,24.889,29.148,23.994,28.047,23.994z"/>
	</g>
</g>
<g id="Btns_48_">
	<g>
		<path style="fill-rule:evenodd;clip-rule:evenodd;fill:#FFFFFF;" d="M46.006,3.994c-0.007,0-0.013,0.002-0.02,0.002H6.006
			c-1.104,0-2,0.896-2,2s0.896,2,2,2h40c1.104,0,2-0.896,2-2c0-0.001,0-0.001,0-0.001C48.006,4.89,47.11,3.994,46.006,3.994z
			 M52.006,3.994c-1.104,0-2,0.896-2,2.001c0,1.104,0.896,2,2,2s2-0.896,2-2C54.006,4.89,53.11,3.994,52.006,3.994z M58.006,3.994
			c-1.104,0-2,0.896-2,2.001c0,1.104,0.896,2,2,2s2-0.896,2-2C60.006,4.89,59.11,3.994,58.006,3.994z"/>
	</g>
</g>
<g>
</g>
<g>
</g>
<g>
</g>
<g>
</g>
<g>
</g>
<g>
</g>
<g>
</g>
<g>
</g>
<g>
</g>
<g>
</g>
<g>
</g>
<g>
</g>
<g>
</g>
<g>
</g>
<g>
</g>
</svg>
