<?xml version="1.0" encoding="iso-8859-1"?>
<!-- Generator: Adobe Illustrator 16.0.0, SVG Export Plug-In . SVG Version: 6.00 Build 0)  -->
<!DOCTYPE svg PUBLIC "-//W3C//DTD SVG 1.1//EN" "http://www.w3.org/Graphics/SVG/1.1/DTD/svg11.dtd">
<svg version="1.1" id="Layer_1" xmlns="http://www.w3.org/2000/svg" xmlns:xlink="http://www.w3.org/1999/xlink" x="0px" y="0px"
	 width="64.006px" height="64.046px" viewBox="0 0 64.006 64.046" style="enable-background:new 0 0 64.006 64.046;"
	 xml:space="preserve">
<g id="Bar_2_">
	<g>
		<path style="fill:#CCCCCC;" d="M60.307,0.002C60.303,0.002,60.3,0,60.296,0H3.71C3.706,0,3.703,0.002,3.699,0.002
			C1.655,0.008,0,1.615,0,3.598v6.395v50.341c0,2.05,1.661,3.713,3.71,3.713h56.586c2.049,0,3.71-1.663,3.71-3.713V9.992V3.598
			C64.006,1.615,62.351,0.008,60.307,0.002z"/>
	</g>
</g>
<g id="Container_2_">
	<g>
		<path style="fill:#FFFFFF;" d="M58.006,12.006h-52h-2v2.002V26.02v32.03c0,1.106,0.895,2.003,2,2.003h52c1.104,0,2-0.896,2-2.003
			V26.02V14.008v-2.002H58.006z"/>
	</g>
</g>
<g id="Wordpress_Logo">
	<g>
		<path style="fill:#48A0DC;" d="M16.003,35.961c0,6.329,3.68,11.806,9.018,14.395l-7.632-20.906
			C16.5,31.44,16.003,33.641,16.003,35.961z M32.506,39.973l-4.5,11.5c1.433,0.421,2.424,0.486,3.997,0.486
			c1.861,0,3.649-0.323,5.312-0.91c-0.042-0.068-0.082-0.139-0.113-0.218L32.506,39.973z M46.039,28.285
			c0.071,0.511,0.11,1.057,0.11,1.646c0,1.622-0.305,3.446-1.218,5.729l-4.886,14.125c4.755-2.771,7.953-7.924,7.953-13.825
			C47.999,33.179,47.289,30.564,46.039,28.285z M42.802,35.152c0-1.977-0.712-3.347-1.319-4.411c-0.811-1.318-1.57-2.433-1.57-3.752
			c0-1.471,1.112-2.839,2.688-2.839c0.067,0,0.137,0.01,0.205,0.014c-2.846-2.606-6.637-4.2-10.802-4.2
			c-5.495,0-10.955,1.761-13.997,6.009c1.27,0.023,6,0,6,0c0.909-0.049,0.911,1.895,0,2c0,0-0.98-0.053-2,0l6,16l4-10l-2-6
			c-0.91-0.051-2,0-2,0c-0.912-0.051-0.912-2.047,0-2l7.7,0.016c0.908-0.047,1.211,1.884,0.3,1.984c0,0-0.98-0.051-2,0l6,16
			l1.579-3.647C42.395,38.246,42.802,36.523,42.802,35.152z"/>
	</g>
</g>
<g id="Btns_2_">
	<g>
		<path style="fill-rule:evenodd;clip-rule:evenodd;fill:#FFFFFF;" d="M46.006,3.998c-0.073,0-0.142,0.014-0.213,0.021H6.006
			c-1.104,0-2,0.896-2,2c0,1.104,0.896,2,2,2h40c1.104,0,2-0.896,2-2c0-0.003-0.001-0.006-0.001-0.009s0.001-0.006,0.001-0.009
			C48.006,4.895,47.11,3.998,46.006,3.998z M52.006,3.998c-1.104,0-2,0.896-2,2.004c0,1.104,0.896,2.001,2,2.001s2-0.896,2-2.001
			C54.006,4.895,53.11,3.998,52.006,3.998z M58.006,3.998c-1.104,0-2,0.896-2,2.004c0,1.104,0.896,2.001,2,2.001s2-0.896,2-2.001
			C60.006,4.895,59.11,3.998,58.006,3.998z"/>
	</g>
</g>
<g>
</g>
<g>
</g>
<g>
</g>
<g>
</g>
<g>
</g>
<g>
</g>
<g>
</g>
<g>
</g>
<g>
</g>
<g>
</g>
<g>
</g>
<g>
</g>
<g>
</g>
<g>
</g>
<g>
</g>
</svg>
