<?xml version="1.0" encoding="iso-8859-1"?>
<!-- Generator: Adobe Illustrator 16.0.0, SVG Export Plug-In . SVG Version: 6.00 Build 0)  -->
<!DOCTYPE svg PUBLIC "-//W3C//DTD SVG 1.1//EN" "http://www.w3.org/Graphics/SVG/1.1/DTD/svg11.dtd">
<svg version="1.1" id="Layer_1" xmlns="http://www.w3.org/2000/svg" xmlns:xlink="http://www.w3.org/1999/xlink" x="0px" y="0px"
	 width="64.006px" height="64.046px" viewBox="0 0 64.006 64.046" style="enable-background:new 0 0 64.006 64.046;"
	 xml:space="preserve">
<g id="Bar_29_">
	<g>
		<path style="fill:#CCCCCC;" d="M60.307,0.002C60.303,0.002,60.3,0,60.296,0H3.71C3.706,0,3.703,0.002,3.699,0.002
			C1.655,0.008,0,1.615,0,3.598v6.395v50.341c0,2.05,1.661,3.713,3.71,3.713h56.586c2.049,0,3.71-1.663,3.71-3.713V9.992V3.598
			C64.006,1.615,62.351,0.008,60.307,0.002z"/>
	</g>
</g>
<g id="Container_28_">
	<g>
		<path style="fill:#FFFFFF;" d="M58.006,12.006h-52h-2v2.002V26.02v32.03c0,1.106,0.896,2.003,2,2.003h52c1.104,0,2-0.896,2-2.003
			V26.02V14.008v-2.002H58.006z"/>
	</g>
</g>
<g id="Base_1_">
	<g>
		<path style="fill-rule:evenodd;clip-rule:evenodd;fill:#CCCCCC;" d="M52.006,16.02h-40c-2.21,0-4,1.79-4,4v32
			c0,2.209,1.79,3.999,4,3.999h40c2.209,0,4-1.79,4-3.999v-32C56.006,17.81,54.215,16.02,52.006,16.02z M52.006,50.02
			c0,1.104-0.896,2-2,2h-36c-1.105,0-2-0.896-2-2v-28c0-1.105,0.895-2,2-2h36c1.104,0,2,0.895,2,2V50.02z"/>
	</g>
</g>
<g id="Text_1_">
	<g>
		<path style="fill:#666666;" d="M18.006,24.02c-1.104,0-2,0.895-2,2v20c0,1.104,0.896,2,2,2s2-0.896,2-2v-20
			C20.006,24.914,19.11,24.02,18.006,24.02z"/>
	</g>
</g>
<g id="Btns_25_">
	<g>
		<path style="fill-rule:evenodd;clip-rule:evenodd;fill:#FFFFFF;" d="M46.006,3.999c-0.069,0-0.136,0.014-0.203,0.021H6.006
			c-1.104,0-2,0.896-2,2s0.896,2,2,2h40c1.104,0,2-0.896,2-2c0-0.003-0.001-0.006-0.001-0.009s0.001-0.006,0.001-0.009
			C48.006,4.895,47.11,3.999,46.006,3.999z M52.006,3.999c-1.104,0-2,0.896-2,2.003c0,1.104,0.896,2.001,2,2.001s2-0.896,2-2.001
			C54.006,4.895,53.11,3.999,52.006,3.999z M58.006,3.999c-1.104,0-2,0.896-2,2.003c0,1.104,0.896,2.001,2,2.001s2-0.896,2-2.001
			C60.006,4.895,59.11,3.999,58.006,3.999z"/>
	</g>
</g>
<g>
</g>
<g>
</g>
<g>
</g>
<g>
</g>
<g>
</g>
<g>
</g>
<g>
</g>
<g>
</g>
<g>
</g>
<g>
</g>
<g>
</g>
<g>
</g>
<g>
</g>
<g>
</g>
<g>
</g>
</svg>
