<?xml version="1.0" encoding="iso-8859-1"?>
<!-- Generator: Adobe Illustrator 16.0.0, SVG Export Plug-In . SVG Version: 6.00 Build 0)  -->
<!DOCTYPE svg PUBLIC "-//W3C//DTD SVG 1.1//EN" "http://www.w3.org/Graphics/SVG/1.1/DTD/svg11.dtd">
<svg version="1.1" id="Layer_1" xmlns="http://www.w3.org/2000/svg" xmlns:xlink="http://www.w3.org/1999/xlink" x="0px" y="0px"
	 width="64.006px" height="63.982px" viewBox="0 0 64.006 63.982" style="enable-background:new 0 0 64.006 63.982;"
	 xml:space="preserve">
<g id="Bar_80_">
	<g>
		<path style="fill:#CCCCCC;" d="M60.307,0.001C60.303,0.001,60.3,0,60.296,0H3.71C3.706,0,3.703,0.001,3.699,0.001
			C1.655,0.008,0,1.611,0,3.593v6.389v50.291c0,2.05,1.661,3.71,3.71,3.71h56.586c2.049,0,3.71-1.66,3.71-3.71V9.981V3.593
			C64.006,1.611,62.351,0.008,60.307,0.001z"/>
	</g>
</g>
<g id="Container_80_">
	<g>
		<path style="fill:#FFFFFF;" d="M58.006,11.992h-52h-2v2.001v11.999v32.001c0,1.104,0.896,1.999,2,1.999h52
			c1.104,0,2-0.895,2-1.999V25.992V13.993v-2.001H58.006z"/>
	</g>
</g>
<g id="iExplorer">
	<g>
		<path style="fill:#48A0DC;" d="M38.006,37.992h8c0.068-0.538,0.022-0.311-0.007-0.866c-0.128-2.439-0.85-4.748-2.025-6.733
			c0.019-0.047,2.878-7.043-1.585-8.203c-3.664-0.952-9.08,1.694-9.08,1.694l0.199,0.038c-0.336-0.023-0.675-0.038-1.019-0.038
			c-6.7,0-12.26,4.523-13.326,10.695c0.759-0.848,3.479-3.975,6.543-5.933c0,0-5.218,4.446-6.728,8.099c0,0-1.936,3.27-2.571,5.715
			c-0.385,1.483-1.372,6.801,2.571,7.412c4.102,0.635,7.339-1.447,7.339-1.447l-0.079-0.043c1.869,0.95,3.994,1.49,6.251,1.49
			c5.977,0,11.734-4.655,13.517-9.88h-8c-1.054,2.065-3.337,3.897-5.544,3.897c-2.928,0-5.898-2.49-6.456-5.898h10H38.006z
			 M25.405,47.925c0,0-2.271,1.101-4.185,1.153c-5.853-0.053-1.468-7.942-1.468-7.942l-0.001-0.011
			c1.038,2.851,3.06,5.249,5.67,6.809L25.405,47.925z M37.356,24.678c0,0,9.401-4.07,6.229,5.087l0.112,0.184
			c-1.599-2.485-3.932-4.411-6.737-5.349L37.356,24.678z M32.006,29.992c3.391,0,5.617,3.195,6,6h-12
			C26.601,33.209,28.933,29.992,32.006,29.992z"/>
	</g>
</g>
<g id="Btns_77_">
	<g>
		<path style="fill-rule:evenodd;clip-rule:evenodd;fill:#FFFFFF;" d="M46.006,3.992c-0.007,0-0.013,0.002-0.02,0.002H6.006
			c-1.104,0-2,0.895-2,2c0,1.104,0.896,2,2,2h40c1.104,0,2-0.896,2-2v0v0C48.006,4.888,47.11,3.992,46.006,3.992z M52.006,3.992
			c-1.104,0-2,0.896-2,2.001c0,1.104,0.896,1.999,2,1.999s2-0.895,2-1.999C54.006,4.888,53.11,3.992,52.006,3.992z M58.006,3.992
			c-1.104,0-2,0.896-2,2.001c0,1.104,0.896,1.999,2,1.999s2-0.895,2-1.999C60.006,4.888,59.11,3.992,58.006,3.992z"/>
	</g>
</g>
<g>
</g>
<g>
</g>
<g>
</g>
<g>
</g>
<g>
</g>
<g>
</g>
<g>
</g>
<g>
</g>
<g>
</g>
<g>
</g>
<g>
</g>
<g>
</g>
<g>
</g>
<g>
</g>
<g>
</g>
</svg>
