<?xml version="1.0" encoding="iso-8859-1"?>
<!-- Generator: Adobe Illustrator 16.0.0, SVG Export Plug-In . SVG Version: 6.00 Build 0)  -->
<!DOCTYPE svg PUBLIC "-//W3C//DTD SVG 1.1//EN" "http://www.w3.org/Graphics/SVG/1.1/DTD/svg11.dtd">
<svg version="1.1" id="Layer_1" xmlns="http://www.w3.org/2000/svg" xmlns:xlink="http://www.w3.org/1999/xlink" x="0px" y="0px"
	 width="64.006px" height="63.983px" viewBox="0 0 64.006 63.983" style="enable-background:new 0 0 64.006 63.983;"
	 xml:space="preserve">
<g id="Bar_35_">
	<g>
		<path style="fill:#CCCCCC;" d="M60.307,0.002C60.303,0.002,60.3,0,60.296,0H3.71C3.707,0,3.703,0.002,3.699,0.002
			C1.655,0.008,0,1.613,0,3.594v6.389v50.292c0,2.048,1.661,3.709,3.71,3.709h56.585c2.049,0,3.71-1.661,3.71-3.709V9.982V3.594
			C64.006,1.613,62.351,0.008,60.307,0.002z"/>
	</g>
</g>
<g id="Container_34_">
	<g>
		<path style="fill:#FFFFFF;" d="M58.006,11.994h-52h-2v2v12v31.999c0,1.104,0.895,2.001,2,2.001h52c1.104,0,2-0.896,2-2.001V25.994
			v-12v-2H58.006z"/>
	</g>
</g>
<g id="_x40_">
	<g>
		<path style="fill-rule:evenodd;clip-rule:evenodd;fill:#48A0DC;" d="M46.005,38.007c0-0.004,0-0.007,0-0.011
			c0-0.008-0.002-0.016-0.002-0.023c-0.021-9.829-6.279-15.977-13.998-15.977c-7.732,0-14,6.268-14,14c0,7.731,6.268,14,14,14
			c1.104,0,2-0.896,2-2c0-1.105-0.896-2-2-2c-5.523,0-10-4.478-10-10c0-5.523,4.477-10,10-10c5.522,0,10,4.477,10,10v2
			c0,1.104-0.896,2-2,2s-2-0.896-2-2v-5.633v-0.367c0-1.105-0.896-2-2-2c-0.555,0-1.056,0.226-1.418,0.59
			c-0.783-0.374-1.656-0.59-2.582-0.59c-3.314,0-6,2.686-6,6c0,3.313,2.686,6,6,6c1.071,0,2.075-0.284,2.945-0.776
			c1.065,1.668,2.929,2.776,5.055,2.776c3.176,0,5.77-2.471,5.979-5.594c0.012-0.111,0.021-0.234,0.021-0.383
			C46.006,38.015,46.005,38.011,46.005,38.007z M32.006,37.996c-1.105,0-2-0.896-2-2s0.895-2,2-2c1.104,0,2,0.896,2,2
			S33.11,37.996,32.006,37.996z"/>
	</g>
</g>
<g id="Btns_31_">
	<g>
		<path style="fill-rule:evenodd;clip-rule:evenodd;fill:#FFFFFF;" d="M46.005,3.994c-0.086,0-0.168,0.015-0.251,0.025H6.006
			c-1.104,0-2,0.896-2,2s0.896,2,2,2h40c1.104,0,2-0.896,2-2c0-0.004-0.001-0.008-0.001-0.012S48.006,6,48.006,5.996
			C48.006,4.89,47.11,3.994,46.005,3.994z M52.006,3.994c-1.105,0-2,0.896-2,2.002c0,1.104,0.895,1.999,2,1.999
			c1.104,0,2-0.896,2-1.999C54.006,4.89,53.11,3.994,52.006,3.994z M58.006,3.994c-1.104,0-2,0.896-2,2.002
			c0,1.104,0.896,1.999,2,1.999s2-0.896,2-1.999C60.006,4.89,59.11,3.994,58.006,3.994z"/>
	</g>
</g>
<g>
</g>
<g>
</g>
<g>
</g>
<g>
</g>
<g>
</g>
<g>
</g>
<g>
</g>
<g>
</g>
<g>
</g>
<g>
</g>
<g>
</g>
<g>
</g>
<g>
</g>
<g>
</g>
<g>
</g>
</svg>
