<?xml version="1.0" encoding="iso-8859-1"?>
<!-- Generator: Adobe Illustrator 16.0.0, SVG Export Plug-In . SVG Version: 6.00 Build 0)  -->
<!DOCTYPE svg PUBLIC "-//W3C//DTD SVG 1.1//EN" "http://www.w3.org/Graphics/SVG/1.1/DTD/svg11.dtd">
<svg version="1.1" id="Layer_1" xmlns="http://www.w3.org/2000/svg" xmlns:xlink="http://www.w3.org/1999/xlink" x="0px" y="0px"
	 width="64.006px" height="63.984px" viewBox="0 0 64.006 63.984" style="enable-background:new 0 0 64.006 63.984;"
	 xml:space="preserve">
<g id="Bar_53_">
	<g>
		<path style="fill:#CCCCCC;" d="M60.307,0.003C60.303,0.003,60.3,0,60.296,0H3.71C3.706,0,3.703,0.003,3.699,0.003
			C1.655,0.009,0,1.614,0,3.595v6.39v50.291c0,2.047,1.661,3.709,3.71,3.709h56.586c2.049,0,3.71-1.662,3.71-3.709V9.984v-6.39
			C64.006,1.614,62.351,0.009,60.307,0.003z"/>
	</g>
</g>
<g id="Container_52_">
	<g>
		<path style="fill:#FFFFFF;" d="M58.006,11.994h-52h-2v2v12v31.999c0,1.105,0.896,2.001,2,2.001h52c1.104,0,2-0.896,2-2.001V25.994
			v-12v-2H58.006z"/>
	</g>
</g>
<g id="Arrow_7_">
	<g>
		<path style="fill-rule:evenodd;clip-rule:evenodd;fill:#48A0DC;" d="M44.006,21.993h-6c-1.104,0-2,0.895-2,1.999
			c0,1.105,0.896,1.999,2,1.999h1.052l-4.413,4.468c-0.811,0.817-0.811,2.141-0.001,2.956c0.81,0.816,2.122,0.816,2.933,0
			l4.43-4.485v1.063c0,1.104,0.896,2.001,2,2.001s2-0.896,2-2.001v-6.001C46.006,22.888,45.11,21.993,44.006,21.993z M26.479,38.632
			l-4.453,4.462v-1.058c0-1.1-0.899-1.991-2.011-1.991c-1.109,0-2.01,0.892-2.01,1.991v5.968c0,1.099,0.9,1.99,2.01,1.99h6.032
			c1.11,0,2.01-0.892,2.01-1.99s-0.899-1.988-2.01-1.988h-1.057l4.436-4.444c0.813-0.812,0.813-2.129,0-2.939
			C28.613,37.819,27.294,37.819,26.479,38.632z M43.994,39.994c-1.097,0-1.984,0.895-1.984,1.999v1.051l-4.434-4.412
			c-0.811-0.811-2.124-0.811-2.934,0c-0.811,0.809-0.811,2.122,0,2.932l4.451,4.43h-1.051c-1.097,0-1.985,0.895-1.985,2.001
			c0,1.104,0.889,2,1.985,2h5.951c1.096,0,1.985-0.896,1.985-2v-6.001C45.979,40.889,45.09,39.994,43.994,39.994z M24.953,26.015
			h1.057c1.103,0,1.996-0.9,1.996-2.011c0-1.109-0.894-2.01-1.996-2.01h-5.982c-1.102,0-1.995,0.9-1.995,2.01v6.031
			c0,1.109,0.894,2.01,1.995,2.01c1.104,0,1.995-0.9,1.995-2.01v-1.057l4.457,4.435c0.814,0.815,2.135,0.816,2.948,0.002
			c0.815-0.814,0.815-2.134,0-2.947L24.953,26.015z"/>
	</g>
</g>
<g id="Btns_49_">
	<g>
		<path style="fill-rule:evenodd;clip-rule:evenodd;fill:#FFFFFF;" d="M46.006,3.994c-0.007,0-0.013,0.002-0.02,0.002H6.006
			c-1.104,0-2,0.896-2,2s0.896,2,2,2h40c1.104,0,2-0.896,2-2c0-0.001,0-0.001,0-0.001C48.006,4.89,47.11,3.994,46.006,3.994z
			 M52.006,3.994c-1.104,0-2,0.896-2,2.001c0,1.104,0.896,2,2,2s2-0.896,2-2C54.006,4.89,53.11,3.994,52.006,3.994z M58.006,3.994
			c-1.104,0-2,0.896-2,2.001c0,1.104,0.896,2,2,2s2-0.896,2-2C60.006,4.89,59.11,3.994,58.006,3.994z"/>
	</g>
</g>
<g>
</g>
<g>
</g>
<g>
</g>
<g>
</g>
<g>
</g>
<g>
</g>
<g>
</g>
<g>
</g>
<g>
</g>
<g>
</g>
<g>
</g>
<g>
</g>
<g>
</g>
<g>
</g>
<g>
</g>
</svg>
