<?xml version="1.0" encoding="iso-8859-1"?>
<!-- Generator: Adobe Illustrator 16.0.0, SVG Export Plug-In . SVG Version: 6.00 Build 0)  -->
<!DOCTYPE svg PUBLIC "-//W3C//DTD SVG 1.1//EN" "http://www.w3.org/Graphics/SVG/1.1/DTD/svg11.dtd">
<svg version="1.1" id="Layer_1" xmlns="http://www.w3.org/2000/svg" xmlns:xlink="http://www.w3.org/1999/xlink" x="0px" y="0px"
	 width="68px" height="64.046px" viewBox="0 0 68 64.046" style="enable-background:new 0 0 68 64.046;" xml:space="preserve">
<g id="Bar_13_">
	<g>
		<path style="fill:#CCCCCC;" d="M62.301,0.002C62.297,0.002,62.294,0,62.29,0H5.704C5.7,0,5.697,0.002,5.693,0.002
			C3.649,0.008,1.994,1.615,1.994,3.598v6.395v50.341c0,2.05,1.661,3.713,3.71,3.713H62.29c2.049,0,3.71-1.663,3.71-3.713V9.992
			V3.598C66,1.615,64.345,0.008,62.301,0.002z"/>
	</g>
</g>
<g id="Bar_14_">
	<g>
		<path style="fill-rule:evenodd;clip-rule:evenodd;fill:#48A0DC;" d="M5.704,64.046H62.29c0.09,0,0.174-0.021,0.262-0.026H5.442
			C5.531,64.025,5.614,64.046,5.704,64.046z M62.301,0.002C62.297,0.002,62.294,0,62.29,0H5.704C5.7,0,5.697,0.002,5.693,0.002
			C3.649,0.008,1.994,1.615,1.994,3.598v6.395v50.341c0,0.02,0.006,0.038,0.006,0.059V32.02h64V9.992V3.598
			C66,1.615,64.345,0.008,62.301,0.002z"/>
	</g>
</g>
<g id="Container_13_">
	<g>
		<path style="fill:#FFFFFF;" d="M60,12.006H8H6v2.002V26.02v32.03c0,1.106,0.895,2.003,2,2.003h52c1.104,0,2-0.896,2-2.003V26.02
			V14.008v-2.002H60z"/>
	</g>
</g>
<g id="Dots">
	<g>
		<path style="fill-rule:evenodd;clip-rule:evenodd;fill:#999999;" d="M18,30.02h-4c-1.104,0-2,0.896-2,2s0.896,2,2,2h4
			c1.104,0,2-0.896,2-2S19.104,30.02,18,30.02z M30,30.02h-4c-1.104,0-2,0.896-2,2s0.896,2,2,2h4c1.104,0,2-0.896,2-2
			S31.104,30.02,30,30.02z M6,30.02H2v4h4c1.104,0,2-0.896,2-2S7.104,30.02,6,30.02z M62,30.02c-1.104,0-2,0.896-2,2s0.896,2,2,2h4
			v-4H62z M42,30.02h-4c-1.104,0-2,0.896-2,2s0.896,2,2,2h4c1.104,0,2-0.896,2-2S43.104,30.02,42,30.02z M54,30.02h-4
			c-1.104,0-2,0.896-2,2s0.896,2,2,2h4c1.104,0,2-0.896,2-2S55.104,30.02,54,30.02z"/>
	</g>
</g>
<g id="Btns_12_">
	<g>
		<path style="fill-rule:evenodd;clip-rule:evenodd;fill:#FFFFFF;" d="M48,3.999c-0.069,0-0.136,0.014-0.203,0.021H8
			c-1.104,0-2,0.896-2,2s0.896,2,2,2h40c1.104,0,2-0.896,2-2c0-0.003-0.001-0.006-0.001-0.009S50,6.005,50,6.002
			C50,4.895,49.104,3.999,48,3.999z M54,3.999c-1.104,0-2,0.896-2,2.003c0,1.104,0.896,2.001,2,2.001s2-0.896,2-2.001
			C56,4.895,55.104,3.999,54,3.999z M60,3.999c-1.104,0-2,0.896-2,2.003c0,1.104,0.896,2.001,2,2.001s2-0.896,2-2.001
			C62,4.895,61.104,3.999,60,3.999z"/>
	</g>
</g>
<g>
</g>
<g>
</g>
<g>
</g>
<g>
</g>
<g>
</g>
<g>
</g>
<g>
</g>
<g>
</g>
<g>
</g>
<g>
</g>
<g>
</g>
<g>
</g>
<g>
</g>
<g>
</g>
<g>
</g>
</svg>
