<?xml version="1.0" encoding="iso-8859-1"?>
<!-- Generator: Adobe Illustrator 16.0.0, SVG Export Plug-In . SVG Version: 6.00 Build 0)  -->
<!DOCTYPE svg PUBLIC "-//W3C//DTD SVG 1.1//EN" "http://www.w3.org/Graphics/SVG/1.1/DTD/svg11.dtd">
<svg version="1.1" id="Layer_1" xmlns="http://www.w3.org/2000/svg" xmlns:xlink="http://www.w3.org/1999/xlink" x="0px" y="0px"
	 width="64.006px" height="64.046px" viewBox="0 0 64.006 64.046" style="enable-background:new 0 0 64.006 64.046;"
	 xml:space="preserve">
<g id="Bar_19_">
	<g>
		<path style="fill:#CCCCCC;" d="M60.307,0.002C60.303,0.002,60.3,0,60.296,0H3.71C3.707,0,3.703,0.002,3.699,0.002
			C1.655,0.008,0,1.615,0,3.598v6.395v50.341c0,2.05,1.661,3.713,3.71,3.713h56.585c2.049,0,3.71-1.663,3.71-3.713V9.992V3.598
			C64.006,1.615,62.351,0.008,60.307,0.002z"/>
	</g>
</g>
<g id="Container_18_">
	<g>
		<path style="fill:#FFFFFF;" d="M58.006,12.006h-52h-2v2.002V26.02v32.03c0,1.106,0.895,2.003,2,2.003h52c1.104,0,2-0.896,2-2.003
			V26.02V14.008v-2.002H58.006z"/>
	</g>
</g>
<g id="Sidebar_3_">
	<g>
		<path style="fill-rule:evenodd;clip-rule:evenodd;fill:#48A0DC;" d="M38.005,12.006h-32h-2v2.002V26.02v32.03
			c0,1.106,0.895,2.003,2,2.003h32c0.113,0,0.221-0.016,0.329-0.033h1.672v-1.97v-2.03v-30V14.008v-2.002H38.005z"/>
	</g>
</g>
<g id="Arrow_3_">
	<g>
		<path style="fill-rule:evenodd;clip-rule:evenodd;fill:#FFFFFF;" d="M40.004,34.044h-11.09l2.5-2.501
			c0.81-0.81,0.81-2.123,0-2.933c-0.809-0.81-2.121-0.81-2.931,0l-5.86,5.864c-0.326,0.326-0.51,0.733-0.573,1.156
			c-0.029,0.136-0.045,0.276-0.045,0.421c0,0.563,0.233,1.071,0.606,1.437c0.015,0.017,0.024,0.036,0.04,0.053l5.846,5.889
			c0.807,0.814,2.115,0.814,2.922,0c0.807-0.813,0.807-2.131,0-2.943l-2.409-2.427h10.995c1.105,0,2-0.899,2-2.008
			C42.004,34.942,41.109,34.044,40.004,34.044z"/>
	</g>
</g>
<g id="Btns_17_">
	<g>
		<path style="fill-rule:evenodd;clip-rule:evenodd;fill:#FFFFFF;" d="M46.005,3.999c-0.07,0-0.135,0.014-0.203,0.021H6.006
			c-1.104,0-2,0.896-2,2s0.896,2,2,2h40c1.104,0,2-0.896,2-2c0-0.003-0.001-0.006-0.001-0.009s0.001-0.006,0.001-0.009
			C48.006,4.895,47.11,3.999,46.005,3.999z M52.006,3.999c-1.105,0-2,0.896-2,2.003c0,1.104,0.895,2.001,2,2.001
			c1.104,0,2-0.896,2-2.001C54.006,4.895,53.11,3.999,52.006,3.999z M58.006,3.999c-1.104,0-2,0.896-2,2.003
			c0,1.104,0.896,2.001,2,2.001s2-0.896,2-2.001C60.006,4.895,59.11,3.999,58.006,3.999z"/>
	</g>
</g>
<g>
</g>
<g>
</g>
<g>
</g>
<g>
</g>
<g>
</g>
<g>
</g>
<g>
</g>
<g>
</g>
<g>
</g>
<g>
</g>
<g>
</g>
<g>
</g>
<g>
</g>
<g>
</g>
<g>
</g>
</svg>
