<?xml version="1.0" encoding="iso-8859-1"?>
<!-- Generator: Adobe Illustrator 16.0.0, SVG Export Plug-In . SVG Version: 6.00 Build 0)  -->
<!DOCTYPE svg PUBLIC "-//W3C//DTD SVG 1.1//EN" "http://www.w3.org/Graphics/SVG/1.1/DTD/svg11.dtd">
<svg version="1.1" id="Layer_1" xmlns="http://www.w3.org/2000/svg" xmlns:xlink="http://www.w3.org/1999/xlink" x="0px" y="0px"
	 width="67.864px" height="64.059px" viewBox="0 0 67.864 64.059" style="enable-background:new 0 0 67.864 64.059;"
	 xml:space="preserve">
<g id="Body_1_">
	<g>
		<path style="fill-rule:evenodd;clip-rule:evenodd;fill:#CCCCCC;" d="M60,0H4C1.791,0,0,1.79,0,4v39.999c0,2.21,1.791,4,4,4h18.44
			c-0.101,1.37-0.437,5.588-0.688,6.037c-0.299,0.534-3.263,0.992-3.793,1.247c-0.229,0.11-0.269,0.235-0.215,0.338
			c0,0.006-0.002,0.013-0.002,0.02c0,0.196,0.16,0.355,0.358,0.355h23.36c-1.974-2.294-1.943-5.692,0.102-7.947
			c-0.001-0.016-0.003-0.036-0.004-0.05h0.045c0.054-0.059,0.093-0.126,0.149-0.183c2.354-2.358,6.18-2.358,8.538,0l0.183,0.183
			h2.838l4.304-4.303c1.728-1.73,4.234-2.182,6.384-1.384V4C64,1.79,62.209,0,60,0z M60,38c0,1.104-0.896,1.999-2,1.999H6
			c-1.104,0-2-0.896-2-1.999V6c0-1.105,0.896-2,2-2h52c1.104,0,2,0.895,2,2V38z"/>
	</g>
</g>
<g id="Ok_1_">
	<g>
		<path style="fill-rule:evenodd;clip-rule:evenodd;fill:#88C057;" d="M63.393,46.565c-0.788-0.79-2.066-0.79-2.854,0l-8.521,8.52
			l-4.509-4.516c-0.807-0.809-2.114-0.809-2.921,0s-0.807,2.117,0,2.926l5.841,5.851c0.207,0.208,0.448,0.36,0.705,0.461
			c0.746,0.344,1.656,0.215,2.271-0.4l9.988-9.988C64.181,48.631,64.181,47.352,63.393,46.565z"/>
	</g>
</g>
<g>
</g>
<g>
</g>
<g>
</g>
<g>
</g>
<g>
</g>
<g>
</g>
<g>
</g>
<g>
</g>
<g>
</g>
<g>
</g>
<g>
</g>
<g>
</g>
<g>
</g>
<g>
</g>
<g>
</g>
</svg>
