<?xml version="1.0" encoding="iso-8859-1"?>
<!-- Generator: Adobe Illustrator 16.0.0, SVG Export Plug-In . SVG Version: 6.00 Build 0)  -->
<!DOCTYPE svg PUBLIC "-//W3C//DTD SVG 1.1//EN" "http://www.w3.org/Graphics/SVG/1.1/DTD/svg11.dtd">
<svg version="1.1" id="Layer_1" xmlns="http://www.w3.org/2000/svg" xmlns:xlink="http://www.w3.org/1999/xlink" x="0px" y="0px"
	 width="64.001px" height="64.001px" viewBox="0 0 64.001 64.001" style="enable-background:new 0 0 64.001 64.001;"
	 xml:space="preserve">
<g id="Computer_3_">
	<g>
		<path style="fill:#CCCCCC;" d="M60.001,0h-56c-2.209,0-4,1.79-4,4v39.999c0,2.21,1.791,4,4,4h18.44
			c-0.101,1.37-0.437,5.588-0.688,6.037c-0.299,0.534-3.263,0.992-3.793,1.247c-0.229,0.11-0.269,0.236-0.215,0.337
			c0,0.007-0.002,0.013-0.002,0.021c0,0.196,0.16,0.355,0.358,0.355h27.854c0.198,0,0.388-0.141,0.388-0.338
			c0-0.185-0.117-0.309-0.264-0.354c-0.013-0.007-0.025-0.014-0.039-0.021c-0.53-0.255-3.494-0.713-3.793-1.247
			c-0.251-0.449-0.586-4.667-0.688-6.037h18.44c2.209,0,4-1.79,4-4V4C64.001,1.79,62.21,0,60.001,0z M60.001,38
			c0,1.104-0.896,1.999-2,1.999h-52c-1.104,0-2-0.896-2-1.999V6c0-1.105,0.896-2,2-2h52c1.104,0,2,0.895,2,2V38z"/>
	</g>
</g>
<g id="Tablet_3_">
	<g>
		<path style="fill:#48A0DC;" d="M36,8H4.001C1.791,8,0,9.792,0,12.001v48c0,2.208,1.791,4,4.001,4H36c2.21,0,4.001-1.792,4.001-4
			v-48C40.001,9.792,38.21,8,36,8z"/>
	</g>
</g>
<g id="Screen__x26__Home_Btn_9_">
	<g>
		<path style="fill-rule:evenodd;clip-rule:evenodd;fill:#FFFFFF;" d="M4.001,14.002v39.999H36V14.002H4.001z M20.001,56.001
			c-1.105,0-2,0.896-2,2s0.895,2,2,2c1.104,0,1.999-0.896,1.999-2S21.105,56.001,20.001,56.001z"/>
	</g>
</g>
<g>
</g>
<g>
</g>
<g>
</g>
<g>
</g>
<g>
</g>
<g>
</g>
<g>
</g>
<g>
</g>
<g>
</g>
<g>
</g>
<g>
</g>
<g>
</g>
<g>
</g>
<g>
</g>
<g>
</g>
</svg>
