<?xml version="1.0" encoding="iso-8859-1"?>
<!-- Generator: Adobe Illustrator 16.0.0, SVG Export Plug-In . SVG Version: 6.00 Build 0)  -->
<!DOCTYPE svg PUBLIC "-//W3C//DTD SVG 1.1//EN" "http://www.w3.org/Graphics/SVG/1.1/DTD/svg11.dtd">
<svg version="1.1" id="Layer_1" xmlns="http://www.w3.org/2000/svg" xmlns:xlink="http://www.w3.org/1999/xlink" x="0px" y="0px"
	 width="68.017px" height="63.997px" viewBox="0 0 68.017 63.997" style="enable-background:new 0 0 68.017 63.997;"
	 xml:space="preserve">
<g id="Body">
	<g>
		<path style="fill-rule:evenodd;clip-rule:evenodd;fill:#CCCCCC;" d="M42.247,54.036c-0.251-0.449-0.586-4.667-0.687-6.037h2.811
			c-0.756-2.127-0.302-4.588,1.401-6.291c1.02-1.02,2.315-1.571,3.646-1.709H6c-1.104,0-2-0.896-2-1.999V6c0-1.105,0.896-2,2-2h52
			c1.104,0,2,0.895,2,2v32c0,1.104-0.896,1.999-2,1.999h-7.334c1.33,0.138,2.627,0.689,3.646,1.709l1.646,1.646l1.658-1.658
			c1.728-1.73,4.234-2.182,6.384-1.384V4c0-2.21-1.791-4-4-4H4C1.791,0,0,1.79,0,4v39.999c0,2.21,1.791,4,4,4h18.44
			c-0.101,1.37-0.437,5.588-0.688,6.037c-0.299,0.534-3.263,0.992-3.793,1.247c-0.229,0.11-0.269,0.235-0.215,0.338
			c0,0.006-0.002,0.013-0.002,0.02c0,0.196,0.16,0.355,0.358,0.355h26.12c0.126-0.371,0.288-0.728,0.488-1.073
			C43.681,54.679,42.436,54.373,42.247,54.036z"/>
	</g>
</g>
<g id="Remove_2_">
	<g>
		<path style="fill-rule:evenodd;clip-rule:evenodd;fill:#ED7161;" d="M63.43,56.726l-4.703-4.702l4.703-4.702
			c0.742-0.744,0.742-1.948,0-2.691c-0.743-0.743-1.948-0.743-2.691,0l-4.703,4.703l-4.762-4.762c-0.746-0.748-1.955-0.748-2.701,0
			c-0.746,0.744-0.746,1.954,0,2.7l4.763,4.762l-4.705,4.706c-0.743,0.744-0.743,1.947,0,2.69s1.947,0.743,2.69,0l4.705-4.705
			l4.703,4.702c0.746,0.747,1.955,0.747,2.701,0C64.176,58.682,64.176,57.472,63.43,56.726z"/>
	</g>
</g>
<g>
</g>
<g>
</g>
<g>
</g>
<g>
</g>
<g>
</g>
<g>
</g>
<g>
</g>
<g>
</g>
<g>
</g>
<g>
</g>
<g>
</g>
<g>
</g>
<g>
</g>
<g>
</g>
<g>
</g>
</svg>
