<?xml version="1.0" encoding="iso-8859-1"?>
<!-- Generator: Adobe Illustrator 16.0.0, SVG Export Plug-In . SVG Version: 6.00 Build 0)  -->
<!DOCTYPE svg PUBLIC "-//W3C//DTD SVG 1.1//EN" "http://www.w3.org/Graphics/SVG/1.1/DTD/svg11.dtd">
<svg version="1.1" id="Layer_1" xmlns="http://www.w3.org/2000/svg" xmlns:xlink="http://www.w3.org/1999/xlink" x="0px" y="0px"
	 width="64px" height="64.001px" viewBox="0 0 64 64.001" style="enable-background:new 0 0 64 64.001;" xml:space="preserve">
<g id="Computer_5_">
	<g>
		<path style="fill:#CCCCCC;" d="M60,0H4C1.791,0,0,1.791,0,4.001V44c0,2.21,1.791,4.001,4,4.001h22.44
			c-0.101,1.369-0.437,5.587-0.688,6.036c-0.299,0.534-3.263,0.992-3.793,1.247c-0.229,0.11-0.269,0.236-0.215,0.337
			c-0.001,0.007-0.002,0.013-0.002,0.021c0,0.196,0.16,0.355,0.358,0.355h19.854c0.198,0,0.388-0.141,0.388-0.338
			c0-0.185-0.117-0.309-0.264-0.354c-0.013-0.007-0.025-0.014-0.039-0.021c-0.529-0.255-3.494-0.713-3.793-1.247
			c-0.251-0.449-0.586-4.667-0.688-6.036H60c2.209,0,4-1.791,4-4.001V4.001C64,1.791,62.209,0,60,0z M60,38.001
			C60,39.105,59.104,40,58,40H6c-1.104,0-2-0.895-2-1.999v-32c0-1.105,0.896-2,2-2h52c1.104,0,2,0.895,2,2V38.001z"/>
	</g>
</g>
<g id="Phone_3_">
	<g>
		<path style="fill-rule:evenodd;clip-rule:evenodd;fill:#ED7161;" d="M60,8.001H36c-2.209,0-4,1.791-4,4.001v48
			c0,2.208,1.791,3.999,4,3.999h24c2.209,0,4-1.791,4-3.999v-48C64,9.792,62.209,8.001,60,8.001z M48,60.002c-1.104,0-2-0.896-2-2
			s0.896-2,2-2s2,0.896,2,2S49.104,60.002,48,60.002z"/>
	</g>
</g>
<g id="Screen__x26__Home_Btn_11_">
	<g>
		<rect x="36" y="14.003" style="fill:#FFFFFF;" width="24" height="39.999"/>
	</g>
</g>
<g>
</g>
<g>
</g>
<g>
</g>
<g>
</g>
<g>
</g>
<g>
</g>
<g>
</g>
<g>
</g>
<g>
</g>
<g>
</g>
<g>
</g>
<g>
</g>
<g>
</g>
<g>
</g>
<g>
</g>
</svg>
