<?xml version="1.0" encoding="iso-8859-1"?>
<!-- Generator: Adobe Illustrator 16.0.0, SVG Export Plug-In . SVG Version: 6.00 Build 0)  -->
<!DOCTYPE svg PUBLIC "-//W3C//DTD SVG 1.1//EN" "http://www.w3.org/Graphics/SVG/1.1/DTD/svg11.dtd">
<svg version="1.1" id="Layer_1" xmlns="http://www.w3.org/2000/svg" xmlns:xlink="http://www.w3.org/1999/xlink" x="0px" y="0px"
	 width="68px" height="64px" viewBox="0 0 68 64" style="enable-background:new 0 0 68 64;" xml:space="preserve">
<g id="Computer_1_">
	<g>
		<path style="fill-rule:evenodd;clip-rule:evenodd;fill:#CCCCCC;" d="M36,48c0-2.918,0.794-5.646,2.158-8.001H6
			c-1.104,0-2-0.896-2-2V6c0-1.105,0.896-2,2-2h52c1.104,0,2,0.895,2,2v28.158c1.508,0.874,2.855,1.984,4,3.284V4
			c0-2.21-1.791-4-4-4H4C1.791,0,0,1.79,0,4v39.999C0,46.209,1.791,48,4,48h18.44c-0.101,1.369-0.437,5.587-0.688,6.036
			c-0.299,0.534-3.263,0.992-3.793,1.247c-0.229,0.11-0.269,0.235-0.215,0.337c0,0.007-0.002,0.014-0.002,0.021
			c0,0.196,0.16,0.354,0.358,0.354h20.054C36.792,53.641,36,50.916,36,48z"/>
	</g>
</g>
<g id="Elipse_1_">
	<g>
		<circle style="fill:#88C057;" cx="52" cy="48" r="12"/>
	</g>
</g>
<g id="Plus">
	<g>
		<path style="fill:#FFFFFF;" d="M56,46h-2.001v-2.001C53.999,42.895,53.104,42,52,42c-1.105,0-2,0.895-2,1.999V46h-2
			c-1.105,0-2,0.895-2,2c0,1.103,0.895,1.998,2,1.998h2v2C50,53.105,50.895,54,52,54c1.104,0,1.999-0.895,1.999-2.002v-2H56
			c1.105,0,1.999-0.896,1.999-1.998C57.999,46.895,57.105,46,56,46z"/>
	</g>
</g>
<g>
</g>
<g>
</g>
<g>
</g>
<g>
</g>
<g>
</g>
<g>
</g>
<g>
</g>
<g>
</g>
<g>
</g>
<g>
</g>
<g>
</g>
<g>
</g>
<g>
</g>
<g>
</g>
<g>
</g>
</svg>
