<?xml version="1.0" encoding="iso-8859-1"?>
<!-- Generator: Adobe Illustrator 16.0.0, SVG Export Plug-In . SVG Version: 6.00 Build 0)  -->
<!DOCTYPE svg PUBLIC "-//W3C//DTD SVG 1.1//EN" "http://www.w3.org/Graphics/SVG/1.1/DTD/svg11.dtd">
<svg version="1.1" id="Layer_1" xmlns="http://www.w3.org/2000/svg" xmlns:xlink="http://www.w3.org/1999/xlink" x="0px" y="0px"
	 width="64px" height="64px" viewBox="0 0 64 64" style="enable-background:new 0 0 64 64;" xml:space="preserve">
<g id="Computer_2_">
	<g>
		<path style="fill:#CCCCCC;" d="M60,0H4C1.791,0,0,1.79,0,4v39.999c0,2.21,1.791,4,4,4h18.44c-0.101,1.37-0.437,5.588-0.688,6.037
			c-0.299,0.534-3.263,0.992-3.793,1.247c-0.229,0.11-0.269,0.236-0.215,0.337c0,0.007-0.002,0.013-0.002,0.021
			c0,0.196,0.16,0.355,0.358,0.355h27.854c0.198,0,0.388-0.141,0.388-0.338c0-0.185-0.117-0.309-0.264-0.354
			c-0.013-0.007-0.025-0.014-0.039-0.021c-0.529-0.255-3.494-0.713-3.793-1.247c-0.251-0.449-0.586-4.667-0.687-6.037H60
			c2.209,0,4-1.79,4-4V4C64,1.79,62.209,0,60,0z M60,38c0,1.104-0.896,1.999-2,1.999H6c-1.104,0-2-0.896-2-1.999V6
			c0-1.105,0.896-2,2-2h52c1.104,0,2,0.895,2,2V38z"/>
	</g>
</g>
<g id="Tablet_2_">
	<g>
		<path style="fill:#48A0DC;" d="M59.999,23.999h-48c-2.209,0-4,1.791-4,4v32c0,2.209,1.791,4.001,4,4.001h48
			C62.208,64,64,62.208,64,59.999v-32C64,25.79,62.208,23.999,59.999,23.999z"/>
	</g>
</g>
<g id="Screen__x26__Home_Btn_8_">
	<g>
		<path style="fill-rule:evenodd;clip-rule:evenodd;fill:#FFFFFF;" d="M17.999,27.999v32h40v-32H17.999z M14,42
			c-1.105,0-2.001,0.896-2.001,2s0.896,2,2.001,2c1.104,0,2-0.896,2-2S15.104,42,14,42z"/>
	</g>
</g>
<g>
</g>
<g>
</g>
<g>
</g>
<g>
</g>
<g>
</g>
<g>
</g>
<g>
</g>
<g>
</g>
<g>
</g>
<g>
</g>
<g>
</g>
<g>
</g>
<g>
</g>
<g>
</g>
<g>
</g>
</svg>
