<?xml version="1.0" encoding="iso-8859-1"?>
<!-- Generator: Adobe Illustrator 16.0.0, SVG Export Plug-In . SVG Version: 6.00 Build 0)  -->
<!DOCTYPE svg PUBLIC "-//W3C//DTD SVG 1.1//EN" "http://www.w3.org/Graphics/SVG/1.1/DTD/svg11.dtd">
<svg version="1.1" id="Layer_1" xmlns="http://www.w3.org/2000/svg" xmlns:xlink="http://www.w3.org/1999/xlink" x="0px" y="0px"
	 width="64.001px" height="64.001px" viewBox="0 0 64.001 64.001" style="enable-background:new 0 0 64.001 64.001;"
	 xml:space="preserve">
<g id="Computer_4_">
	<g>
		<path style="fill:#CCCCCC;" d="M60.001,0h-56c-2.209,0-4,1.791-4,4.001V44c0,2.21,1.791,4.001,4,4.001h22.44
			c-0.101,1.369-0.437,5.587-0.688,6.036c-0.299,0.534-3.263,0.992-3.793,1.247c-0.229,0.11-0.269,0.236-0.215,0.337
			c-0.001,0.007-0.002,0.013-0.002,0.021c0,0.196,0.16,0.355,0.358,0.355h19.854c0.198,0,0.388-0.141,0.388-0.338
			c0-0.185-0.117-0.309-0.264-0.354c-0.013-0.007-0.025-0.014-0.039-0.021c-0.529-0.255-3.494-0.713-3.793-1.247
			c-0.251-0.449-0.586-4.667-0.688-6.036h22.44c2.209,0,4-1.791,4-4.001V4.001C64.001,1.791,62.21,0,60.001,0z M60.001,38.001
			c0,1.104-0.896,1.999-2,1.999h-52c-1.104,0-2-0.895-2-1.999v-32c0-1.105,0.896-2,2-2h52c1.104,0,2,0.895,2,2V38.001z"/>
	</g>
</g>
<g id="Phone_2_">
	<g>
		<path style="fill:#ED7161;" d="M52,32.001H4c-2.209,0-4,1.79-4,4v24c0,2.209,1.791,4,4,4h48c2.21,0,4.001-1.791,4.001-4v-24
			C56.001,33.791,54.21,32.001,52,32.001z"/>
	</g>
</g>
<g id="Screen__x26__Home_Btn_10_">
	<g>
		<path style="fill-rule:evenodd;clip-rule:evenodd;fill:#FFFFFF;" d="M10,36.001v24h39.999v-24H10z M6.001,46.001
			C4.896,46.001,4,46.896,4,48.002c0,1.104,0.896,1.999,2.001,1.999c1.104,0,2-0.896,2-1.999
			C8.001,46.896,7.104,46.001,6.001,46.001z"/>
	</g>
</g>
<g>
</g>
<g>
</g>
<g>
</g>
<g>
</g>
<g>
</g>
<g>
</g>
<g>
</g>
<g>
</g>
<g>
</g>
<g>
</g>
<g>
</g>
<g>
</g>
<g>
</g>
<g>
</g>
<g>
</g>
</svg>
