<?xml version="1.0" encoding="iso-8859-1"?>
<!-- Generator: Adobe Illustrator 16.0.0, SVG Export Plug-In . SVG Version: 6.00 Build 0)  -->
<!DOCTYPE svg PUBLIC "-//W3C//DTD SVG 1.1//EN" "http://www.w3.org/Graphics/SVG/1.1/DTD/svg11.dtd">
<svg version="1.1" id="Layer_1" xmlns="http://www.w3.org/2000/svg" xmlns:xlink="http://www.w3.org/1999/xlink" x="0px" y="0px"
	 width="49.87px" height="68.058px" viewBox="0 0 49.87 68.058" style="enable-background:new 0 0 49.87 68.058;"
	 xml:space="preserve">
<g id="Body_5_">
	<g>
		<path style="fill-rule:evenodd;clip-rule:evenodd;fill:#CCCCCC;" d="M23.76,60.352c-2.362-2.358-2.362-6.18,0-8.537
			c2.355-2.357,6.181-2.357,8.539,0l1.602,1.602l4.1-4.098V4.001C38,1.791,36.209,0,34,0H4C1.791,0,0,1.791,0,4.001v56
			c0,2.209,1.791,4,4,4h23.409L23.76,60.352z"/>
	</g>
</g>
<g id="Screen__x26__Home_Btn_3_">
	<g>
		<path style="fill-rule:evenodd;clip-rule:evenodd;fill:#FFFFFF;" d="M4,4.001V54h30V4.001H4z M19,56.001c-1.657,0-3,1.343-3,2.999
			c0,1.658,1.343,3.001,3,3.001s3-1.343,3-3.001C22,57.344,20.657,56.001,19,56.001z"/>
	</g>
</g>
<g id="Ok_3_">
	<g>
		<path style="fill-rule:evenodd;clip-rule:evenodd;fill:#88C057;" d="M45.393,50.565c-0.788-0.79-2.066-0.79-2.854,0l-8.522,8.521
			l-4.508-4.518c-0.807-0.808-2.114-0.808-2.921,0c-0.807,0.81-0.807,2.118,0,2.927l5.841,5.851c0.208,0.208,0.45,0.361,0.708,0.462
			c0.745,0.343,1.654,0.213,2.268-0.4l9.988-9.988C46.181,52.631,46.181,51.352,45.393,50.565z"/>
	</g>
</g>
<g>
</g>
<g>
</g>
<g>
</g>
<g>
</g>
<g>
</g>
<g>
</g>
<g>
</g>
<g>
</g>
<g>
</g>
<g>
</g>
<g>
</g>
<g>
</g>
<g>
</g>
<g>
</g>
<g>
</g>
</svg>
