<?xml version="1.0" encoding="iso-8859-1"?>
<!-- Generator: Adobe Illustrator 16.0.0, SVG Export Plug-In . SVG Version: 6.00 Build 0)  -->
<!DOCTYPE svg PUBLIC "-//W3C//DTD SVG 1.1//EN" "http://www.w3.org/Graphics/SVG/1.1/DTD/svg11.dtd">
<svg version="1.1" id="Layer_1" xmlns="http://www.w3.org/2000/svg" xmlns:xlink="http://www.w3.org/1999/xlink" x="0px" y="0px"
	 width="54px" height="68px" viewBox="0 0 54 68" style="enable-background:new 0 0 54 68;" xml:space="preserve">
<g id="Phone">
	<g>
		<path style="fill-rule:evenodd;clip-rule:evenodd;fill:#CCCCCC;" d="M22,52c0-8.836,7.163-16,16-16c0.679,0,1.343,0.056,2,0.138
			V4.001C40,1.792,38.209,0,36,0H4C1.791,0,0,1.792,0,4.001v56c0,2.208,1.791,4,4,4h23.442C24.112,61.069,22,56.786,22,52z"/>
	</g>
</g>
<g id="Screen__x26__Home_Btn_6_">
	<g>
		<path style="fill-rule:evenodd;clip-rule:evenodd;fill:#FFFFFF;" d="M4,8.002v47.999h32V8.002H4z M20,58.001
			c-1.104,0-2,0.896-2,1.999c0,1.105,0.896,2.001,2,2.001s2-0.896,2-2.001C22,58.896,21.104,58.001,20,58.001z"/>
	</g>
</g>
<g id="Elipse_4_">
	<g>
		<circle style="fill:#ED7161;" cx="38" cy="52" r="12"/>
	</g>
</g>
<g id="Minus_3_">
	<g>
		<path style="fill:#FFFFFF;" d="M42,50h-8c-1.105,0-2,0.894-2,1.999c0,1.104,0.895,1.999,2,1.999h8c1.104,0,2-0.896,2-1.999
			C44,50.894,43.104,50,42,50z"/>
	</g>
</g>
<g>
</g>
<g>
</g>
<g>
</g>
<g>
</g>
<g>
</g>
<g>
</g>
<g>
</g>
<g>
</g>
<g>
</g>
<g>
</g>
<g>
</g>
<g>
</g>
<g>
</g>
<g>
</g>
<g>
</g>
</svg>
