<?xml version="1.0" encoding="iso-8859-1"?>
<!-- Generator: Adobe Illustrator 16.0.0, SVG Export Plug-In . SVG Version: 6.00 Build 0)  -->
<!DOCTYPE svg PUBLIC "-//W3C//DTD SVG 1.1//EN" "http://www.w3.org/Graphics/SVG/1.1/DTD/svg11.dtd">
<svg version="1.1" id="Layer_1" xmlns="http://www.w3.org/2000/svg" xmlns:xlink="http://www.w3.org/1999/xlink" x="0px" y="0px"
	 width="48.017px" height="67.997px" viewBox="0 0 48.017 67.997" style="enable-background:new 0 0 48.017 67.997;"
	 xml:space="preserve">
<g id="Body_4_">
	<g>
		<path style="fill-rule:evenodd;clip-rule:evenodd;fill:#CCCCCC;" d="M27.417,55.893l-1.645-1.646
			c-2.359-2.358-2.359-6.181,0-8.539c2.358-2.358,6.181-2.358,8.54,0l1.646,1.646l1.658-1.658c0.12-0.12,0.257-0.207,0.384-0.314
			V4.001C38,1.791,36.209,0,34,0H4C1.791,0,0,1.791,0,4.001v56c0,2.209,1.791,4,4,4h20.256c-0.774-2.14-0.321-4.625,1.395-6.342
			L27.417,55.893z"/>
	</g>
</g>
<g id="Screen__x26__Home_Btn_2_">
	<g>
		<path style="fill-rule:evenodd;clip-rule:evenodd;fill:#FFFFFF;" d="M4,4.001V54h30V4.001H4z M19,56.001c-1.657,0-3,1.343-3,2.999
			c0,1.658,1.343,3.001,3,3.001c1.656,0,3-1.343,3-3.001C22,57.344,20.656,56.001,19,56.001z"/>
	</g>
</g>
<g id="Remove_4_">
	<g>
		<path style="fill-rule:evenodd;clip-rule:evenodd;fill:#ED7161;" d="M43.43,60.726l-4.703-4.702l4.703-4.702
			c0.742-0.744,0.742-1.948,0-2.691c-0.743-0.742-1.948-0.742-2.691,0l-4.703,4.703l-4.762-4.762c-0.746-0.748-1.955-0.748-2.701,0
			c-0.746,0.744-0.746,1.954,0,2.7l4.763,4.762l-4.705,4.706c-0.743,0.743-0.743,1.947,0,2.69s1.947,0.743,2.69,0l4.706-4.705
			l4.703,4.702c0.746,0.747,1.955,0.747,2.701,0C44.176,62.682,44.176,61.472,43.43,60.726z"/>
	</g>
</g>
<g>
</g>
<g>
</g>
<g>
</g>
<g>
</g>
<g>
</g>
<g>
</g>
<g>
</g>
<g>
</g>
<g>
</g>
<g>
</g>
<g>
</g>
<g>
</g>
<g>
</g>
<g>
</g>
<g>
</g>
</svg>
