<?xml version="1.0" encoding="iso-8859-1"?>
<!-- Generator: Adobe Illustrator 16.0.0, SVG Export Plug-In . SVG Version: 6.00 Build 0)  -->
<!DOCTYPE svg PUBLIC "-//W3C//DTD SVG 1.1//EN" "http://www.w3.org/Graphics/SVG/1.1/DTD/svg11.dtd">
<svg version="1.1" id="Layer_1" xmlns="http://www.w3.org/2000/svg" xmlns:xlink="http://www.w3.org/1999/xlink" x="0px" y="0px"
	 width="59.865px" height="68.058px" viewBox="0 0 59.865 68.058" style="enable-background:new 0 0 59.865 68.058;"
	 xml:space="preserve">
<g id="Body_3_">
	<g>
		<path style="fill-rule:evenodd;clip-rule:evenodd;fill:#CCCCCC;" d="M33.755,60.353c-2.361-2.357-2.361-6.18,0-8.537
			c2.354-2.357,6.18-2.357,8.538,0l1.602,1.602l2.106-2.106V4c0-2.21-1.791-4-4.001-4H4.001C1.791,0,0,1.79,0,4v56
			c0,2.209,1.791,4,4.001,4H37.4L33.755,60.353z"/>
	</g>
</g>
<g id="Screen__x26__Home_Btn_1_">
	<g>
		<path style="fill-rule:evenodd;clip-rule:evenodd;fill:#FFFFFF;" d="M4.001,4v49.999H42V4H4.001z M23.001,56
			c-1.658,0-3,1.343-3,2.999c0,1.658,1.342,3.001,3,3.001C24.657,62,26,60.657,26,58.999C26,57.343,24.657,56,23.001,56z"/>
	</g>
</g>
<g id="Ok_2_">
	<g>
		<path style="fill-rule:evenodd;clip-rule:evenodd;fill:#88C057;" d="M55.394,50.564c-0.788-0.79-2.065-0.79-2.854,0l-8.521,8.52
			l-4.509-4.517c-0.807-0.808-2.114-0.808-2.921,0c-0.807,0.81-0.807,2.118,0,2.927l5.841,5.851c0.208,0.208,0.45,0.361,0.707,0.462
			c0.745,0.343,1.654,0.213,2.269-0.4l9.988-9.988C56.182,52.63,56.182,51.351,55.394,50.564z"/>
	</g>
</g>
<g>
</g>
<g>
</g>
<g>
</g>
<g>
</g>
<g>
</g>
<g>
</g>
<g>
</g>
<g>
</g>
<g>
</g>
<g>
</g>
<g>
</g>
<g>
</g>
<g>
</g>
<g>
</g>
<g>
</g>
</svg>
