<?xml version="1.0" encoding="iso-8859-1"?>
<!-- Generator: Adobe Illustrator 16.0.0, SVG Export Plug-In . SVG Version: 6.00 Build 0)  -->
<!DOCTYPE svg PUBLIC "-//W3C//DTD SVG 1.1//EN" "http://www.w3.org/Graphics/SVG/1.1/DTD/svg11.dtd">
<svg version="1.1" id="Layer_1" xmlns="http://www.w3.org/2000/svg" xmlns:xlink="http://www.w3.org/1999/xlink" x="0px" y="0px"
	 width="62.001px" height="68px" viewBox="0 0 62.001 68" style="enable-background:new 0 0 62.001 68;" xml:space="preserve">
<g id="Tablet">
	<g>
		<path style="fill-rule:evenodd;clip-rule:evenodd;fill:#CCCCCC;" d="M30.001,52c0-8.836,7.163-16,16-16
			c0.679,0,1.344,0.056,2,0.138V4.001C48.001,1.792,46.21,0,44,0H4.001C1.791,0,0,1.792,0,4.001v56c0,2.209,1.791,4,4.001,4h31.442
			C32.113,61.069,30.001,56.786,30.001,52z"/>
	</g>
</g>
<g id="Screen__x26__Home_Btn_4_">
	<g>
		<path style="fill-rule:evenodd;clip-rule:evenodd;fill:#FFFFFF;" d="M4.001,8.002v47.999H44V8.002H4.001z M24.001,58.001
			c-1.105,0-2,0.896-2,1.999c0,1.105,0.895,2.001,2,2.001C25.105,62.001,26,61.105,26,60C26,58.896,25.105,58.001,24.001,58.001z"/>
	</g>
</g>
<g id="Elipse_2_">
	<g>
		<circle style="fill:#ED7161;" cx="46.001" cy="52" r="12"/>
	</g>
</g>
<g id="Minus_2_">
	<g>
		<path style="fill:#FFFFFF;" d="M50.001,50h-8c-1.105,0-2,0.894-2,1.999c0,1.104,0.895,1.999,2,1.999h8c1.104,0,2-0.896,2-1.999
			C52.001,50.894,51.105,50,50.001,50z"/>
	</g>
</g>
<g>
</g>
<g>
</g>
<g>
</g>
<g>
</g>
<g>
</g>
<g>
</g>
<g>
</g>
<g>
</g>
<g>
</g>
<g>
</g>
<g>
</g>
<g>
</g>
<g>
</g>
<g>
</g>
<g>
</g>
</svg>
