<?xml version="1.0" encoding="iso-8859-1"?>
<!-- Generator: Adobe Illustrator 16.0.0, SVG Export Plug-In . SVG Version: 6.00 Build 0)  -->
<!DOCTYPE svg PUBLIC "-//W3C//DTD SVG 1.1//EN" "http://www.w3.org/Graphics/SVG/1.1/DTD/svg11.dtd">
<svg version="1.1" id="Layer_1" xmlns="http://www.w3.org/2000/svg" xmlns:xlink="http://www.w3.org/1999/xlink" x="0px" y="0px"
	 width="56.018px" height="67.996px" viewBox="0 0 56.018 67.996" style="enable-background:new 0 0 56.018 67.996;"
	 xml:space="preserve">
<g id="Body_2_">
	<g>
		<path style="fill-rule:evenodd;clip-rule:evenodd;fill:#CCCCCC;" d="M35.419,55.892l-1.646-1.646
			c-2.359-2.358-2.359-6.181,0-8.539c2.358-2.358,6.181-2.358,8.54,0l1.646,1.646l1.658-1.658c0.119-0.12,0.257-0.207,0.384-0.314V4
			c0-2.21-1.791-4-4.001-4H4.001C1.791,0,0,1.79,0,4v56c0,2.209,1.791,4,4.001,4h28.256c-0.774-2.14-0.321-4.625,1.395-6.342
			L35.419,55.892z"/>
	</g>
</g>
<g id="Screen__x26__Home_Btn">
	<g>
		<path style="fill-rule:evenodd;clip-rule:evenodd;fill:#FFFFFF;" d="M4.001,4v49.999H42V4H4.001z M23.001,56
			c-1.658,0-3,1.343-3,2.999c0,1.658,1.342,3.001,3,3.001C24.657,62,26,60.657,26,58.999C26,57.343,24.657,56,23.001,56z"/>
	</g>
</g>
<g id="Remove_3_">
	<g>
		<path style="fill-rule:evenodd;clip-rule:evenodd;fill:#ED7161;" d="M51.431,60.725l-4.703-4.702l4.703-4.702
			c0.742-0.744,0.742-1.948,0-2.691c-0.743-0.742-1.948-0.742-2.691,0l-4.702,4.703l-4.763-4.762c-0.746-0.748-1.955-0.748-2.701,0
			c-0.746,0.744-0.746,1.954,0,2.7l4.763,4.762l-4.705,4.706c-0.743,0.743-0.743,1.947,0,2.69s1.947,0.743,2.69,0l4.705-4.705
			l4.703,4.702c0.746,0.747,1.955,0.747,2.701,0C52.177,62.681,52.177,61.471,51.431,60.725z"/>
	</g>
</g>
<g>
</g>
<g>
</g>
<g>
</g>
<g>
</g>
<g>
</g>
<g>
</g>
<g>
</g>
<g>
</g>
<g>
</g>
<g>
</g>
<g>
</g>
<g>
</g>
<g>
</g>
<g>
</g>
<g>
</g>
</svg>
