<?xml version="1.0" encoding="iso-8859-1"?>
<!-- Generator: Adobe Illustrator 16.0.0, SVG Export Plug-In . SVG Version: 6.00 Build 0)  -->
<!DOCTYPE svg PUBLIC "-//W3C//DTD SVG 1.1//EN" "http://www.w3.org/Graphics/SVG/1.1/DTD/svg11.dtd">
<svg version="1.1" id="Layer_1" xmlns="http://www.w3.org/2000/svg" xmlns:xlink="http://www.w3.org/1999/xlink" x="0px" y="0px"
	 width="62.001px" height="68px" viewBox="0 0 62.001 68" style="enable-background:new 0 0 62.001 68;" xml:space="preserve">
<g id="Tablet_1_">
	<g>
		<path style="fill-rule:evenodd;clip-rule:evenodd;fill:#CCCCCC;" d="M30.001,52c0-8.836,7.163-16,16-16
			c0.679,0,1.344,0.056,2,0.138V4.001C48.001,1.792,46.21,0,44,0H4.001C1.791,0,0,1.792,0,4.001v56c0,2.209,1.791,4,4.001,4h31.442
			C32.113,61.069,30.001,56.786,30.001,52z"/>
	</g>
</g>
<g id="Screen__x26__Home_Btn_5_">
	<g>
		<path style="fill-rule:evenodd;clip-rule:evenodd;fill:#FFFFFF;" d="M4.001,8.002v47.999H44V8.002H4.001z M24.001,58.001
			c-1.105,0-2,0.896-2,1.999c0,1.105,0.895,2.001,2,2.001C25.105,62.001,26,61.105,26,60C26,58.896,25.105,58.001,24.001,58.001z"/>
	</g>
</g>
<g id="Elipse_3_">
	<g>
		<circle style="fill:#88C057;" cx="46.001" cy="52" r="12"/>
	</g>
</g>
<g id="Plus_1_">
	<g>
		<path style="fill:#FFFFFF;" d="M50.001,50H48v-2.001C48,46.895,47.105,46,46.001,46s-2,0.895-2,1.999V50h-2c-1.104,0-2,0.895-2,2
			c0,1.103,0.896,1.998,2,1.998h2v2c0,1.107,0.896,2.001,2,2.001S48,57.105,48,55.998v-2h2.001C51.106,53.998,52,53.103,52,52
			C52,50.895,51.106,50,50.001,50z"/>
	</g>
</g>
<g>
</g>
<g>
</g>
<g>
</g>
<g>
</g>
<g>
</g>
<g>
</g>
<g>
</g>
<g>
</g>
<g>
</g>
<g>
</g>
<g>
</g>
<g>
</g>
<g>
</g>
<g>
</g>
<g>
</g>
</svg>
